<svg width="65" height="60" viewBox="0 0 65 60" fill="none" xmlns="http://www.w3.org/2000/svg">
<path d="M63.7006 45.1268L40.9284 4.97475C37.2088 -1.65825 27.8029 -1.65825 24.0967 4.97475L1.31111 45.1268C-2.40844 51.7598 2.22093 60 9.72694 60H55.2045C62.7105 60 67.4202 51.6781 63.7006 45.1268ZM32.4992 51.0924C30.519 51.0924 28.8733 49.4172 28.8733 47.4014C28.8733 45.3856 30.519 43.7103 32.4992 43.7103C34.4794 43.7103 36.1251 45.3856 36.0448 47.4967C36.1385 49.4172 34.3991 51.0924 32.4992 51.0924ZM35.804 27.23C35.6434 30.0902 35.4695 32.9368 35.3089 35.7971C35.2286 36.7232 35.2286 37.5677 35.2286 38.4802C35.1484 39.9921 33.9843 41.1634 32.4992 41.1634C31.014 41.1634 29.8634 40.0738 29.7697 38.5619C29.5289 34.1082 29.2747 29.7361 29.0338 25.2823C28.9536 24.111 28.8733 22.9261 28.7796 21.7547C28.7796 19.8207 29.85 18.2271 31.5894 17.7232C33.3287 17.3009 35.0547 18.1454 35.804 19.8207C36.0582 20.4063 36.1385 20.992 36.1385 21.673C36.0582 23.539 35.8842 25.3913 35.804 27.23Z" fill="#FF4C0C"/>
<path d="M63.7006 45.1268L40.9284 4.97475C37.2088 -1.65825 27.8029 -1.65825 24.0967 4.97475L1.31111 45.1268C-2.40844 51.7598 2.22093 60 9.72694 60H55.2045C62.7105 60 67.4202 51.6781 63.7006 45.1268ZM32.4992 51.0924C30.519 51.0924 28.8733 49.4172 28.8733 47.4014C28.8733 45.3856 30.519 43.7103 32.4992 43.7103C34.4794 43.7103 36.1251 45.3856 36.0448 47.4967C36.1385 49.4172 34.3991 51.0924 32.4992 51.0924ZM35.804 27.23C35.6434 30.0902 35.4695 32.9368 35.3089 35.7971C35.2286 36.7232 35.2286 37.5677 35.2286 38.4802C35.1484 39.9921 33.9843 41.1634 32.4992 41.1634C31.014 41.1634 29.8634 40.0738 29.7697 38.5619C29.5289 34.1082 29.2747 29.7361 29.0338 25.2823C28.9536 24.111 28.8733 22.9261 28.7796 21.7547C28.7796 19.8207 29.85 18.2271 31.5894 17.7232C33.3287 17.3009 35.0547 18.1454 35.804 19.8207C36.0582 20.4063 36.1385 20.992 36.1385 21.673C36.0582 23.539 35.8842 25.3913 35.804 27.23Z" fill="url(#paint0_radial_767_542)" fill-opacity="0.4"/>
<defs>
<radialGradient id="paint0_radial_767_542" cx="0" cy="0" r="1" gradientUnits="userSpaceOnUse" gradientTransform="translate(33.4512 -2.72728) rotate(90) scale(49.7727 30.8152)">
<stop stop-color="white"/>
<stop offset="0.0001" stop-color="white"/>
<stop offset="1" stop-color="white" stop-opacity="0"/>
</radialGradient>
</defs>
</svg>
