<svg width="54" height="54" viewBox="0 0 54 54" fill="none" xmlns="http://www.w3.org/2000/svg">
<path d="M52.9088 47.2182C51.935 47.2461 51.017 46.8824 50.3276 46.1976C48.1551 44.04 44.5298 44.0398 42.3574 46.1977C41.0036 47.5425 38.7443 47.5426 37.3906 46.1976C35.1933 44.0152 31.6179 44.0153 29.4205 46.1977C28.0667 47.5425 25.8075 47.5425 24.4537 46.1976C22.2564 44.0153 18.681 44.0153 16.4837 46.1976C16.4811 46.2001 16.4787 46.2027 16.4761 46.2051C15.1078 47.5566 12.8882 47.5559 11.521 46.2025C11.519 46.2006 11.5172 46.1988 11.5154 46.1969C9.31805 44.015 5.74288 44.0151 3.54571 46.1973C3.5439 46.1992 3.5421 46.2009 3.54029 46.2028C2.87752 46.8585 1.99771 47.2195 1.06195 47.2195C0.475525 47.2195 0.000158847 47.6918 0.000158847 48.2742V52.9453C0.000158847 53.5277 0.475525 54 1.06195 54H52.9381C53.5244 54 53.9999 53.5277 53.9999 52.9453V48.2724C53.9999 47.9876 53.8839 47.715 53.6785 47.5164C53.473 47.318 53.1974 47.2111 52.9088 47.2182ZM51.8763 50.8907C51.8763 51.4429 51.4286 51.8906 50.8763 51.8906H3.12375C2.57146 51.8906 2.12375 51.4429 2.12375 50.8906V50.0595C2.12375 49.5786 2.47008 49.175 2.92445 49.0174C3.71428 48.7436 4.43805 48.2942 5.04698 47.6894C5.04878 47.6875 5.05059 47.6858 5.05239 47.6839C6.42041 46.3304 8.64115 46.3305 10.0093 47.684C10.0113 47.6861 10.0133 47.688 10.0153 47.69C12.2126 49.8723 15.7878 49.872 17.9851 47.6897C17.9876 47.6872 17.9902 47.6845 17.9927 47.682C19.3627 46.3291 21.5853 46.3314 22.9521 47.6894C25.1246 49.8472 28.7499 49.847 30.9223 47.6893C32.2917 46.3292 34.5199 46.3293 35.889 47.6894C38.0615 49.8471 41.6868 49.8472 43.8592 47.6893C45.2131 46.3444 47.4723 46.3446 48.8261 47.6894C49.4546 48.3138 50.2227 48.7766 51.056 49.0484C51.5201 49.1998 51.8764 49.6077 51.8764 50.0958L51.8763 50.8907Z" fill="#FF4C0C"/>
<path d="M52.9088 47.2182C51.935 47.2461 51.017 46.8824 50.3276 46.1976C48.1551 44.04 44.5298 44.0398 42.3574 46.1977C41.0036 47.5425 38.7443 47.5426 37.3906 46.1976C35.1933 44.0152 31.6179 44.0153 29.4205 46.1977C28.0667 47.5425 25.8075 47.5425 24.4537 46.1976C22.2564 44.0153 18.681 44.0153 16.4837 46.1976C16.4811 46.2001 16.4787 46.2027 16.4761 46.2051C15.1078 47.5566 12.8882 47.5559 11.521 46.2025C11.519 46.2006 11.5172 46.1988 11.5154 46.1969C9.31805 44.015 5.74288 44.0151 3.54571 46.1973C3.5439 46.1992 3.5421 46.2009 3.54029 46.2028C2.87752 46.8585 1.99771 47.2195 1.06195 47.2195C0.475525 47.2195 0.000158847 47.6918 0.000158847 48.2742V52.9453C0.000158847 53.5277 0.475525 54 1.06195 54H52.9381C53.5244 54 53.9999 53.5277 53.9999 52.9453V48.2724C53.9999 47.9876 53.8839 47.715 53.6785 47.5164C53.473 47.318 53.1974 47.2111 52.9088 47.2182ZM51.8763 50.8907C51.8763 51.4429 51.4286 51.8906 50.8763 51.8906H3.12375C2.57146 51.8906 2.12375 51.4429 2.12375 50.8906V50.0595C2.12375 49.5786 2.47008 49.175 2.92445 49.0174C3.71428 48.7436 4.43805 48.2942 5.04698 47.6894C5.04878 47.6875 5.05059 47.6858 5.05239 47.6839C6.42041 46.3304 8.64115 46.3305 10.0093 47.684C10.0113 47.6861 10.0133 47.688 10.0153 47.69C12.2126 49.8723 15.7878 49.872 17.9851 47.6897C17.9876 47.6872 17.9902 47.6845 17.9927 47.682C19.3627 46.3291 21.5853 46.3314 22.9521 47.6894C25.1246 49.8472 28.7499 49.847 30.9223 47.6893C32.2917 46.3292 34.5199 46.3293 35.889 47.6894C38.0615 49.8471 41.6868 49.8472 43.8592 47.6893C45.2131 46.3444 47.4723 46.3446 48.8261 47.6894C49.4546 48.3138 50.2227 48.7766 51.056 49.0484C51.5201 49.1998 51.8764 49.6077 51.8764 50.0958L51.8763 50.8907Z" fill="url(#paint0_radial_819_1261)" fill-opacity="0.4"/>
<path d="M52.9381 24.2961H49.3182C48.7659 24.2961 48.3182 23.8484 48.3182 23.2961V21.7016C48.3182 21.1493 48.7659 20.7016 49.3182 20.7016H52.9381C53.5244 20.7016 53.9999 20.2293 53.9999 19.6469C53.9999 19.0645 53.5244 18.5922 52.9381 18.5922H49.2764C48.7472 18.5922 48.3182 18.1632 48.3182 17.6341V17.6341C48.3182 17.0517 47.8428 16.5794 47.2564 16.5794H42.2348C41.6485 16.5794 41.173 17.0517 41.173 17.6341V17.6341C41.173 18.1632 40.744 18.5922 40.2148 18.5922H32.5402C31.9879 18.5922 31.5402 18.1445 31.5402 17.5922V17.267C31.5402 16.7147 31.9879 16.267 32.5402 16.267H32.614C34.9099 16.267 36.9925 14.8316 37.7962 12.6954C38.6544 10.4144 37.8799 7.81207 35.9132 6.36061L29.3936 1.267C29.385 1.26035 29.3764 1.25381 29.3677 1.24738C28.2547 0.431367 26.9351 0 25.5515 0C24.3222 0 23.0849 0.0855351 21.9808 0.689344L15.9679 3.97839C15.3802 4.26558 14.724 4.41724 14.069 4.41724V4.41724C13.7816 4.41724 13.5486 4.18426 13.5486 3.89686V3.83832C13.5486 3.25593 13.0732 2.78364 12.4868 2.78364H6.55037C6.48078 2.78364 6.41138 2.77637 6.3433 2.76196L1.28325 1.69098C0.709563 1.5698 0.145643 1.93293 0.0235369 2.50267C-0.0986757 3.07241 0.267113 3.63266 0.840694 3.75406L4.47917 4.52416C4.94141 4.622 5.2721 5.03 5.2721 5.50249V15.4799C5.2721 16.0322 4.82438 16.4799 4.2721 16.4799H1.06197C0.475543 16.4799 0.000177397 16.9522 0.000177397 17.5346C0.000177397 18.117 0.475543 18.5893 1.06197 18.5893H12.4868C13.0732 18.5893 13.5486 18.117 13.5486 17.5346V17.2671C13.5486 16.7148 13.9963 16.2671 14.5486 16.2671H23.6896C24.2419 16.2671 24.6896 16.7148 24.6896 17.2671V17.746C24.6896 18.2134 24.3106 18.5923 23.8432 18.5923V18.5923C18.4308 18.5923 13.9505 22.6311 13.2963 27.8335C13.2621 28.1049 13.036 28.3156 12.7624 28.3156V28.3156C12.176 28.3156 11.7006 28.7879 11.7006 29.3703V34.3582C11.7006 34.9406 12.176 35.4129 12.7624 35.4129H13.207C13.9381 35.4129 14.3914 36.1577 14.0989 36.8278C13.8396 37.422 13.6408 38.0357 13.6408 38.6854C13.6408 40.7772 15.3541 42.4789 17.4599 42.4789C19.5658 42.4789 21.279 40.7772 21.279 38.6854C21.279 38.0363 21.0799 37.4224 20.8203 36.8279C20.5277 36.1578 20.981 35.4129 21.7122 35.4129H22.3805C22.9669 35.4129 23.4423 34.9406 23.4423 34.3582V29.3703C23.4423 28.7879 22.9669 28.3156 22.3805 28.3156V28.3156C22.1514 28.3156 21.9848 28.0971 22.0824 27.8899C22.4948 27.0139 23.3903 26.4056 24.4263 26.4056H28.8354C29.4217 26.4056 29.8971 25.9333 29.8971 25.3509C29.8971 24.7685 29.4217 24.2962 28.8354 24.2962H24.4263C22.3578 24.2962 20.5964 25.6278 19.9652 27.4732C19.804 27.9441 19.3932 28.3156 18.8954 28.3156H16.4825C15.8913 28.3156 15.4242 27.8026 15.5596 27.2271C16.4379 23.492 19.8187 20.7017 23.8432 20.7017H40.1731C40.7254 20.7017 41.1731 21.1494 41.1731 21.7017V23.2976C41.1731 23.8503 40.7251 24.2982 40.1724 24.2977C39.2723 24.2969 38.087 24.2961 38.0625 24.2973C37.4767 24.3242 37.0238 24.8177 37.051 25.3996C37.0739 25.8912 37.4551 26.3951 38.1393 26.4072C38.1613 26.4076 39.5024 26.4078 40.3939 26.4079C40.8246 26.408 41.1731 26.7571 41.1731 27.1878V27.1878C41.1731 27.7702 41.6486 28.2425 42.2349 28.2425H47.2565C47.8429 28.2425 48.3183 27.7702 48.3183 27.1878V27.1878C48.3183 26.7558 48.6686 26.4056 49.1006 26.4056H52.9382C53.5245 26.4056 54 25.9333 54 25.3509C54 24.7685 53.5245 24.2961 52.9381 24.2961ZM19.0157 38.0149C19.1026 38.2308 19.1554 38.4517 19.1554 38.6853C19.1554 39.614 18.3948 40.3694 17.4599 40.3694C16.525 40.3694 15.7644 39.614 15.7644 38.6853C15.7644 38.4183 15.8357 38.1521 15.9388 37.8909C16.0575 37.5904 16.6766 36.3121 16.9658 35.7183C17.0571 35.5308 17.247 35.4128 17.4556 35.4128V35.4128C17.6681 35.4128 17.8612 35.5358 17.9508 35.7285C18.3831 36.6572 18.9133 37.7957 19.0157 38.0149ZM21.3187 32.3036C21.3187 32.8558 20.871 33.3036 20.3187 33.3036H14.8242C14.2719 33.3036 13.8242 32.8558 13.8242 32.3036V31.425C13.8242 30.8727 14.2719 30.425 14.8242 30.425H20.3187C20.871 30.425 21.3187 30.8727 21.3187 31.425V32.3036ZM11.425 15.4798C11.425 16.0321 10.9773 16.4798 10.425 16.4798H8.39569C7.8434 16.4798 7.39569 16.0321 7.39569 15.4798V5.89301C7.39569 5.34073 7.8434 4.89301 8.39569 4.89301H10.425C10.9773 4.89301 11.425 5.34073 11.425 5.89301V15.4798ZM14.5486 14.1576C13.9963 14.1576 13.5486 13.7099 13.5486 13.1576V7.047C13.5486 6.7596 13.7816 6.52662 14.069 6.52662V6.52662C15.0515 6.52662 16.1053 6.31125 16.972 5.83727L22.9849 2.54823C23.8075 2.14639 24.6576 2.10938 25.5515 2.10938C26.4726 2.10938 27.3515 2.39498 28.0941 2.93541L34.6124 8.02807C35.8143 8.94871 36.348 10.519 35.807 11.957C35.5127 12.7392 34.9401 13.3678 34.227 13.7493C33.6 14.0847 33.0718 13.3585 33.0718 12.6474V12.6474C33.0718 11.4564 32.4621 10.3214 31.4717 9.65218L26.6249 6.17024C25.8206 5.57782 24.5737 5.51591 23.7756 6.16581L21.8428 7.73983C20.4686 8.85906 21.2935 11.1373 23.0657 11.1373H29.4278C30.2553 11.1373 30.9482 11.8239 30.9482 12.6474C30.9482 13.4802 30.2661 14.1576 29.4278 14.1576H14.5486ZM25.5432 7.99639C25.9923 8.31903 25.764 9.02791 25.211 9.02791V9.02791C24.6754 9.02791 24.4363 8.35551 24.8516 8.0173L25.0157 7.88367C25.0504 7.85542 25.0873 7.82822 25.1309 7.81794C25.2093 7.79943 25.294 7.81556 25.361 7.86533C25.3655 7.86871 25.37 7.87198 25.3745 7.87525L25.5432 7.99639ZM27.8132 18.5922C27.2609 18.5922 26.8132 18.1445 26.8132 17.5922V17.267C26.8132 16.7147 27.2609 16.267 27.8132 16.267H28.4167C28.969 16.267 29.4167 16.7147 29.4167 17.267V17.5922C29.4167 18.1445 28.969 18.5922 28.4167 18.5922H27.8132ZM44.2966 26.133C43.7443 26.133 43.2966 25.6853 43.2966 25.133V19.6887C43.2966 19.1365 43.7443 18.6887 44.2966 18.6887H45.1946C45.7469 18.6887 46.1946 19.1365 46.1946 19.6887V25.133C46.1946 25.6853 45.7469 26.133 45.1946 26.133H44.2966Z" fill="#FF4C0C"/>
<path d="M52.9381 24.2961H49.3182C48.7659 24.2961 48.3182 23.8484 48.3182 23.2961V21.7016C48.3182 21.1493 48.7659 20.7016 49.3182 20.7016H52.9381C53.5244 20.7016 53.9999 20.2293 53.9999 19.6469C53.9999 19.0645 53.5244 18.5922 52.9381 18.5922H49.2764C48.7472 18.5922 48.3182 18.1632 48.3182 17.6341V17.6341C48.3182 17.0517 47.8428 16.5794 47.2564 16.5794H42.2348C41.6485 16.5794 41.173 17.0517 41.173 17.6341V17.6341C41.173 18.1632 40.744 18.5922 40.2148 18.5922H32.5402C31.9879 18.5922 31.5402 18.1445 31.5402 17.5922V17.267C31.5402 16.7147 31.9879 16.267 32.5402 16.267H32.614C34.9099 16.267 36.9925 14.8316 37.7962 12.6954C38.6544 10.4144 37.8799 7.81207 35.9132 6.36061L29.3936 1.267C29.385 1.26035 29.3764 1.25381 29.3677 1.24738C28.2547 0.431367 26.9351 0 25.5515 0C24.3222 0 23.0849 0.0855351 21.9808 0.689344L15.9679 3.97839C15.3802 4.26558 14.724 4.41724 14.069 4.41724V4.41724C13.7816 4.41724 13.5486 4.18426 13.5486 3.89686V3.83832C13.5486 3.25593 13.0732 2.78364 12.4868 2.78364H6.55037C6.48078 2.78364 6.41138 2.77637 6.3433 2.76196L1.28325 1.69098C0.709563 1.5698 0.145643 1.93293 0.0235369 2.50267C-0.0986757 3.07241 0.267113 3.63266 0.840694 3.75406L4.47917 4.52416C4.94141 4.622 5.2721 5.03 5.2721 5.50249V15.4799C5.2721 16.0322 4.82438 16.4799 4.2721 16.4799H1.06197C0.475543 16.4799 0.000177397 16.9522 0.000177397 17.5346C0.000177397 18.117 0.475543 18.5893 1.06197 18.5893H12.4868C13.0732 18.5893 13.5486 18.117 13.5486 17.5346V17.2671C13.5486 16.7148 13.9963 16.2671 14.5486 16.2671H23.6896C24.2419 16.2671 24.6896 16.7148 24.6896 17.2671V17.746C24.6896 18.2134 24.3106 18.5923 23.8432 18.5923V18.5923C18.4308 18.5923 13.9505 22.6311 13.2963 27.8335C13.2621 28.1049 13.036 28.3156 12.7624 28.3156V28.3156C12.176 28.3156 11.7006 28.7879 11.7006 29.3703V34.3582C11.7006 34.9406 12.176 35.4129 12.7624 35.4129H13.207C13.9381 35.4129 14.3914 36.1577 14.0989 36.8278C13.8396 37.422 13.6408 38.0357 13.6408 38.6854C13.6408 40.7772 15.3541 42.4789 17.4599 42.4789C19.5658 42.4789 21.279 40.7772 21.279 38.6854C21.279 38.0363 21.0799 37.4224 20.8203 36.8279C20.5277 36.1578 20.981 35.4129 21.7122 35.4129H22.3805C22.9669 35.4129 23.4423 34.9406 23.4423 34.3582V29.3703C23.4423 28.7879 22.9669 28.3156 22.3805 28.3156V28.3156C22.1514 28.3156 21.9848 28.0971 22.0824 27.8899C22.4948 27.0139 23.3903 26.4056 24.4263 26.4056H28.8354C29.4217 26.4056 29.8971 25.9333 29.8971 25.3509C29.8971 24.7685 29.4217 24.2962 28.8354 24.2962H24.4263C22.3578 24.2962 20.5964 25.6278 19.9652 27.4732C19.804 27.9441 19.3932 28.3156 18.8954 28.3156H16.4825C15.8913 28.3156 15.4242 27.8026 15.5596 27.2271C16.4379 23.492 19.8187 20.7017 23.8432 20.7017H40.1731C40.7254 20.7017 41.1731 21.1494 41.1731 21.7017V23.2976C41.1731 23.8503 40.7251 24.2982 40.1724 24.2977C39.2723 24.2969 38.087 24.2961 38.0625 24.2973C37.4767 24.3242 37.0238 24.8177 37.051 25.3996C37.0739 25.8912 37.4551 26.3951 38.1393 26.4072C38.1613 26.4076 39.5024 26.4078 40.3939 26.4079C40.8246 26.408 41.1731 26.7571 41.1731 27.1878V27.1878C41.1731 27.7702 41.6486 28.2425 42.2349 28.2425H47.2565C47.8429 28.2425 48.3183 27.7702 48.3183 27.1878V27.1878C48.3183 26.7558 48.6686 26.4056 49.1006 26.4056H52.9382C53.5245 26.4056 54 25.9333 54 25.3509C54 24.7685 53.5245 24.2961 52.9381 24.2961ZM19.0157 38.0149C19.1026 38.2308 19.1554 38.4517 19.1554 38.6853C19.1554 39.614 18.3948 40.3694 17.4599 40.3694C16.525 40.3694 15.7644 39.614 15.7644 38.6853C15.7644 38.4183 15.8357 38.1521 15.9388 37.8909C16.0575 37.5904 16.6766 36.3121 16.9658 35.7183C17.0571 35.5308 17.247 35.4128 17.4556 35.4128V35.4128C17.6681 35.4128 17.8612 35.5358 17.9508 35.7285C18.3831 36.6572 18.9133 37.7957 19.0157 38.0149ZM21.3187 32.3036C21.3187 32.8558 20.871 33.3036 20.3187 33.3036H14.8242C14.2719 33.3036 13.8242 32.8558 13.8242 32.3036V31.425C13.8242 30.8727 14.2719 30.425 14.8242 30.425H20.3187C20.871 30.425 21.3187 30.8727 21.3187 31.425V32.3036ZM11.425 15.4798C11.425 16.0321 10.9773 16.4798 10.425 16.4798H8.39569C7.8434 16.4798 7.39569 16.0321 7.39569 15.4798V5.89301C7.39569 5.34073 7.8434 4.89301 8.39569 4.89301H10.425C10.9773 4.89301 11.425 5.34073 11.425 5.89301V15.4798ZM14.5486 14.1576C13.9963 14.1576 13.5486 13.7099 13.5486 13.1576V7.047C13.5486 6.7596 13.7816 6.52662 14.069 6.52662V6.52662C15.0515 6.52662 16.1053 6.31125 16.972 5.83727L22.9849 2.54823C23.8075 2.14639 24.6576 2.10938 25.5515 2.10938C26.4726 2.10938 27.3515 2.39498 28.0941 2.93541L34.6124 8.02807C35.8143 8.94871 36.348 10.519 35.807 11.957C35.5127 12.7392 34.9401 13.3678 34.227 13.7493C33.6 14.0847 33.0718 13.3585 33.0718 12.6474V12.6474C33.0718 11.4564 32.4621 10.3214 31.4717 9.65218L26.6249 6.17024C25.8206 5.57782 24.5737 5.51591 23.7756 6.16581L21.8428 7.73983C20.4686 8.85906 21.2935 11.1373 23.0657 11.1373H29.4278C30.2553 11.1373 30.9482 11.8239 30.9482 12.6474C30.9482 13.4802 30.2661 14.1576 29.4278 14.1576H14.5486ZM25.5432 7.99639C25.9923 8.31903 25.764 9.02791 25.211 9.02791V9.02791C24.6754 9.02791 24.4363 8.35551 24.8516 8.0173L25.0157 7.88367C25.0504 7.85542 25.0873 7.82822 25.1309 7.81794C25.2093 7.79943 25.294 7.81556 25.361 7.86533C25.3655 7.86871 25.37 7.87198 25.3745 7.87525L25.5432 7.99639ZM27.8132 18.5922C27.2609 18.5922 26.8132 18.1445 26.8132 17.5922V17.267C26.8132 16.7147 27.2609 16.267 27.8132 16.267H28.4167C28.969 16.267 29.4167 16.7147 29.4167 17.267V17.5922C29.4167 18.1445 28.969 18.5922 28.4167 18.5922H27.8132ZM44.2966 26.133C43.7443 26.133 43.2966 25.6853 43.2966 25.133V19.6887C43.2966 19.1365 43.7443 18.6887 44.2966 18.6887H45.1946C45.7469 18.6887 46.1946 19.1365 46.1946 19.6887V25.133C46.1946 25.6853 45.7469 26.133 45.1946 26.133H44.2966Z" fill="url(#paint1_radial_819_1261)" fill-opacity="0.4"/>
<path d="M32.5893 25.9358C32.8264 26.2856 33.2621 26.468 33.6799 26.3851C34.132 26.2953 34.4842 25.9103 34.5287 25.4541C34.6198 24.5203 33.4785 23.9432 32.771 24.5588C32.3754 24.9028 32.2988 25.5022 32.5893 25.9358Z" fill="#FF4C0C"/>
<path d="M32.5893 25.9358C32.8264 26.2856 33.2621 26.468 33.6799 26.3851C34.132 26.2953 34.4842 25.9103 34.5287 25.4541C34.6198 24.5203 33.4785 23.9432 32.771 24.5588C32.3754 24.9028 32.2988 25.5022 32.5893 25.9358Z" fill="url(#paint2_radial_819_1261)" fill-opacity="0.4"/>
<defs>
<radialGradient id="paint0_radial_819_1261" cx="0" cy="0" r="1" gradientUnits="userSpaceOnUse" gradientTransform="translate(27.7902 -2.45455) rotate(90) scale(44.7955 25.6003)">
<stop stop-color="white"/>
<stop offset="0.0001" stop-color="white"/>
<stop offset="1" stop-color="white" stop-opacity="0"/>
</radialGradient>
<radialGradient id="paint1_radial_819_1261" cx="0" cy="0" r="1" gradientUnits="userSpaceOnUse" gradientTransform="translate(27.7902 -2.45455) rotate(90) scale(44.7955 25.6003)">
<stop stop-color="white"/>
<stop offset="0.0001" stop-color="white"/>
<stop offset="1" stop-color="white" stop-opacity="0"/>
</radialGradient>
<radialGradient id="paint2_radial_819_1261" cx="0" cy="0" r="1" gradientUnits="userSpaceOnUse" gradientTransform="translate(27.7902 -2.45455) rotate(90) scale(44.7955 25.6003)">
<stop stop-color="white"/>
<stop offset="0.0001" stop-color="white"/>
<stop offset="1" stop-color="white" stop-opacity="0"/>
</radialGradient>
</defs>
</svg>
