<svg width="41" height="54" viewBox="0 0 41 54" fill="none" xmlns="http://www.w3.org/2000/svg">
<path d="M40.1704 11.5796L28.9204 0.32959C28.7094 0.118652 28.4238 0 28.1249 0H4.49993C2.0193 0 0 2.01814 0 4.50004V49.5001C0 51.9819 2.0193 54 4.50004 54H36.0001C38.4807 54 40.5 51.9819 40.5 49.5V12.375C40.5 12.0762 40.3813 11.7906 40.1704 11.5796ZM29.25 6.25507C29.25 5.36416 30.3271 4.918 30.9571 5.54796L34.952 9.54293C35.582 10.1729 35.1358 11.25 34.2449 11.25H31.4999C30.2585 11.25 29.25 10.2404 29.25 9.00007V6.25507ZM38.25 49.5C38.25 50.7403 37.2414 51.7499 36.0001 51.7499H4.50004C3.25856 51.7499 2.25007 50.7403 2.25007 49.5V4.50004C2.25007 3.25972 3.25867 2.25007 4.50004 2.25007H26C26.5523 2.25007 27 2.69779 27 3.25007V9.00007C27 11.4819 29.0193 13.5 31.5 13.5H37.25C37.8023 13.5 38.25 13.9477 38.25 14.5V49.5Z" fill="#FF4C0C"/>
<path d="M40.1704 11.5796L28.9204 0.32959C28.7094 0.118652 28.4238 0 28.1249 0H4.49993C2.0193 0 0 2.01814 0 4.50004V49.5001C0 51.9819 2.0193 54 4.50004 54H36.0001C38.4807 54 40.5 51.9819 40.5 49.5V12.375C40.5 12.0762 40.3813 11.7906 40.1704 11.5796ZM29.25 6.25507C29.25 5.36416 30.3271 4.918 30.9571 5.54796L34.952 9.54293C35.582 10.1729 35.1358 11.25 34.2449 11.25H31.4999C30.2585 11.25 29.25 10.2404 29.25 9.00007V6.25507ZM38.25 49.5C38.25 50.7403 37.2414 51.7499 36.0001 51.7499H4.50004C3.25856 51.7499 2.25007 50.7403 2.25007 49.5V4.50004C2.25007 3.25972 3.25867 2.25007 4.50004 2.25007H26C26.5523 2.25007 27 2.69779 27 3.25007V9.00007C27 11.4819 29.0193 13.5 31.5 13.5H37.25C37.8023 13.5 38.25 13.9477 38.25 14.5V49.5Z" fill="url(#paint0_radial_819_1257)" fill-opacity="0.4"/>
<path d="M32.625 31.5H16.875C16.2532 31.5 15.75 32.0032 15.75 32.6251C15.75 33.2469 16.2532 33.7501 16.875 33.7501H32.625C33.2468 33.7501 33.75 33.2469 33.75 32.6251C33.75 32.0032 33.2468 31.5 32.625 31.5Z" fill="#FF4C0C"/>
<path d="M32.625 31.5H16.875C16.2532 31.5 15.75 32.0032 15.75 32.6251C15.75 33.2469 16.2532 33.7501 16.875 33.7501H32.625C33.2468 33.7501 33.75 33.2469 33.75 32.6251C33.75 32.0032 33.2468 31.5 32.625 31.5Z" fill="url(#paint1_radial_819_1257)" fill-opacity="0.4"/>
<path d="M7.87504 13.5H21.375C21.9969 13.5 22.5001 12.9968 22.5001 12.375C22.5001 11.7531 21.9969 11.2499 21.375 11.2499H7.87504C7.25319 11.2499 6.75 11.7531 6.75 12.375C6.75 12.9968 7.25319 13.5 7.87504 13.5Z" fill="#FF4C0C"/>
<path d="M7.87504 13.5H21.375C21.9969 13.5 22.5001 12.9968 22.5001 12.375C22.5001 11.7531 21.9969 11.2499 21.375 11.2499H7.87504C7.25319 11.2499 6.75 11.7531 6.75 12.375C6.75 12.9968 7.25319 13.5 7.87504 13.5Z" fill="url(#paint2_radial_819_1257)" fill-opacity="0.4"/>
<path d="M32.625 24.75H7.87504C7.25319 24.75 6.75 25.2532 6.75 25.8751C6.75 26.4969 7.25319 27.0001 7.87504 27.0001H32.6251C33.2469 27.0001 33.7501 26.4969 33.7501 25.8751C33.75 25.2532 33.2468 24.75 32.625 24.75Z" fill="#FF4C0C"/>
<path d="M32.625 24.75H7.87504C7.25319 24.75 6.75 25.2532 6.75 25.8751C6.75 26.4969 7.25319 27.0001 7.87504 27.0001H32.6251C33.2469 27.0001 33.7501 26.4969 33.7501 25.8751C33.75 25.2532 33.2468 24.75 32.625 24.75Z" fill="url(#paint3_radial_819_1257)" fill-opacity="0.4"/>
<path d="M6.75 19.125C6.75 19.7468 7.25319 20.25 7.87504 20.25H32.6251C33.2469 20.25 33.7501 19.7468 33.7501 19.125C33.7501 18.5031 33.2469 17.9999 32.6251 17.9999H7.87504C7.25319 18 6.75 18.5032 6.75 19.125Z" fill="#FF4C0C"/>
<path d="M6.75 19.125C6.75 19.7468 7.25319 20.25 7.87504 20.25H32.6251C33.2469 20.25 33.7501 19.7468 33.7501 19.125C33.7501 18.5031 33.2469 17.9999 32.6251 17.9999H7.87504C7.25319 18 6.75 18.5032 6.75 19.125Z" fill="url(#paint4_radial_819_1257)" fill-opacity="0.4"/>
<path d="M22.8362 40.8231C21.6422 41.9981 20.224 43.2805 19.2164 44.1132C18.736 44.5103 18.0567 44.3119 17.8718 43.7167C17.8142 43.5312 17.7619 43.3562 17.7188 43.2115C17.2618 41.6965 16.9036 40.5 15.75 40.5C14.7634 40.5 14.3195 41.402 13.6471 42.7665C13.3936 43.2803 12.9307 44.222 12.6176 44.7087C12.487 44.9117 12.2486 44.9856 12.0395 44.865C12.0195 44.8535 11.9991 44.8412 11.9784 44.8284C11.5392 44.5561 11.5105 43.9511 11.8044 43.5261C12.7811 42.1141 13.5 40.5926 13.5 39.375C13.5 36.9162 11.4302 36 10.125 36C8.79789 36 6.75 37.9325 6.75 40.5C6.75 41.4247 7.16618 42.5263 7.80182 43.5685C8.05771 43.9881 8.02317 44.5389 7.65128 44.8602C7.50045 44.9905 7.34982 45.1127 7.20035 45.2252C6.70381 45.5976 6.60266 46.303 6.97401 46.7996C7.19592 47.0951 7.53437 47.25 7.87493 47.25C8.11002 47.25 8.34732 47.1764 8.54951 47.0248C8.72355 46.8946 8.9033 46.7494 9.0864 46.5912C9.48662 46.2456 10.0783 46.2335 10.5138 46.5335C11.162 46.9801 11.8088 47.25 12.375 47.25C13.1625 47.25 13.7844 46.7859 14.3099 46.1172C14.8708 45.4036 16.0189 45.5155 16.4951 46.2882C16.8554 46.8728 17.3223 47.25 18 47.25C18.3758 47.25 19.5161 47.25 24.4139 42.427C24.8577 41.9909 24.8622 41.279 24.4271 40.8362C23.9919 40.3913 23.28 40.3891 22.8362 40.8231ZM10.5684 41.2756C10.2248 41.8862 9.34669 41.8693 9.12798 41.2037C9.04608 40.9545 8.99996 40.7168 8.99996 40.5C8.99996 39.4654 9.57207 38.7543 9.90443 38.4351C10.0404 38.3045 10.2268 38.2421 10.411 38.2816C10.7536 38.355 11.25 38.5959 11.25 39.3751C11.25 39.8449 10.9899 40.5264 10.5684 41.2756Z" fill="#FF4C0C"/>
<path d="M22.8362 40.8231C21.6422 41.9981 20.224 43.2805 19.2164 44.1132C18.736 44.5103 18.0567 44.3119 17.8718 43.7167C17.8142 43.5312 17.7619 43.3562 17.7188 43.2115C17.2618 41.6965 16.9036 40.5 15.75 40.5C14.7634 40.5 14.3195 41.402 13.6471 42.7665C13.3936 43.2803 12.9307 44.222 12.6176 44.7087C12.487 44.9117 12.2486 44.9856 12.0395 44.865C12.0195 44.8535 11.9991 44.8412 11.9784 44.8284C11.5392 44.5561 11.5105 43.9511 11.8044 43.5261C12.7811 42.1141 13.5 40.5926 13.5 39.375C13.5 36.9162 11.4302 36 10.125 36C8.79789 36 6.75 37.9325 6.75 40.5C6.75 41.4247 7.16618 42.5263 7.80182 43.5685C8.05771 43.9881 8.02317 44.5389 7.65128 44.8602C7.50045 44.9905 7.34982 45.1127 7.20035 45.2252C6.70381 45.5976 6.60266 46.303 6.97401 46.7996C7.19592 47.0951 7.53437 47.25 7.87493 47.25C8.11002 47.25 8.34732 47.1764 8.54951 47.0248C8.72355 46.8946 8.9033 46.7494 9.0864 46.5912C9.48662 46.2456 10.0783 46.2335 10.5138 46.5335C11.162 46.9801 11.8088 47.25 12.375 47.25C13.1625 47.25 13.7844 46.7859 14.3099 46.1172C14.8708 45.4036 16.0189 45.5155 16.4951 46.2882C16.8554 46.8728 17.3223 47.25 18 47.25C18.3758 47.25 19.5161 47.25 24.4139 42.427C24.8577 41.9909 24.8622 41.279 24.4271 40.8362C23.9919 40.3913 23.28 40.3891 22.8362 40.8231ZM10.5684 41.2756C10.2248 41.8862 9.34669 41.8693 9.12798 41.2037C9.04608 40.9545 8.99996 40.7168 8.99996 40.5C8.99996 39.4654 9.57207 38.7543 9.90443 38.4351C10.0404 38.3045 10.2268 38.2421 10.411 38.2816C10.7536 38.355 11.25 38.5959 11.25 39.3751C11.25 39.8449 10.9899 40.5264 10.5684 41.2756Z" fill="url(#paint5_radial_819_1257)" fill-opacity="0.4"/>
<defs>
<radialGradient id="paint0_radial_819_1257" cx="0" cy="0" r="1" gradientUnits="userSpaceOnUse" gradientTransform="translate(20.8427 -2.45455) rotate(90) scale(44.7955 19.2002)">
<stop stop-color="white"/>
<stop offset="0.0001" stop-color="white"/>
<stop offset="1" stop-color="white" stop-opacity="0"/>
</radialGradient>
<radialGradient id="paint1_radial_819_1257" cx="0" cy="0" r="1" gradientUnits="userSpaceOnUse" gradientTransform="translate(20.8427 -2.45455) rotate(90) scale(44.7955 19.2002)">
<stop stop-color="white"/>
<stop offset="0.0001" stop-color="white"/>
<stop offset="1" stop-color="white" stop-opacity="0"/>
</radialGradient>
<radialGradient id="paint2_radial_819_1257" cx="0" cy="0" r="1" gradientUnits="userSpaceOnUse" gradientTransform="translate(20.8427 -2.45455) rotate(90) scale(44.7955 19.2002)">
<stop stop-color="white"/>
<stop offset="0.0001" stop-color="white"/>
<stop offset="1" stop-color="white" stop-opacity="0"/>
</radialGradient>
<radialGradient id="paint3_radial_819_1257" cx="0" cy="0" r="1" gradientUnits="userSpaceOnUse" gradientTransform="translate(20.8427 -2.45455) rotate(90) scale(44.7955 19.2002)">
<stop stop-color="white"/>
<stop offset="0.0001" stop-color="white"/>
<stop offset="1" stop-color="white" stop-opacity="0"/>
</radialGradient>
<radialGradient id="paint4_radial_819_1257" cx="0" cy="0" r="1" gradientUnits="userSpaceOnUse" gradientTransform="translate(20.8427 -2.45455) rotate(90) scale(44.7955 19.2002)">
<stop stop-color="white"/>
<stop offset="0.0001" stop-color="white"/>
<stop offset="1" stop-color="white" stop-opacity="0"/>
</radialGradient>
<radialGradient id="paint5_radial_819_1257" cx="0" cy="0" r="1" gradientUnits="userSpaceOnUse" gradientTransform="translate(20.8427 -2.45455) rotate(90) scale(44.7955 19.2002)">
<stop stop-color="white"/>
<stop offset="0.0001" stop-color="white"/>
<stop offset="1" stop-color="white" stop-opacity="0"/>
</radialGradient>
</defs>
</svg>
