<svg width="30" height="29" viewBox="0 0 30 29" fill="none" xmlns="http://www.w3.org/2000/svg">
<path d="M30 14.5C30 6.49102 23.2852 0 15 0C6.71484 0 0 6.49102 0 14.5C0 22.509 6.71484 29 15 29C15.0879 29 15.1758 29 15.2637 28.9943V17.7115H12.041V14.0809H15.2637V11.4074C15.2637 8.30918 17.2207 6.62129 20.0801 6.62129C21.4512 6.62129 22.6289 6.71758 22.9688 6.76289V10.0027H21C19.4473 10.0027 19.1426 10.7164 19.1426 11.7643V14.0752H22.8633L22.377 17.7059H19.1426V28.4393C25.4121 26.7004 30 21.1213 30 14.5Z" fill="#FF4C0C"/>
<path d="M30 14.5C30 6.49102 23.2852 0 15 0C6.71484 0 0 6.49102 0 14.5C0 22.509 6.71484 29 15 29C15.0879 29 15.1758 29 15.2637 28.9943V17.7115H12.041V14.0809H15.2637V11.4074C15.2637 8.30918 17.2207 6.62129 20.0801 6.62129C21.4512 6.62129 22.6289 6.71758 22.9688 6.76289V10.0027H21C19.4473 10.0027 19.1426 10.7164 19.1426 11.7643V14.0752H22.8633L22.377 17.7059H19.1426V28.4393C25.4121 26.7004 30 21.1213 30 14.5Z" fill="url(#paint0_radial_528_166)" fill-opacity="0.4"/>
<defs>
<radialGradient id="paint0_radial_528_166" cx="0" cy="0" r="1" gradientUnits="userSpaceOnUse" gradientTransform="translate(15.439 -1.31818) rotate(90) scale(24.0568 14.2224)">
<stop stop-color="white"/>
<stop offset="0.0001" stop-color="white"/>
<stop offset="1" stop-color="white" stop-opacity="0"/>
</radialGradient>
</defs>
</svg>
