<svg width="26" height="26" viewBox="0 0 26 26" fill="none" xmlns="http://www.w3.org/2000/svg">
<path d="M25.9682 11.3674C22.9478 8.72448 25.831 11.2252 22.888 8.66435V3.29732H18.3169V4.66548L12.9841 0C12.6017 0.334293 0.382187 11.033 0 11.3674L0.999883 12.5162L1.55658 12.0249V26H24.4116V12.0249L24.9683 12.5162L25.9682 11.3674ZM14.5078 12.4393C15.7681 12.4393 16.7933 13.4646 16.7933 14.7248H15.2696C15.2696 14.3045 14.9281 13.963 14.5078 13.963V12.4393ZM18.0171 21.989C17.2747 22.7315 16.2993 23.1028 15.3232 23.1028C14.3478 23.1028 13.3725 22.7315 12.63 21.989L7.24358 16.6027C5.75861 15.1177 5.75861 12.7005 7.24358 11.2155L8.85948 9.59963L13.1686 13.9088L12.6307 14.4474C12.3331 14.7442 12.3331 15.2286 12.6307 15.5254L13.7072 16.602C14.0033 16.9003 14.4892 16.8988 14.7853 16.602L15.3239 16.064L19.633 20.3732L18.0171 21.989ZM18.3169 14.7248C18.3169 12.6246 16.6081 10.9157 14.5078 10.9157V9.392C17.448 9.392 19.8406 11.7846 19.8406 14.7248H18.3169Z" fill="url(#gradient0)"/>
<path d="M12.63 17.6806L11.5527 16.6025C10.8511 15.9002 10.7023 14.8505 11.1063 14.0008L8.85951 11.754L8.32089 12.2926C7.4296 13.1839 7.4296 14.634 8.32089 15.5252L13.7073 20.9116C14.5993 21.8029 16.0493 21.8029 16.9399 20.9116L17.4785 20.373L15.2317 18.1262C14.3813 18.528 13.333 18.3822 12.63 17.6806Z" fill="url(#gradient1)"/>
<defs>
<linearGradient id="gradient0" x1="12.9841" y1="0" x2="12.9841" y2="26" gradientUnits="userSpaceOnUse">
<stop stop-color="#FF470D"/>
<stop offset="1" stop-color="#FF6E05"/>
</linearGradient>
<linearGradient id="gradient1" x1="12.9841" y1="0" x2="12.9841" y2="26" gradientUnits="userSpaceOnUse">
<stop stop-color="#FF470D"/>
<stop offset="1" stop-color="#FF6E05"/>
</linearGradient>
</defs>
</svg>
