<svg width="31" height="31" viewBox="0 0 31 31" fill="none" xmlns="http://www.w3.org/2000/svg">
<path d="M18.4668 15.5C18.4668 17.1385 17.1385 18.4668 15.5 18.4668C13.8615 18.4668 12.5332 17.1385 12.5332 15.5C12.5332 13.8615 13.8615 12.5332 15.5 12.5332C17.1385 12.5332 18.4668 13.8615 18.4668 15.5Z" fill="#FF4C0C"/>
<path d="M18.4668 15.5C18.4668 17.1385 17.1385 18.4668 15.5 18.4668C13.8615 18.4668 12.5332 17.1385 12.5332 15.5C12.5332 13.8615 13.8615 12.5332 15.5 12.5332C17.1385 12.5332 18.4668 13.8615 18.4668 15.5Z" fill="url(#paint0_radial_528_170)" fill-opacity="0.4"/>
<path d="M22.438 10.2508C22.2954 9.86436 22.0679 9.51456 21.7722 9.22743C21.4851 8.93179 21.1355 8.70427 20.7488 8.56165C20.4352 8.43985 19.9641 8.29487 19.0963 8.25537C18.1576 8.21256 17.8762 8.20334 15.4997 8.20334C13.123 8.20334 12.8415 8.21232 11.9031 8.25513C11.0353 8.29487 10.5639 8.43985 10.2506 8.56165C9.86387 8.70427 9.51406 8.93179 9.22718 9.22743C8.93154 9.51456 8.70401 9.86412 8.56116 10.2508C8.43936 10.5644 8.29438 11.0358 8.25488 11.9036C8.21207 12.842 8.20285 13.1235 8.20285 15.5002C8.20285 17.8767 8.21207 18.1581 8.25488 19.0968C8.29438 19.9646 8.43936 20.4357 8.56116 20.7493C8.70401 21.136 8.9313 21.4856 9.22694 21.7727C9.51406 22.0683 9.86363 22.2959 10.2503 22.4385C10.5639 22.5605 11.0353 22.7055 11.9031 22.745C12.8415 22.7878 13.1228 22.7968 15.4995 22.7968C17.8764 22.7968 18.1578 22.7878 19.0961 22.745C19.9638 22.7055 20.4352 22.5605 20.7488 22.4385C21.5251 22.1391 22.1386 21.5255 22.438 20.7493C22.5598 20.4357 22.7048 19.9646 22.7445 19.0968C22.7873 18.1581 22.7963 17.8767 22.7963 15.5002C22.7963 13.1235 22.7873 12.842 22.7445 11.9036C22.705 11.0358 22.56 10.5644 22.438 10.2508ZM15.4997 20.0703C12.9754 20.0703 10.9291 18.0242 10.9291 15.4999C10.9291 12.9757 12.9754 10.9296 15.4997 10.9296C18.0237 10.9296 20.07 12.9757 20.07 15.4999C20.07 18.0242 18.0237 20.0703 15.4997 20.0703ZM20.2507 11.817C19.6609 11.817 19.1826 11.3388 19.1826 10.7489C19.1826 10.159 19.6609 9.68082 20.2507 9.68082C20.8406 9.68082 21.3188 10.159 21.3188 10.7489C21.3186 11.3388 20.8406 11.817 20.2507 11.817Z" fill="#FF4C0C"/>
<path d="M22.438 10.2508C22.2954 9.86436 22.0679 9.51456 21.7722 9.22743C21.4851 8.93179 21.1355 8.70427 20.7488 8.56165C20.4352 8.43985 19.9641 8.29487 19.0963 8.25537C18.1576 8.21256 17.8762 8.20334 15.4997 8.20334C13.123 8.20334 12.8415 8.21232 11.9031 8.25513C11.0353 8.29487 10.5639 8.43985 10.2506 8.56165C9.86387 8.70427 9.51406 8.93179 9.22718 9.22743C8.93154 9.51456 8.70401 9.86412 8.56116 10.2508C8.43936 10.5644 8.29438 11.0358 8.25488 11.9036C8.21207 12.842 8.20285 13.1235 8.20285 15.5002C8.20285 17.8767 8.21207 18.1581 8.25488 19.0968C8.29438 19.9646 8.43936 20.4357 8.56116 20.7493C8.70401 21.136 8.9313 21.4856 9.22694 21.7727C9.51406 22.0683 9.86363 22.2959 10.2503 22.4385C10.5639 22.5605 11.0353 22.7055 11.9031 22.745C12.8415 22.7878 13.1228 22.7968 15.4995 22.7968C17.8764 22.7968 18.1578 22.7878 19.0961 22.745C19.9638 22.7055 20.4352 22.5605 20.7488 22.4385C21.5251 22.1391 22.1386 21.5255 22.438 20.7493C22.5598 20.4357 22.7048 19.9646 22.7445 19.0968C22.7873 18.1581 22.7963 17.8767 22.7963 15.5002C22.7963 13.1235 22.7873 12.842 22.7445 11.9036C22.705 11.0358 22.56 10.5644 22.438 10.2508ZM15.4997 20.0703C12.9754 20.0703 10.9291 18.0242 10.9291 15.4999C10.9291 12.9757 12.9754 10.9296 15.4997 10.9296C18.0237 10.9296 20.07 12.9757 20.07 15.4999C20.07 18.0242 18.0237 20.0703 15.4997 20.0703ZM20.2507 11.817C19.6609 11.817 19.1826 11.3388 19.1826 10.7489C19.1826 10.159 19.6609 9.68082 20.2507 9.68082C20.8406 9.68082 21.3188 10.159 21.3188 10.7489C21.3186 11.3388 20.8406 11.817 20.2507 11.817Z" fill="url(#paint1_radial_528_170)" fill-opacity="0.4"/>
<path d="M15.5 0C6.9409 0 0 6.9409 0 15.5C0 24.0591 6.9409 31 15.5 31C24.0591 31 31 24.0591 31 15.5C31 6.9409 24.0591 0 15.5 0ZM24.3467 19.1695C24.3037 20.1169 24.153 20.7638 23.933 21.33C23.4707 22.5256 22.5256 23.4707 21.33 23.933C20.764 24.153 20.1169 24.3034 19.1697 24.3467C18.2206 24.39 17.9174 24.4004 15.5002 24.4004C13.0829 24.4004 12.7799 24.39 11.8305 24.3467C10.8833 24.3034 10.2362 24.153 9.67023 23.933C9.07612 23.7095 8.53829 23.3593 8.09365 22.9063C7.64097 22.4619 7.2907 21.9239 7.06719 21.33C6.84724 20.764 6.69658 20.1169 6.65353 19.1697C6.60978 18.2204 6.59961 17.9171 6.59961 15.5C6.59961 13.0829 6.60978 12.7796 6.6533 11.8305C6.69634 10.8831 6.84676 10.2362 7.06672 9.67C7.29022 9.07612 7.64073 8.53806 8.09365 8.09365C8.53806 7.64073 9.07612 7.29046 9.67 7.06696C10.2362 6.847 10.8831 6.69658 11.8305 6.6533C12.7796 6.61002 13.0829 6.59961 15.5 6.59961C17.9171 6.59961 18.2204 6.61002 19.1695 6.65353C20.1169 6.69658 20.7638 6.847 21.33 7.06672C21.9239 7.29022 22.4619 7.64073 22.9066 8.09365C23.3593 8.53829 23.7098 9.07612 23.933 9.67C24.1532 10.2362 24.3037 10.8831 24.3469 11.8305C24.3902 12.7796 24.4004 13.0829 24.4004 15.5C24.4004 17.9171 24.3902 18.2204 24.3467 19.1695Z" fill="#FF4C0C"/>
<path d="M15.5 0C6.9409 0 0 6.9409 0 15.5C0 24.0591 6.9409 31 15.5 31C24.0591 31 31 24.0591 31 15.5C31 6.9409 24.0591 0 15.5 0ZM24.3467 19.1695C24.3037 20.1169 24.153 20.7638 23.933 21.33C23.4707 22.5256 22.5256 23.4707 21.33 23.933C20.764 24.153 20.1169 24.3034 19.1697 24.3467C18.2206 24.39 17.9174 24.4004 15.5002 24.4004C13.0829 24.4004 12.7799 24.39 11.8305 24.3467C10.8833 24.3034 10.2362 24.153 9.67023 23.933C9.07612 23.7095 8.53829 23.3593 8.09365 22.9063C7.64097 22.4619 7.2907 21.9239 7.06719 21.33C6.84724 20.764 6.69658 20.1169 6.65353 19.1697C6.60978 18.2204 6.59961 17.9171 6.59961 15.5C6.59961 13.0829 6.60978 12.7796 6.6533 11.8305C6.69634 10.8831 6.84676 10.2362 7.06672 9.67C7.29022 9.07612 7.64073 8.53806 8.09365 8.09365C8.53806 7.64073 9.07612 7.29046 9.67 7.06696C10.2362 6.847 10.8831 6.69658 11.8305 6.6533C12.7796 6.61002 13.0829 6.59961 15.5 6.59961C17.9171 6.59961 18.2204 6.61002 19.1695 6.65353C20.1169 6.69658 20.7638 6.847 21.33 7.06672C21.9239 7.29022 22.4619 7.64073 22.9066 8.09365C23.3593 8.53829 23.7098 9.07612 23.933 9.67C24.1532 10.2362 24.3037 10.8831 24.3469 11.8305C24.3902 12.7796 24.4004 13.0829 24.4004 15.5C24.4004 17.9171 24.3902 18.2204 24.3467 19.1695Z" fill="url(#paint2_radial_528_170)" fill-opacity="0.4"/>
<defs>
<radialGradient id="paint0_radial_528_170" cx="0" cy="0" r="1" gradientUnits="userSpaceOnUse" gradientTransform="translate(15.9537 -1.40909) rotate(90) scale(25.7159 14.6965)">
<stop stop-color="white"/>
<stop offset="0.0001" stop-color="white"/>
<stop offset="1" stop-color="white" stop-opacity="0"/>
</radialGradient>
<radialGradient id="paint1_radial_528_170" cx="0" cy="0" r="1" gradientUnits="userSpaceOnUse" gradientTransform="translate(15.9537 -1.40909) rotate(90) scale(25.7159 14.6965)">
<stop stop-color="white"/>
<stop offset="0.0001" stop-color="white"/>
<stop offset="1" stop-color="white" stop-opacity="0"/>
</radialGradient>
<radialGradient id="paint2_radial_528_170" cx="0" cy="0" r="1" gradientUnits="userSpaceOnUse" gradientTransform="translate(15.9537 -1.40909) rotate(90) scale(25.7159 14.6965)">
<stop stop-color="white"/>
<stop offset="0.0001" stop-color="white"/>
<stop offset="1" stop-color="white" stop-opacity="0"/>
</radialGradient>
</defs>
</svg>
