<svg width="187" height="40" viewBox="0 0 187 40" fill="none" xmlns="http://www.w3.org/2000/svg">
<g clip-path="url(#clip0_421:439)">
<path d="M14.6039 0C10.2908 6.90259 0 17.4394 0 25.4654C0 33.4911 6.65602 40 14.8636 40C23.0711 40 29.727 33.4911 29.727 25.4654C29.727 17.4394 19.9018 7.86537 14.6039 0Z" fill="white"/>
<path d="M14.6039 0C10.2908 6.90259 0 17.4394 0 25.4654C0 33.4911 6.65602 40 14.8636 40C23.0711 40 29.727 33.4911 29.727 25.4654C29.727 17.4394 19.9018 7.86537 14.6039 0ZM6.39926 13.6753H23.3276V15.3225L6.39926 20.2531V13.6753ZM6.39926 21.2046L23.3276 16.274V19.0867L6.39926 24.0172V21.2046ZM6.39926 24.9696L23.3276 20.039V22.8517L6.39926 27.7822V24.9696ZM6.39926 28.7351L23.3276 23.8046V26.6172L6.39926 31.5478V28.7351ZM23.3277 34.5875L14.8632 37.202L6.39926 34.5875V32.5006L23.3276 27.5701V30.3827L15.0549 32.7923H23.3277V34.5875Z" fill="#315283"/>
<path d="M27.3346 35.8091H186.811C186.836 35.809 186.861 35.8039 186.884 35.7941C186.907 35.7843 186.928 35.7701 186.945 35.7522C186.963 35.7343 186.977 35.7131 186.986 35.6898C186.995 35.6665 187 35.6415 187 35.6164V33.31C187 33.2849 186.995 33.2599 186.986 33.2367C186.977 33.2134 186.963 33.1922 186.945 33.1743C186.928 33.1564 186.907 33.1421 186.884 33.1324C186.861 33.1226 186.836 33.1175 186.811 33.1174H29.4942C28.8825 34.0974 28.1575 35.0009 27.3346 35.8091Z" fill="#315283"/>
<path d="M186.811 37.9521C186.861 37.9518 186.91 37.9313 186.945 37.8952C186.981 37.859 187 37.8102 187 37.7594V37.0114C187 36.9863 186.995 36.9613 186.986 36.9381C186.977 36.9148 186.963 36.8936 186.945 36.8757C186.928 36.8578 186.907 36.8435 186.884 36.8338C186.861 36.824 186.836 36.8189 186.811 36.8188H26.1937C25.674 37.2332 25.1271 37.6118 24.5568 37.9521H186.811Z" fill="#424243"/>
<path d="M43.0258 15.6145H37.9022C35.8973 15.6145 35.0062 16.5118 35.0062 18.5308V28.85C35.0062 30.8689 35.8973 31.7663 37.9022 31.7663H43.0258C45.0307 31.7663 45.9218 30.8689 45.9218 28.85V26.6067C45.9348 26.5153 45.9264 26.4221 45.8974 26.3345C45.8684 26.2469 45.8196 26.1673 45.7547 26.102C45.6899 26.0367 45.6108 25.9875 45.5238 25.9583C45.4369 25.9291 45.3443 25.9207 45.2535 25.9337H42.3575C42.2667 25.9207 42.1742 25.9291 42.0872 25.9583C42.0002 25.9875 41.9211 26.0367 41.8563 26.102C41.7915 26.1673 41.7426 26.2469 41.7136 26.3345C41.6846 26.4221 41.6763 26.5153 41.6892 26.6067V27.2797C41.7022 27.3711 41.6939 27.4643 41.6649 27.5519C41.6359 27.6395 41.587 27.7191 41.5222 27.7844C41.4573 27.8497 41.3783 27.8989 41.2913 27.9281C41.2043 27.9573 41.1117 27.9657 41.0209 27.9527H39.9071C39.8163 27.9657 39.7238 27.9573 39.6368 27.9281C39.5498 27.8989 39.4707 27.8497 39.4059 27.7844C39.341 27.7191 39.2922 27.6395 39.2632 27.5519C39.2342 27.4643 39.2258 27.3711 39.2388 27.2797V20.1011C39.2258 20.0097 39.2342 19.9165 39.2632 19.8289C39.2922 19.7413 39.341 19.6617 39.4059 19.5964C39.4707 19.5311 39.5498 19.4819 39.6368 19.4527C39.7238 19.4235 39.8163 19.4151 39.9071 19.4282H41.0209C41.1117 19.4151 41.2043 19.4235 41.2913 19.4527C41.3783 19.4819 41.4573 19.5311 41.5222 19.5964C41.587 19.6617 41.6359 19.7413 41.6649 19.8289C41.6939 19.9165 41.7022 20.0097 41.6892 20.1011V20.7741C41.6763 20.8655 41.6846 20.9587 41.7136 21.0463C41.7426 21.1339 41.7915 21.2136 41.8563 21.2789C41.9211 21.3441 42.0002 21.3934 42.0872 21.4226C42.1742 21.4518 42.2667 21.4602 42.3575 21.4471H45.2535C45.3443 21.4602 45.4368 21.4518 45.5238 21.4226C45.6108 21.3934 45.6899 21.3441 45.7547 21.2789C45.8195 21.2136 45.8684 21.1339 45.8974 21.0463C45.9264 20.9587 45.9347 20.8655 45.9218 20.7741V18.5308C45.9218 16.5118 45.0307 15.6145 43.0258 15.6145Z" fill="#424243"/>
<path d="M58.3968 15.8387H48.5951C48.5043 15.8256 48.4117 15.834 48.3247 15.8632C48.2377 15.8924 48.1587 15.9416 48.0938 16.0069C48.029 16.0722 47.9801 16.1518 47.9511 16.2394C47.9221 16.327 47.9138 16.4203 47.9268 16.5117V30.8688C47.9138 30.9602 47.9221 31.0534 47.9511 31.141C47.9801 31.2286 48.029 31.3082 48.0938 31.3735C48.1587 31.4388 48.2377 31.488 48.3247 31.5172C48.4117 31.5464 48.5043 31.5548 48.5951 31.5418H51.491C51.5818 31.5548 51.6744 31.5464 51.7614 31.5172C51.8484 31.488 51.9274 31.4388 51.9923 31.3735C52.0571 31.3082 52.106 31.2286 52.135 31.141C52.164 31.0534 52.1723 30.9602 52.1593 30.8688V19.6523H54.8325V30.8688C54.8196 30.9602 54.8279 31.0534 54.8569 31.141C54.8859 31.2286 54.9348 31.3082 54.9996 31.3735C55.0644 31.4388 55.1435 31.488 55.2305 31.5172C55.3175 31.5464 55.4101 31.5548 55.5008 31.5417H58.3968C58.4876 31.5548 58.5802 31.5464 58.6672 31.5172C58.7542 31.488 58.8332 31.4388 58.898 31.3735C58.9629 31.3082 59.0117 31.2286 59.0407 31.141C59.0697 31.0534 59.0781 30.9602 59.0651 30.8688V16.5117C59.0781 16.4202 59.0697 16.327 59.0407 16.2394C59.0117 16.1518 58.9629 16.0722 58.898 16.0069C58.8332 15.9416 58.7541 15.8924 58.6671 15.8632C58.5802 15.834 58.4876 15.8256 58.3968 15.8387Z" fill="#424243"/>
<path d="M70.8718 27.7281H65.9709V25.4849H69.5352C69.626 25.4979 69.7185 25.4895 69.8055 25.4603C69.8925 25.4311 69.9716 25.3819 70.0364 25.3166C70.1013 25.2513 70.1501 25.1717 70.1791 25.0841C70.2081 24.9965 70.2164 24.9033 70.2035 24.8119V22.3442C70.2164 22.2528 70.2081 22.1596 70.1791 22.072C70.1501 21.9844 70.1013 21.9048 70.0364 21.8395C69.9716 21.7742 69.8925 21.725 69.8055 21.6958C69.7185 21.6666 69.626 21.6582 69.5352 21.6713H65.9709V19.6523H70.7604C70.8512 19.6654 70.9437 19.657 71.0307 19.6278C71.1177 19.5986 71.1968 19.5494 71.2616 19.4841C71.3265 19.4188 71.3753 19.3392 71.4043 19.2516C71.4333 19.164 71.4417 19.0708 71.4287 18.9793V16.5117C71.4417 16.4203 71.4333 16.327 71.4043 16.2394C71.3753 16.1518 71.3265 16.0722 71.2616 16.0069C71.1968 15.9416 71.1177 15.8924 71.0307 15.8632C70.9437 15.834 70.8512 15.8256 70.7604 15.8387H62.4067C62.3159 15.8256 62.2233 15.834 62.1363 15.8632C62.0493 15.8924 61.9703 15.9416 61.9054 16.0069C61.8406 16.0722 61.7917 16.1518 61.7627 16.2394C61.7337 16.327 61.7254 16.4203 61.7384 16.5117V30.8688C61.7254 30.9602 61.7337 31.0534 61.7627 31.141C61.7917 31.2286 61.8406 31.3082 61.9054 31.3735C61.9703 31.4388 62.0493 31.488 62.1363 31.5172C62.2233 31.5464 62.3159 31.5548 62.4067 31.5418H70.8718C70.9626 31.5548 71.0551 31.5464 71.1421 31.5172C71.2291 31.488 71.3082 31.4388 71.373 31.3735C71.4379 31.3082 71.4867 31.2286 71.5157 31.141C71.5447 31.0534 71.5531 30.9602 71.5401 30.8688V28.4012C71.5531 28.3097 71.5447 28.2165 71.5157 28.1289C71.4867 28.0413 71.4379 27.9617 71.373 27.8964C71.3082 27.8311 71.2291 27.7819 71.1421 27.7527C71.0551 27.7235 70.9626 27.7151 70.8718 27.7281Z" fill="#424243"/>
<path d="M83.9037 29.0741V16.5117C83.9167 16.4203 83.9083 16.3271 83.8793 16.2395C83.8503 16.1519 83.8015 16.0722 83.7367 16.0069C83.6718 15.9416 83.5928 15.8924 83.5058 15.8632C83.4188 15.834 83.3262 15.8256 83.2354 15.8387H80.3394C80.2486 15.8256 80.1561 15.834 80.0691 15.8632C79.9821 15.8924 79.903 15.9416 79.8382 16.0069C79.7733 16.0722 79.7245 16.1518 79.6955 16.2395C79.6665 16.3271 79.6581 16.4203 79.6711 16.5117V27.7282H77.6662V16.5117C77.6792 16.4203 77.6709 16.3271 77.6419 16.2395C77.6129 16.1518 77.564 16.0722 77.4992 16.0069C77.4343 15.9416 77.3553 15.8924 77.2683 15.8632C77.1813 15.834 77.0887 15.8256 76.9979 15.8387H74.102C74.0112 15.8256 73.9186 15.834 73.8316 15.8632C73.7446 15.8924 73.6656 15.9416 73.6007 16.0069C73.5359 16.0722 73.487 16.1518 73.458 16.2395C73.429 16.3271 73.4207 16.4203 73.4337 16.5117V30.8688C73.4209 30.9573 73.4283 31.0475 73.4554 31.1327C73.4824 31.2179 73.5284 31.2958 73.5897 31.3604C73.6511 31.425 73.7262 31.4748 73.8095 31.5058C73.8928 31.5369 73.982 31.5485 74.0704 31.5396H85.7342C85.7461 31.4405 85.738 31.3399 85.7106 31.244C85.6831 31.148 85.6368 31.0586 85.5744 30.9809L83.9037 29.0741Z" fill="#424243"/>
<path d="M95.1088 23.2416V23.0172C95.1088 23.0172 96.7796 22.7929 96.7796 21.2226V18.755C96.7796 16.736 95.8885 15.8387 93.8836 15.8387H87.312C87.2212 15.8256 87.1286 15.834 87.0416 15.8632C86.9547 15.8924 86.8756 15.9416 86.8107 16.0069C86.7459 16.0722 86.6971 16.1518 86.6681 16.2394C86.6391 16.3271 86.6307 16.4203 86.6437 16.5117V30.8688C86.6307 30.9602 86.6391 31.0534 86.6681 31.141C86.6971 31.2286 86.7459 31.3082 86.8107 31.3735C86.8756 31.4388 86.9547 31.488 87.0416 31.5172C87.1286 31.5464 87.2212 31.5548 87.312 31.5418H94.5519C96.5568 31.5418 97.4479 30.6444 97.4479 28.6255V25.7092C97.4479 23.4659 95.1088 23.2416 95.1088 23.2416ZM90.8763 19.428H91.8787C91.9694 19.4149 92.062 19.4233 92.149 19.4525C92.236 19.4817 92.315 19.5309 92.3799 19.5962C92.4447 19.6615 92.4936 19.7411 92.5226 19.8287C92.5516 19.9163 92.5599 20.0095 92.547 20.101V20.9983C92.5599 21.0897 92.5516 21.1829 92.5226 21.2705C92.4936 21.3581 92.4447 21.4377 92.3799 21.503C92.3151 21.5683 92.236 21.6175 92.149 21.6467C92.062 21.6759 91.9694 21.6843 91.8787 21.6713H90.8763V19.428ZM93.2153 27.2795C93.2283 27.3709 93.2199 27.4641 93.1909 27.5517C93.1619 27.6393 93.113 27.7189 93.0482 27.7842C92.9834 27.8495 92.9043 27.8987 92.8173 27.9279C92.7303 27.9571 92.6377 27.9655 92.547 27.9525H90.8763V25.2605H92.547C92.6377 25.2475 92.7303 25.2559 92.8173 25.2851C92.9043 25.3143 92.9834 25.3635 93.0482 25.4288C93.1131 25.4941 93.1619 25.5737 93.1909 25.6613C93.2199 25.7489 93.2283 25.8421 93.2153 25.9335V27.2795Z" fill="#424243"/>
<path d="M107.472 15.6145H102.126C100.121 15.6145 99.23 16.5118 99.23 18.5308V28.85C99.23 30.8689 100.121 31.7663 102.126 31.7663H107.472C109.477 31.7663 110.368 30.8689 110.368 28.85V18.5308C110.368 16.5118 109.477 15.6145 107.472 15.6145ZM106.136 27.2797C106.149 27.3711 106.14 27.4643 106.111 27.5519C106.082 27.6395 106.034 27.7191 105.969 27.7844C105.904 27.8497 105.825 27.8989 105.738 27.9281C105.651 27.9573 105.558 27.9657 105.468 27.9527H104.131C104.04 27.9657 103.948 27.9573 103.861 27.9281C103.774 27.8989 103.695 27.8497 103.63 27.7844C103.565 27.7191 103.516 27.6395 103.487 27.5519C103.458 27.4643 103.45 27.3711 103.463 27.2797V20.1011C103.45 20.0097 103.458 19.9165 103.487 19.8289C103.516 19.7413 103.565 19.6617 103.63 19.5964C103.695 19.5311 103.774 19.4819 103.861 19.4527C103.948 19.4235 104.04 19.4151 104.131 19.4282H105.468C105.558 19.4151 105.651 19.4235 105.738 19.4527C105.825 19.4819 105.904 19.5311 105.969 19.5964C106.034 19.6617 106.082 19.7413 106.111 19.8289C106.14 19.9165 106.149 20.0097 106.136 20.1011V27.2797Z" fill="#424243"/>
<path d="M123.512 27.7281H122.843V16.5116C122.856 16.4202 122.848 16.327 122.819 16.2394C122.79 16.1518 122.741 16.0722 122.676 16.0069C122.611 15.9416 122.532 15.8924 122.445 15.8632C122.358 15.834 122.266 15.8256 122.175 15.8386H114.824C114.267 15.8386 114 16.063 113.933 16.5116L112.485 27.7281H111.928C111.837 27.7151 111.745 27.7235 111.658 27.7527C111.571 27.7819 111.491 27.8311 111.427 27.8964C111.362 27.9617 111.313 28.0413 111.284 28.1289C111.255 28.2165 111.247 28.3097 111.26 28.4011V31.5419H124.18V28.4011C124.193 28.3097 124.185 28.2165 124.156 28.1289C124.127 28.0413 124.078 27.9617 124.013 27.8964C123.948 27.8311 123.869 27.7819 123.782 27.7527C123.695 27.7235 123.602 27.7151 123.512 27.7281ZM118.611 27.7281H116.717L117.497 19.6523H118.611V27.7281Z" fill="#424243"/>
<path d="M133.536 15.6145H128.412C126.408 15.6145 125.517 16.5118 125.517 18.5308V28.85C125.517 30.8689 126.408 31.7663 128.412 31.7663H133.536C135.541 31.7663 136.432 30.8689 136.432 28.85V26.6067C136.445 26.5153 136.437 26.4221 136.408 26.3345C136.379 26.2469 136.33 26.1673 136.265 26.102C136.2 26.0367 136.121 25.9875 136.034 25.9583C135.947 25.9291 135.855 25.9207 135.764 25.9337H132.868C132.777 25.9207 132.684 25.9291 132.597 25.9583C132.51 25.9875 132.431 26.0367 132.367 26.102C132.302 26.1673 132.253 26.2469 132.224 26.3345C132.195 26.4221 132.187 26.5153 132.2 26.6067V27.2797C132.213 27.3711 132.204 27.4643 132.175 27.5519C132.146 27.6395 132.097 27.7191 132.032 27.7844C131.968 27.8497 131.889 27.8989 131.802 27.9281C131.715 27.9573 131.622 27.9657 131.531 27.9527H130.417C130.327 27.9657 130.234 27.9573 130.147 27.9281C130.06 27.8989 129.981 27.8497 129.916 27.7844C129.851 27.7191 129.802 27.6395 129.773 27.5519C129.744 27.4643 129.736 27.3711 129.749 27.2797V20.1011C129.736 20.0097 129.744 19.9165 129.773 19.8289C129.802 19.7413 129.851 19.6617 129.916 19.5964C129.981 19.5311 130.06 19.4819 130.147 19.4527C130.234 19.4235 130.327 19.4151 130.417 19.4282H131.531C131.622 19.4151 131.715 19.4235 131.802 19.4527C131.889 19.4819 131.968 19.5311 132.032 19.5964C132.097 19.6617 132.146 19.7413 132.175 19.8289C132.204 19.9165 132.213 20.0097 132.2 20.1011V20.7741C132.187 20.8655 132.195 20.9587 132.224 21.0463C132.253 21.1339 132.302 21.2136 132.367 21.2789C132.431 21.3442 132.51 21.3934 132.597 21.4226C132.684 21.4518 132.777 21.4602 132.868 21.4471H135.764C135.855 21.4602 135.947 21.4518 136.034 21.4226C136.121 21.3934 136.2 21.3442 136.265 21.2789C136.33 21.2136 136.379 21.134 136.408 21.0463C136.437 20.9587 136.445 20.8655 136.432 20.7741V18.5308C136.432 16.5118 135.541 15.6145 133.536 15.6145Z" fill="#424243"/>
<path d="M147.125 15.8387H137.991C137.901 15.8256 137.808 15.834 137.721 15.8632C137.634 15.8924 137.555 15.9416 137.49 16.0069C137.425 16.0722 137.377 16.1518 137.348 16.2394C137.319 16.327 137.31 16.4203 137.323 16.5117V18.9793C137.31 19.0708 137.319 19.164 137.348 19.2516C137.377 19.3392 137.425 19.4188 137.49 19.4841C137.555 19.5494 137.634 19.5986 137.721 19.6278C137.808 19.657 137.901 19.6654 137.991 19.6523H140.442V30.8687C140.429 30.9602 140.437 31.0534 140.466 31.141C140.495 31.2286 140.544 31.3082 140.609 31.3735C140.674 31.4388 140.753 31.488 140.84 31.5172C140.927 31.5464 141.019 31.5548 141.11 31.5417H144.006C144.097 31.5548 144.189 31.5464 144.276 31.5172C144.363 31.488 144.443 31.4388 144.507 31.3735C144.572 31.3082 144.621 31.2286 144.65 31.141C144.679 31.0534 144.687 30.9602 144.674 30.8687V19.6523H147.125C147.216 19.6654 147.308 19.657 147.395 19.6278C147.482 19.5986 147.561 19.5494 147.626 19.4841C147.691 19.4188 147.74 19.3392 147.769 19.2516C147.798 19.164 147.806 19.0708 147.793 18.9793V16.5117C147.806 16.4203 147.798 16.327 147.769 16.2394C147.74 16.1518 147.691 16.0722 147.626 16.0069C147.561 15.9416 147.482 15.8924 147.395 15.8632C147.308 15.834 147.216 15.8256 147.125 15.8387Z" fill="#424243"/>
<path d="M157.149 15.8387H150.021C149.93 15.8256 149.837 15.834 149.75 15.8632C149.663 15.8924 149.584 15.9416 149.52 16.0069C149.455 16.0722 149.406 16.1518 149.377 16.2394C149.348 16.327 149.34 16.4203 149.352 16.5117V30.8688C149.34 30.9602 149.348 31.0534 149.377 31.141C149.406 31.2286 149.455 31.3082 149.52 31.3735C149.584 31.4388 149.663 31.488 149.75 31.5172C149.837 31.5464 149.93 31.5548 150.021 31.5418H152.917C153.008 31.5548 153.1 31.5464 153.187 31.5172C153.274 31.488 153.353 31.4388 153.418 31.3735C153.483 31.3082 153.532 31.2286 153.561 31.141C153.59 31.0534 153.598 30.9602 153.585 30.8688V27.2795H157.149C159.154 27.2795 160.045 26.3822 160.045 24.3632V18.755C160.045 16.736 159.154 15.8387 157.149 15.8387ZM155.813 22.7929C155.826 22.8843 155.817 22.9775 155.788 23.0651C155.759 23.1527 155.71 23.2323 155.646 23.2976C155.581 23.3629 155.502 23.4121 155.415 23.4413C155.328 23.4705 155.235 23.4789 155.144 23.4659H153.585V19.6523H155.144C155.235 19.6392 155.328 19.6476 155.415 19.6768C155.502 19.706 155.581 19.7552 155.646 19.8205C155.71 19.8858 155.759 19.9654 155.788 20.053C155.817 20.1406 155.826 20.2338 155.813 20.3253V22.7929Z" fill="#424243"/>
<path d="M170.292 15.6145H164.946C162.941 15.6145 162.05 16.5118 162.05 18.5308V28.85C162.05 30.8689 162.941 31.7663 164.946 31.7663H170.292C172.297 31.7663 173.189 30.8689 173.189 28.85V18.5308C173.189 16.5118 172.297 15.6145 170.292 15.6145ZM168.956 27.2797C168.969 27.3711 168.96 27.4643 168.931 27.5519C168.902 27.6395 168.854 27.7191 168.789 27.7844C168.724 27.8497 168.645 27.8989 168.558 27.9281C168.471 27.9573 168.378 27.9657 168.288 27.9527H166.951C166.86 27.9657 166.768 27.9573 166.681 27.9281C166.594 27.8989 166.515 27.8497 166.45 27.7844C166.385 27.7191 166.336 27.6395 166.307 27.5519C166.278 27.4643 166.27 27.3711 166.283 27.2797V20.1011C166.27 20.0097 166.278 19.9165 166.307 19.8289C166.336 19.7413 166.385 19.6617 166.45 19.5964C166.515 19.5311 166.594 19.4819 166.681 19.4527C166.768 19.4235 166.86 19.4151 166.951 19.4282H168.288C168.378 19.4151 168.471 19.4235 168.558 19.4527C168.645 19.4819 168.724 19.5311 168.789 19.5964C168.854 19.6617 168.902 19.7413 168.931 19.8289C168.96 19.9165 168.969 20.0097 168.956 20.1011V27.2797Z" fill="#424243"/>
<path d="M186.332 15.8387H182.545C182.099 15.8387 181.899 16.063 181.765 16.5117L180.094 22.3442H179.871V16.5117C179.884 16.4203 179.876 16.327 179.847 16.2394C179.818 16.1518 179.769 16.0722 179.704 16.0069C179.64 15.9416 179.56 15.8924 179.473 15.8632C179.386 15.834 179.294 15.8256 179.203 15.8387H176.307C176.216 15.8256 176.124 15.834 176.037 15.8632C175.95 15.8925 175.871 15.9417 175.806 16.007C175.741 16.0723 175.692 16.1519 175.663 16.2395C175.634 16.3271 175.626 16.4203 175.639 16.5117V30.8688C175.626 30.9602 175.634 31.0534 175.663 31.141C175.692 31.2286 175.741 31.3082 175.806 31.3735C175.871 31.4388 175.95 31.488 176.037 31.5172C176.124 31.5464 176.216 31.5548 176.307 31.5418H180.094C180.54 31.5418 180.74 31.3174 180.874 30.8688L182.545 25.0362H182.767V30.8687C182.755 30.9602 182.763 31.0534 182.792 31.141C182.821 31.2286 182.87 31.3082 182.935 31.3735C182.999 31.4388 183.078 31.488 183.165 31.5172C183.252 31.5464 183.345 31.5548 183.436 31.5417H186.332C186.423 31.5548 186.515 31.5464 186.602 31.5172C186.689 31.488 186.768 31.4388 186.833 31.3735C186.898 31.3082 186.947 31.2286 186.976 31.141C187.005 31.0534 187.013 30.9602 187 30.8687V16.5117C187.013 16.4202 187.005 16.327 186.976 16.2394C186.947 16.1518 186.898 16.0722 186.833 16.0069C186.768 15.9416 186.689 15.8924 186.602 15.8632C186.515 15.834 186.423 15.8256 186.332 15.8387Z" fill="#424243"/>
<path d="M181.171 14.7011C181.691 14.7052 182.199 14.5473 182.625 14.2489C183.052 13.9505 183.377 13.5263 183.554 13.0347H178.788C178.966 13.5263 179.29 13.9505 179.717 14.2489C180.144 14.5473 180.652 14.7052 181.171 14.7011Z" fill="#424243"/>
</g>
<defs>
<clipPath id="clip0_421:439">
<rect width="187" height="40" fill="white"/>
</clipPath>
</defs>
</svg>
