<svg width="24" height="31" viewBox="0 0 24 31" fill="none" xmlns="http://www.w3.org/2000/svg">
<path d="M3.19207 18.2822L3.1889 18.278C1.75489 16.3983 1 14.1634 1 11.8066C1 5.86418 5.92029 1 12 1C18.0797 1 23 5.86418 23 11.8066C23 14.0601 22.303 16.2152 20.9809 18.0469L20.9787 18.0499C20.9702 18.0611 20.9619 18.0724 20.9539 18.0838C20.121 19.1774 18.6939 21.075 17.1499 23.1281C17.0134 23.3096 16.876 23.4924 16.738 23.6758C15.0503 25.9199 13.274 28.2804 12.0035 29.9491C11.9964 29.9427 11.9894 29.9366 11.9826 29.9308L3.19207 18.2822ZM4.52615 11.8066C4.52615 15.8792 7.90063 19.1762 12 19.1762C16.0994 19.1762 19.4738 15.8792 19.4738 11.8066C19.4738 7.73405 16.0994 4.43711 12 4.43711C7.90063 4.43711 4.52615 7.73405 4.52615 11.8066Z" fill="#FF4C0C"/>
<path d="M3.19207 18.2822L3.1889 18.278C1.75489 16.3983 1 14.1634 1 11.8066C1 5.86418 5.92029 1 12 1C18.0797 1 23 5.86418 23 11.8066C23 14.0601 22.303 16.2152 20.9809 18.0469L20.9787 18.0499C20.9702 18.0611 20.9619 18.0724 20.9539 18.0838C20.121 19.1774 18.6939 21.075 17.1499 23.1281C17.0134 23.3096 16.876 23.4924 16.738 23.6758C15.0503 25.9199 13.274 28.2804 12.0035 29.9491C11.9964 29.9427 11.9894 29.9366 11.9826 29.9308L3.19207 18.2822ZM4.52615 11.8066C4.52615 15.8792 7.90063 19.1762 12 19.1762C16.0994 19.1762 19.4738 15.8792 19.4738 11.8066C19.4738 7.73405 16.0994 4.43711 12 4.43711C7.90063 4.43711 4.52615 7.73405 4.52615 11.8066Z" fill="url(#paint0_radial_627_281)" fill-opacity="0.4"/>
<path d="M3.19207 18.2822L3.1889 18.278C1.75489 16.3983 1 14.1634 1 11.8066C1 5.86418 5.92029 1 12 1C18.0797 1 23 5.86418 23 11.8066C23 14.0601 22.303 16.2152 20.9809 18.0469L20.9787 18.0499C20.9702 18.0611 20.9619 18.0724 20.9539 18.0838C20.121 19.1774 18.6939 21.075 17.1499 23.1281C17.0134 23.3096 16.876 23.4924 16.738 23.6758C15.0503 25.9199 13.274 28.2804 12.0035 29.9491C11.9964 29.9427 11.9894 29.9366 11.9826 29.9308L3.19207 18.2822ZM4.52615 11.8066C4.52615 15.8792 7.90063 19.1762 12 19.1762C16.0994 19.1762 19.4738 15.8792 19.4738 11.8066C19.4738 7.73405 16.0994 4.43711 12 4.43711C7.90063 4.43711 4.52615 7.73405 4.52615 11.8066Z" stroke="url(#paint1_linear_627_281)" stroke-width="2"/>
<defs>
<radialGradient id="paint0_radial_627_281" cx="0" cy="0" r="1" gradientUnits="userSpaceOnUse" gradientTransform="translate(12.3512 -1.40909) rotate(90) scale(25.7159 11.3779)">
<stop stop-color="white"/>
<stop offset="0.0001" stop-color="white"/>
<stop offset="1" stop-color="white" stop-opacity="0"/>
</radialGradient>
<linearGradient id="paint1_linear_627_281" x1="12" y1="29.2386" x2="12" y2="31" gradientUnits="userSpaceOnUse">
<stop stop-color="#FF470D" stop-opacity="0"/>
<stop offset="0.9999" stop-color="#B8664C"/>
</linearGradient>
</defs>
</svg>
