<svg width="53" height="64" viewBox="0 0 53 64" fill="none" xmlns="http://www.w3.org/2000/svg">
<path d="M1.49876 63.6355C1.93823 63.8791 2.42385 64.0001 2.90909 64.0001C3.44495 64.0001 3.98002 63.8521 4.45091 63.5579L50.9964 34.4672C51.847 33.9356 52.3636 33.0033 52.3636 32.0003C52.3636 30.9972 51.847 30.065 50.9964 29.5334L4.45091 0.442262C3.55394 -0.118417 2.42366 -0.147896 1.49876 0.364686C0.573867 0.877462 0 1.85162 0 2.90917V61.091C0 62.1485 0.573867 63.1227 1.49876 63.6355Z" fill="#FF4C0C"/>
<path d="M1.49876 63.6355C1.93823 63.8791 2.42385 64.0001 2.90909 64.0001C3.44495 64.0001 3.98002 63.8521 4.45091 63.5579L50.9964 34.4672C51.847 33.9356 52.3636 33.0033 52.3636 32.0003C52.3636 30.9972 51.847 30.065 50.9964 29.5334L4.45091 0.442262C3.55394 -0.118417 2.42366 -0.147896 1.49876 0.364686C0.573867 0.877462 0 1.85162 0 2.90917V61.091C0 62.1485 0.573867 63.1227 1.49876 63.6355Z" fill="url(#paint0_radial_528_178)" fill-opacity="0.4"/>
<defs>
<radialGradient id="paint0_radial_528_178" cx="0" cy="0" r="1" gradientUnits="userSpaceOnUse" gradientTransform="translate(26.9481 -2.9091) rotate(90) scale(53.091 24.8245)">
<stop stop-color="white"/>
<stop offset="0.0001" stop-color="white"/>
<stop offset="1" stop-color="white" stop-opacity="0"/>
</radialGradient>
</defs>
</svg>
