<svg width="55" height="54" viewBox="0 0 55 54" fill="none" xmlns="http://www.w3.org/2000/svg">
<path d="M53.1667 48.4503H51.1537C50.7543 48.4503 50.3932 48.2126 50.2352 47.8457L42.8542 30.6997C42.4237 29.6813 41.4306 29.0221 40.3333 29.0265H38.1239C37.6991 29.0265 37.335 28.7465 37.0981 28.3939C36.5969 27.6482 35.7555 27.1805 34.8333 27.1766H34C33.4477 27.1766 33 26.7289 33 26.1766V23.0867C33 22.6639 33.2776 22.3012 33.6265 22.0625C34.3658 21.5569 34.8295 20.7078 34.8333 19.777V17.9272C34.8333 16.3947 33.6021 15.1523 32.0833 15.1523H22.9167C21.3979 15.1523 20.1667 16.3947 20.1667 17.9272V19.777C20.1705 20.7078 20.6342 21.5569 21.3735 22.0625C21.7224 22.3012 22 22.6639 22 23.0867V26.1766C22 26.7289 21.5523 27.1766 21 27.1766H20.1667C19.2445 27.1805 18.4031 27.6482 17.9019 28.3939C17.665 28.7465 17.3009 29.0265 16.8761 29.0265H14.6667C13.5722 29.0211 12.5806 29.6767 12.1486 30.6914L4.76476 47.8457C4.60683 48.2126 4.24569 48.4503 3.84623 48.4503H1.83333C0.820811 48.4503 0 49.2786 0 50.3002V52.1501C0 53.1718 0.820811 54 1.83333 54H53.1667C54.1792 54 55 53.1718 55 52.1501V50.3002C55 49.2786 54.1792 48.4503 53.1667 48.4503ZM41.1702 31.4313L47.9483 47.1755C48.2079 47.7785 47.7657 48.4503 47.1092 48.4503V48.4503C46.7443 48.4503 46.4145 48.2333 46.2701 47.8982L39.9731 33.2812C39.8272 32.944 39.4971 32.7261 39.1325 32.7263H38.5083C37.9974 32.7263 37.5833 32.3122 37.5833 31.8013V31.8013C37.5833 31.2905 37.9975 30.8764 38.5083 30.8764L40.3333 30.8764C40.6977 30.874 41.0278 31.0929 41.1702 31.4313ZM33.7764 46.004C33.3375 45.8266 33 45.4289 33 44.9555V37.426C33 36.8738 33.4477 36.4261 34 36.4261H34.8333C35.7999 36.422 36.6777 35.9084 37.1681 35.0991C37.3478 34.8024 37.6469 34.5762 37.9938 34.5762V34.5762C38.3199 34.5762 38.6148 34.7702 38.7438 35.0697L43.9074 47.0547C44.1918 47.7147 43.7078 48.4503 42.989 48.4503H36.9344C36.5359 48.4503 36.1837 48.2081 35.9754 47.8684C35.4581 47.025 34.6864 46.3718 33.7764 46.004ZM28.5 45.6755C27.9477 45.6755 27.5 45.2278 27.5 44.6755V29.9514C27.5 29.4406 27.0896 29.0265 26.5833 29.0265C26.0771 29.0265 25.6667 29.4406 25.6667 29.9514V44.7588C25.6667 45.2651 25.2563 45.6755 24.75 45.6755V45.6755C24.2437 45.6755 23.8333 45.2651 23.8333 44.7588V23.4685C23.8333 22.9623 24.2437 22.5519 24.75 22.5519V22.5519C25.2563 22.5519 25.6667 22.9623 25.6667 23.4685V26.2517C25.6667 26.7625 26.0771 27.1766 26.5833 27.1766C27.0896 27.1766 27.5 26.7625 27.5 26.2517V23.5519C27.5 22.9996 27.9477 22.5519 28.5 22.5519H30.1667C30.719 22.5519 31.1667 22.9996 31.1667 23.5519V44.6755C31.1667 45.2278 30.719 45.6755 30.1667 45.6755H28.5ZM19.0246 47.8684C18.8163 48.2081 18.4641 48.4503 18.0656 48.4503H12.011C11.2922 48.4503 10.8082 47.7147 11.0926 47.0547L16.2562 35.0697C16.3852 34.7702 16.6801 34.5762 17.0062 34.5762V34.5762C17.3531 34.5762 17.6522 34.8024 17.8319 35.0991C18.3223 35.9084 19.2001 36.422 20.1667 36.4261H21C21.5523 36.4261 22 36.8738 22 37.4261V44.9555C22 45.4289 21.6625 45.8266 21.2236 46.004C20.3136 46.3718 19.5419 47.025 19.0246 47.8684ZM34.8333 29.0265C35.3396 29.0265 35.75 29.4406 35.75 29.9514V33.6512C35.75 34.162 35.3396 34.5762 34.8333 34.5762H34C33.4477 34.5762 33 34.1284 33 33.5762V30.0265C33 29.4742 33.4477 29.0265 34 29.0265H34.8333ZM22 17.9272C22 17.4163 22.4104 17.0022 22.9167 17.0022H32.0833C32.5896 17.0022 33 17.4163 33 17.9272V19.777C33 20.2879 32.5896 20.702 32.0833 20.702H22.9167C22.4104 20.702 22 20.2879 22 19.777V17.9272ZM20.1667 29.0265H21C21.5523 29.0265 22 29.4742 22 30.0265V33.5762C22 34.1284 21.5523 34.5762 21 34.5762H20.1667C19.6604 34.5762 19.25 34.162 19.25 33.6512V29.9514C19.25 29.4406 19.6604 29.0265 20.1667 29.0265ZM13.8325 31.423C13.9767 31.0884 14.3051 30.8732 14.6667 30.8764L16.4917 30.8764C17.0025 30.8764 17.4167 31.2905 17.4167 31.8013V31.8013C17.4167 32.3122 17.0026 32.7263 16.4917 32.7263H15.8675C15.5029 32.7261 15.1728 32.944 15.0269 33.2812L8.72987 47.8982C8.58551 48.2333 8.25564 48.4503 7.89079 48.4503V48.4503C7.23426 48.4503 6.79203 47.7785 7.05162 47.1755L13.8325 31.423ZM2.75828 52.1501C2.24745 52.1501 1.83333 51.736 1.83333 51.2252V51.2252C1.83333 50.7143 2.24745 50.3002 2.75828 50.3002H17.4084C17.9192 50.3002 18.3333 50.7143 18.3333 51.2252V51.2252C18.3333 51.736 17.9192 52.1501 17.4084 52.1501H2.75828ZM21.1667 52.1501C20.6144 52.1501 20.1667 51.7024 20.1667 51.1501V50.3002C20.1667 48.7677 21.3979 47.5254 22.9167 47.5254H32.0833C33.6021 47.5254 34.8333 48.7677 34.8333 50.3002V51.1501C34.8333 51.7024 34.3856 52.1501 33.8333 52.1501H21.1667ZM53.1667 51.2252C53.1667 51.736 52.7526 52.1501 52.2417 52.1501H37.5916C37.0808 52.1501 36.6667 51.736 36.6667 51.2252V51.2252C36.6667 50.7143 37.0808 50.3002 37.5916 50.3002H52.2417C52.7526 50.3002 53.1667 50.7143 53.1667 51.2252V51.2252Z" fill="#FF4C0C"/>
<path d="M53.1667 48.4503H51.1537C50.7543 48.4503 50.3932 48.2126 50.2352 47.8457L42.8542 30.6997C42.4237 29.6813 41.4306 29.0221 40.3333 29.0265H38.1239C37.6991 29.0265 37.335 28.7465 37.0981 28.3939C36.5969 27.6482 35.7555 27.1805 34.8333 27.1766H34C33.4477 27.1766 33 26.7289 33 26.1766V23.0867C33 22.6639 33.2776 22.3012 33.6265 22.0625C34.3658 21.5569 34.8295 20.7078 34.8333 19.777V17.9272C34.8333 16.3947 33.6021 15.1523 32.0833 15.1523H22.9167C21.3979 15.1523 20.1667 16.3947 20.1667 17.9272V19.777C20.1705 20.7078 20.6342 21.5569 21.3735 22.0625C21.7224 22.3012 22 22.6639 22 23.0867V26.1766C22 26.7289 21.5523 27.1766 21 27.1766H20.1667C19.2445 27.1805 18.4031 27.6482 17.9019 28.3939C17.665 28.7465 17.3009 29.0265 16.8761 29.0265H14.6667C13.5722 29.0211 12.5806 29.6767 12.1486 30.6914L4.76476 47.8457C4.60683 48.2126 4.24569 48.4503 3.84623 48.4503H1.83333C0.820811 48.4503 0 49.2786 0 50.3002V52.1501C0 53.1718 0.820811 54 1.83333 54H53.1667C54.1792 54 55 53.1718 55 52.1501V50.3002C55 49.2786 54.1792 48.4503 53.1667 48.4503ZM41.1702 31.4313L47.9483 47.1755C48.2079 47.7785 47.7657 48.4503 47.1092 48.4503V48.4503C46.7443 48.4503 46.4145 48.2333 46.2701 47.8982L39.9731 33.2812C39.8272 32.944 39.4971 32.7261 39.1325 32.7263H38.5083C37.9974 32.7263 37.5833 32.3122 37.5833 31.8013V31.8013C37.5833 31.2905 37.9975 30.8764 38.5083 30.8764L40.3333 30.8764C40.6977 30.874 41.0278 31.0929 41.1702 31.4313ZM33.7764 46.004C33.3375 45.8266 33 45.4289 33 44.9555V37.426C33 36.8738 33.4477 36.4261 34 36.4261H34.8333C35.7999 36.422 36.6777 35.9084 37.1681 35.0991C37.3478 34.8024 37.6469 34.5762 37.9938 34.5762V34.5762C38.3199 34.5762 38.6148 34.7702 38.7438 35.0697L43.9074 47.0547C44.1918 47.7147 43.7078 48.4503 42.989 48.4503H36.9344C36.5359 48.4503 36.1837 48.2081 35.9754 47.8684C35.4581 47.025 34.6864 46.3718 33.7764 46.004ZM28.5 45.6755C27.9477 45.6755 27.5 45.2278 27.5 44.6755V29.9514C27.5 29.4406 27.0896 29.0265 26.5833 29.0265C26.0771 29.0265 25.6667 29.4406 25.6667 29.9514V44.7588C25.6667 45.2651 25.2563 45.6755 24.75 45.6755V45.6755C24.2437 45.6755 23.8333 45.2651 23.8333 44.7588V23.4685C23.8333 22.9623 24.2437 22.5519 24.75 22.5519V22.5519C25.2563 22.5519 25.6667 22.9623 25.6667 23.4685V26.2517C25.6667 26.7625 26.0771 27.1766 26.5833 27.1766C27.0896 27.1766 27.5 26.7625 27.5 26.2517V23.5519C27.5 22.9996 27.9477 22.5519 28.5 22.5519H30.1667C30.719 22.5519 31.1667 22.9996 31.1667 23.5519V44.6755C31.1667 45.2278 30.719 45.6755 30.1667 45.6755H28.5ZM19.0246 47.8684C18.8163 48.2081 18.4641 48.4503 18.0656 48.4503H12.011C11.2922 48.4503 10.8082 47.7147 11.0926 47.0547L16.2562 35.0697C16.3852 34.7702 16.6801 34.5762 17.0062 34.5762V34.5762C17.3531 34.5762 17.6522 34.8024 17.8319 35.0991C18.3223 35.9084 19.2001 36.422 20.1667 36.4261H21C21.5523 36.4261 22 36.8738 22 37.4261V44.9555C22 45.4289 21.6625 45.8266 21.2236 46.004C20.3136 46.3718 19.5419 47.025 19.0246 47.8684ZM34.8333 29.0265C35.3396 29.0265 35.75 29.4406 35.75 29.9514V33.6512C35.75 34.162 35.3396 34.5762 34.8333 34.5762H34C33.4477 34.5762 33 34.1284 33 33.5762V30.0265C33 29.4742 33.4477 29.0265 34 29.0265H34.8333ZM22 17.9272C22 17.4163 22.4104 17.0022 22.9167 17.0022H32.0833C32.5896 17.0022 33 17.4163 33 17.9272V19.777C33 20.2879 32.5896 20.702 32.0833 20.702H22.9167C22.4104 20.702 22 20.2879 22 19.777V17.9272ZM20.1667 29.0265H21C21.5523 29.0265 22 29.4742 22 30.0265V33.5762C22 34.1284 21.5523 34.5762 21 34.5762H20.1667C19.6604 34.5762 19.25 34.162 19.25 33.6512V29.9514C19.25 29.4406 19.6604 29.0265 20.1667 29.0265ZM13.8325 31.423C13.9767 31.0884 14.3051 30.8732 14.6667 30.8764L16.4917 30.8764C17.0025 30.8764 17.4167 31.2905 17.4167 31.8013V31.8013C17.4167 32.3122 17.0026 32.7263 16.4917 32.7263H15.8675C15.5029 32.7261 15.1728 32.944 15.0269 33.2812L8.72987 47.8982C8.58551 48.2333 8.25564 48.4503 7.89079 48.4503V48.4503C7.23426 48.4503 6.79203 47.7785 7.05162 47.1755L13.8325 31.423ZM2.75828 52.1501C2.24745 52.1501 1.83333 51.736 1.83333 51.2252V51.2252C1.83333 50.7143 2.24745 50.3002 2.75828 50.3002H17.4084C17.9192 50.3002 18.3333 50.7143 18.3333 51.2252V51.2252C18.3333 51.736 17.9192 52.1501 17.4084 52.1501H2.75828ZM21.1667 52.1501C20.6144 52.1501 20.1667 51.7024 20.1667 51.1501V50.3002C20.1667 48.7677 21.3979 47.5254 22.9167 47.5254H32.0833C33.6021 47.5254 34.8333 48.7677 34.8333 50.3002V51.1501C34.8333 51.7024 34.3856 52.1501 33.8333 52.1501H21.1667ZM53.1667 51.2252C53.1667 51.736 52.7526 52.1501 52.2417 52.1501H37.5916C37.0808 52.1501 36.6667 51.736 36.6667 51.2252V51.2252C36.6667 50.7143 37.0808 50.3002 37.5916 50.3002H52.2417C52.7526 50.3002 53.1667 50.7143 53.1667 51.2252V51.2252Z" fill="url(#paint0_radial_819_1260)" fill-opacity="0.4"/>
<path d="M29.8585 13.2256H29.9116C30.6167 13.2304 31.2617 12.8254 31.569 12.185C32.0614 11.1375 32.7141 10.1745 33.5031 9.33159C34.0754 8.809 34.6972 8.3443 35.3594 7.94418C37.0571 6.83425 39.17 5.44683 38.3083 2.83849C37.8728 1.46001 36.7374 0.423529 35.3346 0.123777C33.5484 -0.263845 31.6882 0.271646 30.3736 1.55189C28.1874 3.75788 26.7757 8.64251 28.2451 12.1249C28.5204 12.781 29.1525 13.2122 29.8585 13.2256ZM31.6698 2.85699C32.351 2.20399 33.2547 1.83978 34.1943 1.83955C34.4362 1.83875 34.6774 1.86638 34.913 1.92187C35.6934 2.08228 36.3269 2.65574 36.5694 3.4212C36.9434 4.55426 36.1835 5.19617 34.3602 6.3912C33.5887 6.85955 32.8672 7.40693 32.207 8.02465C31.3561 8.92016 30.6455 9.94028 30.0988 11.0498C29.9884 11.2738 29.8053 11.4551 29.5757 11.5533L29.0885 11.7614V11.7614C29.5552 11.5608 29.7666 11.0209 29.652 10.526C29.0419 7.89272 30.1163 4.42701 31.6698 2.85699Z" fill="#FF4C0C"/>
<path d="M29.8585 13.2256H29.9116C30.6167 13.2304 31.2617 12.8254 31.569 12.185C32.0614 11.1375 32.7141 10.1745 33.5031 9.33159C34.0754 8.809 34.6972 8.3443 35.3594 7.94418C37.0571 6.83425 39.17 5.44683 38.3083 2.83849C37.8728 1.46001 36.7374 0.423529 35.3346 0.123777C33.5484 -0.263845 31.6882 0.271646 30.3736 1.55189C28.1874 3.75788 26.7757 8.64251 28.2451 12.1249C28.5204 12.781 29.1525 13.2122 29.8585 13.2256ZM31.6698 2.85699C32.351 2.20399 33.2547 1.83978 34.1943 1.83955C34.4362 1.83875 34.6774 1.86638 34.913 1.92187C35.6934 2.08228 36.3269 2.65574 36.5694 3.4212C36.9434 4.55426 36.1835 5.19617 34.3602 6.3912C33.5887 6.85955 32.8672 7.40693 32.207 8.02465C31.3561 8.92016 30.6455 9.94028 30.0988 11.0498C29.9884 11.2738 29.8053 11.4551 29.5757 11.5533L29.0885 11.7614V11.7614C29.5552 11.5608 29.7666 11.0209 29.652 10.526C29.0419 7.89272 30.1163 4.42701 31.6698 2.85699Z" fill="url(#paint1_radial_819_1260)" fill-opacity="0.4"/>
<path d="M17.95 4.77433C16.9204 5.43492 16.3142 6.5962 16.3569 7.82665C16.4229 10.1871 18.5715 10.6866 20.1409 11.051C20.7431 11.1679 21.3326 11.3439 21.9009 11.5764C22.7151 11.9881 23.46 12.5265 24.1082 13.1719C24.5806 13.6267 25.272 13.7629 25.8792 13.5206C26.4778 13.2884 26.8838 12.7213 26.9141 12.0749C27.0773 8.94399 24.605 5.54851 22.284 4.458C20.8772 3.82923 19.2526 3.94781 17.95 4.77433ZM24.2472 8.95415C24.6934 9.77506 23.6703 10.4089 22.8404 9.97962C22.7854 9.95116 22.7301 9.9232 22.6745 9.89575C21.9911 9.606 21.2796 9.389 20.5515 9.24829C18.7705 8.83392 18.2113 8.57678 18.1893 7.77393C18.165 7.18478 18.459 6.62859 18.9575 6.32084C19.3945 6.04334 19.9013 5.89823 20.4177 5.90277C20.7968 5.89889 21.1722 5.97843 21.5177 6.13585C22.6805 6.81485 23.6175 7.79553 24.2472 8.95415Z" fill="#FF4C0C"/>
<path d="M17.95 4.77433C16.9204 5.43492 16.3142 6.5962 16.3569 7.82665C16.4229 10.1871 18.5715 10.6866 20.1409 11.051C20.7431 11.1679 21.3326 11.3439 21.9009 11.5764C22.7151 11.9881 23.46 12.5265 24.1082 13.1719C24.5806 13.6267 25.272 13.7629 25.8792 13.5206C26.4778 13.2884 26.8838 12.7213 26.9141 12.0749C27.0773 8.94399 24.605 5.54851 22.284 4.458C20.8772 3.82923 19.2526 3.94781 17.95 4.77433ZM24.2472 8.95415C24.6934 9.77506 23.6703 10.4089 22.8404 9.97962C22.7854 9.95116 22.7301 9.9232 22.6745 9.89575C21.9911 9.606 21.2796 9.389 20.5515 9.24829C18.7705 8.83392 18.2113 8.57678 18.1893 7.77393C18.165 7.18478 18.459 6.62859 18.9575 6.32084C19.3945 6.04334 19.9013 5.89823 20.4177 5.90277C20.7968 5.89889 21.1722 5.97843 21.5177 6.13585C22.6805 6.81485 23.6175 7.79553 24.2472 8.95415Z" fill="url(#paint2_radial_819_1260)" fill-opacity="0.4"/>
<path d="M8.19312 12.3774C6.9175 12.6008 5.85183 13.4837 5.38629 14.7027C5.00293 15.7388 5.21416 16.9036 5.93629 17.7356C6.41789 18.3655 7.16453 18.7309 7.95296 18.7225C8.74283 18.6689 9.51562 18.4656 10.2309 18.1232C10.679 17.9229 11.1457 17.768 11.6242 17.6607C12.3702 17.5549 13.1278 17.5642 13.871 17.6884C14.4726 17.7858 15.0732 17.5085 15.3935 16.9855C15.7049 16.4668 15.6767 15.8101 15.322 15.3206C13.5812 13.2009 10.9072 12.0969 8.19312 12.3774ZM13.2467 15.7552C13.2467 15.7547 13.2463 15.7543 13.2459 15.7543C12.6003 15.7023 11.9509 15.7287 11.3116 15.833C10.7044 15.9609 10.1122 16.1535 9.54521 16.4074C8.20229 16.9531 7.75037 17.0382 7.34521 16.547C7.04233 16.2233 6.95005 15.753 7.10779 15.3372C7.35138 14.7429 7.87766 14.3143 8.50479 14.1995C8.69169 14.1682 8.88091 14.153 9.07037 14.1542C10.5987 14.2105 12.066 14.7734 13.2452 15.7559C13.2458 15.7564 13.2467 15.756 13.2467 15.7552V15.7552Z" fill="#FF4C0C"/>
<path d="M8.19312 12.3774C6.9175 12.6008 5.85183 13.4837 5.38629 14.7027C5.00293 15.7388 5.21416 16.9036 5.93629 17.7356C6.41789 18.3655 7.16453 18.7309 7.95296 18.7225C8.74283 18.6689 9.51562 18.4656 10.2309 18.1232C10.679 17.9229 11.1457 17.768 11.6242 17.6607C12.3702 17.5549 13.1278 17.5642 13.871 17.6884C14.4726 17.7858 15.0732 17.5085 15.3935 16.9855C15.7049 16.4668 15.6767 15.8101 15.322 15.3206C13.5812 13.2009 10.9072 12.0969 8.19312 12.3774ZM13.2467 15.7552C13.2467 15.7547 13.2463 15.7543 13.2459 15.7543C12.6003 15.7023 11.9509 15.7287 11.3116 15.833C10.7044 15.9609 10.1122 16.1535 9.54521 16.4074C8.20229 16.9531 7.75037 17.0382 7.34521 16.547C7.04233 16.2233 6.95005 15.753 7.10779 15.3372C7.35138 14.7429 7.87766 14.3143 8.50479 14.1995C8.69169 14.1682 8.88091 14.153 9.07037 14.1542C10.5987 14.2105 12.066 14.7734 13.2452 15.7559C13.2458 15.7564 13.2467 15.756 13.2467 15.7552V15.7552Z" fill="url(#paint3_radial_819_1260)" fill-opacity="0.4"/>
<path d="M39.3763 15.3224C39.0216 15.812 38.9934 16.4687 39.3048 16.9873C39.6261 17.5092 40.226 17.7862 40.8274 17.6903C41.5706 17.5665 42.3282 17.5571 43.0742 17.6626C43.5527 17.7697 44.0194 17.9246 44.4675 18.125C45.1841 18.4683 45.9585 18.672 46.75 18.7253C47.5384 18.7337 48.2851 18.3683 48.7667 17.7384C49.4888 16.9064 49.7 15.7416 49.3167 14.7055C48.8509 13.4839 47.7827 12.5996 46.5043 12.3774C43.7901 12.0972 41.1163 13.2019 39.3763 15.3224ZM46.1927 14.2033C46.8192 14.3168 47.3455 14.7441 47.5897 15.3372C47.7478 15.752 47.6566 16.2214 47.355 16.5452C46.9471 17.0364 46.4952 16.9522 45.155 16.4056C44.588 16.1516 43.9958 15.9591 43.3886 15.8312C42.9709 15.7608 42.548 15.7265 42.1245 15.7285V15.7285C41.9117 15.7285 41.8113 15.4651 41.9866 15.3446C43.2152 14.4996 44.6968 14.0931 46.1927 14.2033Z" fill="#FF4C0C"/>
<path d="M39.3763 15.3224C39.0216 15.812 38.9934 16.4687 39.3048 16.9873C39.6261 17.5092 40.226 17.7862 40.8274 17.6903C41.5706 17.5665 42.3282 17.5571 43.0742 17.6626C43.5527 17.7697 44.0194 17.9246 44.4675 18.125C45.1841 18.4683 45.9585 18.672 46.75 18.7253C47.5384 18.7337 48.2851 18.3683 48.7667 17.7384C49.4888 16.9064 49.7 15.7416 49.3167 14.7055C48.8509 13.4839 47.7827 12.5996 46.5043 12.3774C43.7901 12.0972 41.1163 13.2019 39.3763 15.3224ZM46.1927 14.2033C46.8192 14.3168 47.3455 14.7441 47.5897 15.3372C47.7478 15.752 47.6566 16.2214 47.355 16.5452C46.9471 17.0364 46.4952 16.9522 45.155 16.4056C44.588 16.1516 43.9958 15.9591 43.3886 15.8312C42.9709 15.7608 42.548 15.7265 42.1245 15.7285V15.7285C41.9117 15.7285 41.8113 15.4651 41.9866 15.3446C43.2152 14.4996 44.6968 14.0931 46.1927 14.2033Z" fill="url(#paint4_radial_819_1260)" fill-opacity="0.4"/>
<path d="M14.6667 11.4525C15.1729 11.4525 15.5833 11.0384 15.5833 10.5275C15.5833 10.0167 15.1729 9.6026 14.6667 9.6026C14.1604 9.6026 13.75 10.0167 13.75 10.5275C13.75 11.0384 14.1604 11.4525 14.6667 11.4525Z" fill="#FF4C0C"/>
<path d="M14.6667 11.4525C15.1729 11.4525 15.5833 11.0384 15.5833 10.5275C15.5833 10.0167 15.1729 9.6026 14.6667 9.6026C14.1604 9.6026 13.75 10.0167 13.75 10.5275C13.75 11.0384 14.1604 11.4525 14.6667 11.4525Z" fill="url(#paint5_radial_819_1260)" fill-opacity="0.4"/>
<path d="M24.75 3.12803C25.2563 3.12803 25.6667 2.71392 25.6667 2.20309C25.6667 1.69226 25.2563 1.27814 24.75 1.27814C24.2437 1.27814 23.8333 1.69226 23.8333 2.20309C23.8333 2.71392 24.2437 3.12803 24.75 3.12803Z" fill="#FF4C0C"/>
<path d="M24.75 3.12803C25.2563 3.12803 25.6667 2.71392 25.6667 2.20309C25.6667 1.69226 25.2563 1.27814 24.75 1.27814C24.2437 1.27814 23.8333 1.69226 23.8333 2.20309C23.8333 2.71392 24.2437 3.12803 24.75 3.12803Z" fill="url(#paint6_radial_819_1260)" fill-opacity="0.4"/>
<path d="M45.8334 3.12803C46.3396 3.12803 46.75 2.71392 46.75 2.20309C46.75 1.69226 46.3396 1.27814 45.8334 1.27814C45.3271 1.27814 44.9167 1.69226 44.9167 2.20309C44.9167 2.71392 45.3271 3.12803 45.8334 3.12803Z" fill="#FF4C0C"/>
<path d="M45.8334 3.12803C46.3396 3.12803 46.75 2.71392 46.75 2.20309C46.75 1.69226 46.3396 1.27814 45.8334 1.27814C45.3271 1.27814 44.9167 1.69226 44.9167 2.20309C44.9167 2.71392 45.3271 3.12803 45.8334 3.12803Z" fill="url(#paint7_radial_819_1260)" fill-opacity="0.4"/>
<path d="M42.1667 4.97795C42.673 4.97795 43.0834 4.56384 43.0834 4.05301C43.0834 3.54217 42.673 3.12806 42.1667 3.12806C41.6604 3.12806 41.25 3.54217 41.25 4.05301C41.25 4.56384 41.6604 4.97795 42.1667 4.97795Z" fill="#FF4C0C"/>
<path d="M42.1667 4.97795C42.673 4.97795 43.0834 4.56384 43.0834 4.05301C43.0834 3.54217 42.673 3.12806 42.1667 3.12806C41.6604 3.12806 41.25 3.54217 41.25 4.05301C41.25 4.56384 41.6604 4.97795 42.1667 4.97795Z" fill="url(#paint8_radial_819_1260)" fill-opacity="0.4"/>
<defs>
<radialGradient id="paint0_radial_819_1260" cx="0" cy="0" r="1" gradientUnits="userSpaceOnUse" gradientTransform="translate(28.3049 -2.45455) rotate(90) scale(44.7955 26.0744)">
<stop stop-color="white"/>
<stop offset="0.0001" stop-color="white"/>
<stop offset="1" stop-color="white" stop-opacity="0"/>
</radialGradient>
<radialGradient id="paint1_radial_819_1260" cx="0" cy="0" r="1" gradientUnits="userSpaceOnUse" gradientTransform="translate(28.3049 -2.45455) rotate(90) scale(44.7955 26.0744)">
<stop stop-color="white"/>
<stop offset="0.0001" stop-color="white"/>
<stop offset="1" stop-color="white" stop-opacity="0"/>
</radialGradient>
<radialGradient id="paint2_radial_819_1260" cx="0" cy="0" r="1" gradientUnits="userSpaceOnUse" gradientTransform="translate(28.3049 -2.45455) rotate(90) scale(44.7955 26.0744)">
<stop stop-color="white"/>
<stop offset="0.0001" stop-color="white"/>
<stop offset="1" stop-color="white" stop-opacity="0"/>
</radialGradient>
<radialGradient id="paint3_radial_819_1260" cx="0" cy="0" r="1" gradientUnits="userSpaceOnUse" gradientTransform="translate(28.3049 -2.45455) rotate(90) scale(44.7955 26.0744)">
<stop stop-color="white"/>
<stop offset="0.0001" stop-color="white"/>
<stop offset="1" stop-color="white" stop-opacity="0"/>
</radialGradient>
<radialGradient id="paint4_radial_819_1260" cx="0" cy="0" r="1" gradientUnits="userSpaceOnUse" gradientTransform="translate(28.3049 -2.45455) rotate(90) scale(44.7955 26.0744)">
<stop stop-color="white"/>
<stop offset="0.0001" stop-color="white"/>
<stop offset="1" stop-color="white" stop-opacity="0"/>
</radialGradient>
<radialGradient id="paint5_radial_819_1260" cx="0" cy="0" r="1" gradientUnits="userSpaceOnUse" gradientTransform="translate(28.3049 -2.45455) rotate(90) scale(44.7955 26.0744)">
<stop stop-color="white"/>
<stop offset="0.0001" stop-color="white"/>
<stop offset="1" stop-color="white" stop-opacity="0"/>
</radialGradient>
<radialGradient id="paint6_radial_819_1260" cx="0" cy="0" r="1" gradientUnits="userSpaceOnUse" gradientTransform="translate(28.3049 -2.45455) rotate(90) scale(44.7955 26.0744)">
<stop stop-color="white"/>
<stop offset="0.0001" stop-color="white"/>
<stop offset="1" stop-color="white" stop-opacity="0"/>
</radialGradient>
<radialGradient id="paint7_radial_819_1260" cx="0" cy="0" r="1" gradientUnits="userSpaceOnUse" gradientTransform="translate(28.3049 -2.45455) rotate(90) scale(44.7955 26.0744)">
<stop stop-color="white"/>
<stop offset="0.0001" stop-color="white"/>
<stop offset="1" stop-color="white" stop-opacity="0"/>
</radialGradient>
<radialGradient id="paint8_radial_819_1260" cx="0" cy="0" r="1" gradientUnits="userSpaceOnUse" gradientTransform="translate(28.3049 -2.45455) rotate(90) scale(44.7955 26.0744)">
<stop stop-color="white"/>
<stop offset="0.0001" stop-color="white"/>
<stop offset="1" stop-color="white" stop-opacity="0"/>
</radialGradient>
</defs>
</svg>
