<svg width="54" height="44" viewBox="0 0 54 44" fill="none" xmlns="http://www.w3.org/2000/svg">
<path d="M53.854 26.7358C53.7353 26.5329 53.5528 26.3751 53.3349 26.2869L51.3283 25.4655C50.5629 25.1522 50.4871 24.098 51.1998 23.6783L53.4733 22.3396C53.9804 22.0427 54.1509 21.391 53.854 20.8839C53.7353 20.6811 53.5528 20.5232 53.3349 20.4351L51.3283 19.6137C50.5629 19.3003 50.4871 18.2462 51.1998 17.8265L53.4733 16.4877C53.8236 16.2769 54.0221 15.8841 53.984 15.477C53.9532 15.0749 53.6978 14.7246 53.3243 14.5726L38.0776 8.32707L30.566 5.13515C30.5035 5.11043 30.439 5.09178 30.3732 5.07932C30.249 5.05575 30.1228 5.03618 30.0056 4.9885L17.9473 0.0812898C17.6468 -0.0434609 17.3058 -0.0237772 17.0216 0.134489L0.625816 9.34848C0.101013 9.61274 -0.110186 10.2525 0.154078 10.7773C0.274573 11.0167 0.481116 11.2018 0.732214 11.2955L2.78026 12.1434C3.55281 12.4632 3.61505 13.5336 2.88476 13.9408L0.625816 15.2003C0.114445 15.4897 -0.0654988 16.139 0.223901 16.6504C0.338943 16.8536 0.517424 17.0132 0.732214 17.1048L2.78569 17.9549C3.55729 18.2743 3.62061 19.3429 2.89215 19.7512L0.647096 21.0096C0.106466 21.24 -0.144898 21.865 0.0854521 22.4055C0.205548 22.6874 0.441218 22.9036 0.732214 22.9992L2.7783 23.8408C3.55161 24.1588 3.61627 25.2291 2.88688 25.6379L0.647096 26.8934C0.135725 27.1828 -0.0442194 27.8321 0.245181 28.3434C0.360223 28.5466 0.538704 28.7062 0.753493 28.7979L14.4055 34.5944C14.4754 34.6241 14.5406 34.6634 14.6065 34.7011C14.6273 34.7131 14.6486 34.7243 14.6702 34.7348L36.0241 43.8105C36.3353 43.9426 36.6908 43.9189 36.9817 43.7467L53.4733 34.0432C53.9804 33.7464 54.1509 33.0947 53.854 32.5876C53.7353 32.3848 53.5528 32.2269 53.3349 32.1387L51.3283 31.3174C50.5629 31.004 50.4871 29.9499 51.1997 29.5302L53.4733 28.1914C53.9804 27.8947 54.1507 27.2429 53.854 26.7358ZM48.6691 20.8102C49.4349 21.1232 49.511 22.1777 48.7981 22.5975L36.7882 29.6701C36.5151 29.8309 36.1818 29.8527 35.8901 29.7289L24.2807 24.8007C23.9113 24.6439 23.6714 24.2815 23.6714 23.8802V22.5107C23.6714 21.794 24.403 21.31 25.0626 21.5903L36.0135 26.2445C36.1448 26.3003 36.2859 26.3293 36.4284 26.3296C36.6194 26.3296 36.8068 26.2781 36.9711 26.1806L46.7263 20.4417C46.9954 20.2834 47.3229 20.2598 47.6118 20.3779L48.6691 20.8102ZM48.7073 14.9468C49.4739 15.2598 49.5497 16.3157 48.8356 16.7349L36.788 23.8085C36.515 23.9688 36.1821 23.9904 35.8907 23.8666L26.5349 19.8927C25.8031 19.5819 25.7092 18.5825 26.3704 18.1408L37.3699 10.7928C37.6461 10.6083 37.9959 10.5729 38.3034 10.6985L48.7073 14.9468ZM13.9938 30.6215C13.9917 31.3369 13.261 31.8186 12.6026 31.5388L5.42558 28.488C4.66116 28.1631 4.60316 27.1018 5.32763 26.6955L6.70908 25.9207C6.97917 25.7693 7.30421 25.7515 7.58923 25.8725L13.3889 28.3363C13.7592 28.4936 13.9991 28.8574 13.9979 29.2597L13.9938 30.6215ZM13.9938 24.7696C13.9917 25.485 13.261 25.9668 12.6026 25.6869L5.41497 22.6317C4.65246 22.3075 4.59228 21.2499 5.31309 20.8414L6.70773 20.0509C6.97852 19.8975 7.30532 19.8788 7.5918 20.0005L13.3889 22.4632C13.7592 22.6205 13.9992 22.9843 13.9979 23.3866L13.9938 24.7696ZM13.9938 18.9192C13.9917 19.6342 13.2617 20.116 12.6034 19.8369L5.42832 16.7942C4.66324 16.4698 4.60476 15.4079 5.32957 15.0014L6.70908 14.2277C6.97917 14.0762 7.30421 14.0584 7.58922 14.1795L13.3889 16.6432C13.7592 16.8005 13.9991 17.1644 13.9979 17.5667L13.9938 18.9192ZM5.4237 10.9421C4.6596 10.6174 4.60111 9.55681 5.32487 9.15004L17.1958 2.47825C17.4621 2.32856 17.7823 2.30884 18.065 2.42468L26.0805 5.70946C26.8218 6.01327 26.9228 7.02195 26.2563 7.46662L15.4173 14.6986C15.137 14.8856 14.7813 14.9189 14.4712 14.7871L5.4237 10.9421ZM22.0116 18.5094C21.7184 18.7076 21.543 19.0386 21.5435 19.3925V33.8414C21.5435 34.5578 20.8123 35.0418 20.1528 34.7619L16.7372 33.3125C16.3678 33.1557 16.1279 32.7933 16.1279 32.3919V17.3211C16.1279 16.9867 16.295 16.6744 16.5733 16.4889L29.7853 7.68429C30.0607 7.50075 30.409 7.46537 30.7157 7.58978L33.7216 8.80921C34.4653 9.1109 34.5685 10.1216 33.9011 10.5674L22.0116 18.5094ZM48.7091 32.5014C49.4651 32.8224 49.5333 33.8675 48.8253 34.2839L36.7881 41.3635C36.515 41.5241 36.182 41.5459 35.8904 41.4221L24.2807 36.4938C23.9113 36.337 23.6714 35.9746 23.6714 35.5733V34.2084C23.6714 33.4933 24.4001 33.0093 25.0592 33.2866L36.0135 37.895C36.3247 38.027 36.6802 38.0034 36.9711 37.8311L46.7191 32.0964C46.9922 31.9357 47.3253 31.914 47.6169 32.0378L48.7091 32.5014ZM36.7881 35.5117C36.515 35.6723 36.182 35.694 35.8904 35.5702L24.2807 30.6419C23.9113 30.4851 23.6714 30.1227 23.6714 29.7214V28.362C23.6714 27.6455 24.4028 27.1615 25.0623 27.4415L36.0241 32.0963C36.3353 32.2284 36.6908 32.2047 36.9817 32.0325L46.7364 26.2938C47.0057 26.1354 47.3337 26.1119 47.6229 26.2305L48.6712 26.6605C49.4364 26.9743 49.5116 28.0284 48.7988 28.4476L36.7881 35.5117Z" fill="#FF4C0C"/>
<path d="M53.854 26.7358C53.7353 26.5329 53.5528 26.3751 53.3349 26.2869L51.3283 25.4655C50.5629 25.1522 50.4871 24.098 51.1998 23.6783L53.4733 22.3396C53.9804 22.0427 54.1509 21.391 53.854 20.8839C53.7353 20.6811 53.5528 20.5232 53.3349 20.4351L51.3283 19.6137C50.5629 19.3003 50.4871 18.2462 51.1998 17.8265L53.4733 16.4877C53.8236 16.2769 54.0221 15.8841 53.984 15.477C53.9532 15.0749 53.6978 14.7246 53.3243 14.5726L38.0776 8.32707L30.566 5.13515C30.5035 5.11043 30.439 5.09178 30.3732 5.07932C30.249 5.05575 30.1228 5.03618 30.0056 4.9885L17.9473 0.0812898C17.6468 -0.0434609 17.3058 -0.0237772 17.0216 0.134489L0.625816 9.34848C0.101013 9.61274 -0.110186 10.2525 0.154078 10.7773C0.274573 11.0167 0.481116 11.2018 0.732214 11.2955L2.78026 12.1434C3.55281 12.4632 3.61505 13.5336 2.88476 13.9408L0.625816 15.2003C0.114445 15.4897 -0.0654988 16.139 0.223901 16.6504C0.338943 16.8536 0.517424 17.0132 0.732214 17.1048L2.78569 17.9549C3.55729 18.2743 3.62061 19.3429 2.89215 19.7512L0.647096 21.0096C0.106466 21.24 -0.144898 21.865 0.0854521 22.4055C0.205548 22.6874 0.441218 22.9036 0.732214 22.9992L2.7783 23.8408C3.55161 24.1588 3.61627 25.2291 2.88688 25.6379L0.647096 26.8934C0.135725 27.1828 -0.0442194 27.8321 0.245181 28.3434C0.360223 28.5466 0.538704 28.7062 0.753493 28.7979L14.4055 34.5944C14.4754 34.6241 14.5406 34.6634 14.6065 34.7011C14.6273 34.7131 14.6486 34.7243 14.6702 34.7348L36.0241 43.8105C36.3353 43.9426 36.6908 43.9189 36.9817 43.7467L53.4733 34.0432C53.9804 33.7464 54.1509 33.0947 53.854 32.5876C53.7353 32.3848 53.5528 32.2269 53.3349 32.1387L51.3283 31.3174C50.5629 31.004 50.4871 29.9499 51.1997 29.5302L53.4733 28.1914C53.9804 27.8947 54.1507 27.2429 53.854 26.7358ZM48.6691 20.8102C49.4349 21.1232 49.511 22.1777 48.7981 22.5975L36.7882 29.6701C36.5151 29.8309 36.1818 29.8527 35.8901 29.7289L24.2807 24.8007C23.9113 24.6439 23.6714 24.2815 23.6714 23.8802V22.5107C23.6714 21.794 24.403 21.31 25.0626 21.5903L36.0135 26.2445C36.1448 26.3003 36.2859 26.3293 36.4284 26.3296C36.6194 26.3296 36.8068 26.2781 36.9711 26.1806L46.7263 20.4417C46.9954 20.2834 47.3229 20.2598 47.6118 20.3779L48.6691 20.8102ZM48.7073 14.9468C49.4739 15.2598 49.5497 16.3157 48.8356 16.7349L36.788 23.8085C36.515 23.9688 36.1821 23.9904 35.8907 23.8666L26.5349 19.8927C25.8031 19.5819 25.7092 18.5825 26.3704 18.1408L37.3699 10.7928C37.6461 10.6083 37.9959 10.5729 38.3034 10.6985L48.7073 14.9468ZM13.9938 30.6215C13.9917 31.3369 13.261 31.8186 12.6026 31.5388L5.42558 28.488C4.66116 28.1631 4.60316 27.1018 5.32763 26.6955L6.70908 25.9207C6.97917 25.7693 7.30421 25.7515 7.58923 25.8725L13.3889 28.3363C13.7592 28.4936 13.9991 28.8574 13.9979 29.2597L13.9938 30.6215ZM13.9938 24.7696C13.9917 25.485 13.261 25.9668 12.6026 25.6869L5.41497 22.6317C4.65246 22.3075 4.59228 21.2499 5.31309 20.8414L6.70773 20.0509C6.97852 19.8975 7.30532 19.8788 7.5918 20.0005L13.3889 22.4632C13.7592 22.6205 13.9992 22.9843 13.9979 23.3866L13.9938 24.7696ZM13.9938 18.9192C13.9917 19.6342 13.2617 20.116 12.6034 19.8369L5.42832 16.7942C4.66324 16.4698 4.60476 15.4079 5.32957 15.0014L6.70908 14.2277C6.97917 14.0762 7.30421 14.0584 7.58922 14.1795L13.3889 16.6432C13.7592 16.8005 13.9991 17.1644 13.9979 17.5667L13.9938 18.9192ZM5.4237 10.9421C4.6596 10.6174 4.60111 9.55681 5.32487 9.15004L17.1958 2.47825C17.4621 2.32856 17.7823 2.30884 18.065 2.42468L26.0805 5.70946C26.8218 6.01327 26.9228 7.02195 26.2563 7.46662L15.4173 14.6986C15.137 14.8856 14.7813 14.9189 14.4712 14.7871L5.4237 10.9421ZM22.0116 18.5094C21.7184 18.7076 21.543 19.0386 21.5435 19.3925V33.8414C21.5435 34.5578 20.8123 35.0418 20.1528 34.7619L16.7372 33.3125C16.3678 33.1557 16.1279 32.7933 16.1279 32.3919V17.3211C16.1279 16.9867 16.295 16.6744 16.5733 16.4889L29.7853 7.68429C30.0607 7.50075 30.409 7.46537 30.7157 7.58978L33.7216 8.80921C34.4653 9.1109 34.5685 10.1216 33.9011 10.5674L22.0116 18.5094ZM48.7091 32.5014C49.4651 32.8224 49.5333 33.8675 48.8253 34.2839L36.7881 41.3635C36.515 41.5241 36.182 41.5459 35.8904 41.4221L24.2807 36.4938C23.9113 36.337 23.6714 35.9746 23.6714 35.5733V34.2084C23.6714 33.4933 24.4001 33.0093 25.0592 33.2866L36.0135 37.895C36.3247 38.027 36.6802 38.0034 36.9711 37.8311L46.7191 32.0964C46.9922 31.9357 47.3253 31.914 47.6169 32.0378L48.7091 32.5014ZM36.7881 35.5117C36.515 35.6723 36.182 35.694 35.8904 35.5702L24.2807 30.6419C23.9113 30.4851 23.6714 30.1227 23.6714 29.7214V28.362C23.6714 27.6455 24.4028 27.1615 25.0623 27.4415L36.0241 32.0963C36.3353 32.2284 36.6908 32.2047 36.9817 32.0325L46.7364 26.2938C47.0057 26.1354 47.3337 26.1119 47.6229 26.2305L48.6712 26.6605C49.4364 26.9743 49.5116 28.0284 48.7988 28.4476L36.7881 35.5117Z" fill="url(#paint0_radial_819_1262)" fill-opacity="0.4"/>
<defs>
<radialGradient id="paint0_radial_819_1262" cx="0" cy="0" r="1" gradientUnits="userSpaceOnUse" gradientTransform="translate(27.7902 -1.99523) rotate(90) scale(36.4129 25.6003)">
<stop stop-color="white"/>
<stop offset="0.0001" stop-color="white"/>
<stop offset="1" stop-color="white" stop-opacity="0"/>
</radialGradient>
</defs>
</svg>
