<svg width="72" height="32" viewBox="0 0 72 32" fill="none" xmlns="http://www.w3.org/2000/svg">
<path d="M51.6001 17.0123C51.6001 16.46 51.1524 16.0123 50.6001 16.0123H50.1997C49.6474 16.0123 49.1997 16.46 49.1997 17.0123V19.9298C49.1997 20.4821 49.6474 20.9298 50.1997 20.9298H50.6001C51.1524 20.9298 51.6001 20.4821 51.6001 19.9298V17.0123Z" fill="#FF4C0C"/>
<path d="M51.6001 17.0123C51.6001 16.46 51.1524 16.0123 50.6001 16.0123H50.1997C49.6474 16.0123 49.1997 16.46 49.1997 17.0123V19.9298C49.1997 20.4821 49.6474 20.9298 50.1997 20.9298H50.6001C51.1524 20.9298 51.6001 20.4821 51.6001 19.9298V17.0123Z" fill="url(#paint0_radial_819_1256)" fill-opacity="0.4"/>
<path d="M40.7999 13.3238C40.7999 12.7715 40.3522 12.3238 39.7999 12.3238H29.7999C29.2476 12.3238 28.7999 12.7715 28.7999 13.3238V13.7826C28.7999 14.3349 29.2476 14.7826 29.7999 14.7826H39.7999C40.3522 14.7826 40.7999 14.3349 40.7999 13.7826V13.3238Z" fill="#FF4C0C"/>
<path d="M40.7999 13.3238C40.7999 12.7715 40.3522 12.3238 39.7999 12.3238H29.7999C29.2476 12.3238 28.7999 12.7715 28.7999 13.3238V13.7826C28.7999 14.3349 29.2476 14.7826 29.7999 14.7826H39.7999C40.3522 14.7826 40.7999 14.3349 40.7999 13.7826V13.3238Z" fill="url(#paint1_radial_819_1256)" fill-opacity="0.4"/>
<path d="M21.6001 13.3238C21.6001 12.7715 21.1524 12.3238 20.6001 12.3238H10.6C10.0478 12.3238 9.60005 12.7715 9.60005 13.3238V13.7826C9.60005 14.3349 10.0478 14.7826 10.6 14.7826H20.6001C21.1524 14.7826 21.6001 14.3349 21.6001 13.7826V13.3238Z" fill="#FF4C0C"/>
<path d="M21.6001 13.3238C21.6001 12.7715 21.1524 12.3238 20.6001 12.3238H10.6C10.0478 12.3238 9.60005 12.7715 9.60005 13.3238V13.7826C9.60005 14.3349 10.0478 14.7826 10.6 14.7826H20.6001C21.1524 14.7826 21.6001 14.3349 21.6001 13.7826V13.3238Z" fill="url(#paint2_radial_819_1256)" fill-opacity="0.4"/>
<path d="M0.315281 17.6405C0.683541 17.2289 1.20019 16.7938 1.20019 16.2415V11.0943C1.20019 11.0798 1.20703 11.0648 1.20849 11.0488C1.21045 10.9177 1.23291 10.7882 1.27539 10.6641L4.87549 0.797919C5.05127 0.317667 5.49951 -0.000499769 6 5.89308e-07H53.5669C54.9775 0.00450292 56.3159 0.641837 57.229 1.74341L64.3703 11.3323C64.4252 11.4061 64.4901 11.4719 64.5631 11.528L67.6802 13.9223C68.8857 14.8533 69.5962 16.3096 69.6001 17.8564V19.93C69.6001 20.4823 70.0478 20.93 70.6001 20.93H70.7998C71.4629 20.93 72 21.4803 72 22.1596V27.0772C72 27.7561 71.4629 28.3063 70.7998 28.3063H67.3403C66.9382 28.3063 66.5816 28.5513 66.3869 28.9032C64.9039 31.5833 61.6564 32.743 58.833 31.4925C57.6385 30.9637 56.651 30.0517 56.0133 28.9027C55.8182 28.5511 55.4618 28.3063 55.0597 28.3063H20.5419C20.1391 28.3063 19.7821 28.5522 19.5876 28.9049C18.1117 31.5815 14.8731 32.7442 12.0532 31.5025C10.6875 30.9008 9.59478 29.7998 8.98355 28.4216C8.88197 28.1926 8.71317 27.9973 8.49019 27.8831L2.33138 24.7284C2.19028 24.6561 2.03402 24.6184 1.87548 24.6184H1.20019C0.537105 24.6184 -2.92395e-06 24.0676 -2.92395e-06 23.3888V18.4712C-2.92395e-06 18.151 0.119468 17.8593 0.315281 17.6405ZM7.53117 2.45879C7.11106 2.45879 6.73574 2.72138 6.59174 3.11605L4.61928 8.52243C4.38127 9.17479 4.86429 9.86517 5.55871 9.86517H5.66857C6.08866 9.86517 6.46397 9.60261 6.60798 9.20797L8.5808 3.80159C8.81885 3.14922 8.33583 2.45879 7.64139 2.45879H7.53117ZM55.373 3.29873C54.917 2.76495 54.2588 2.45879 53.5669 2.45879H51.3999C50.8476 2.45879 50.3999 2.9065 50.3999 3.45879V10.0943C50.3999 10.6466 50.8476 11.0943 51.3999 11.0943H59.1848C60.0072 11.0943 60.478 10.1569 59.987 9.49722L55.373 3.29873ZM66.7031 23.4383C66.8567 23.7981 66.9758 24.1724 67.0591 24.556C67.062 24.5696 67.0626 24.5826 67.0643 24.5964V24.5964C67.066 24.611 67.0718 24.6257 67.0748 24.6401C67.0892 24.7113 67.1024 24.7828 67.1143 24.8545C67.2048 25.3984 67.644 25.8476 68.1954 25.8476H68.6001C69.1524 25.8476 69.6001 25.3998 69.6001 24.8476V24.3888C69.6001 23.8365 69.1524 23.3888 68.6001 23.3888H66.7395C66.7152 23.3888 66.6948 23.4155 66.7031 23.4383V23.4383ZM57.731 26.7685C58.2607 28.7321 60.2441 29.8837 62.1602 29.3404C63.6982 28.9047 64.7729 27.4829 64.7998 25.8481C64.7729 23.8225 63.1768 22.1876 61.2002 22.1596C59.2432 22.1276 57.6313 23.7264 57.6001 25.7315C57.5947 26.0817 57.6387 26.4314 57.731 26.7685ZM45.6001 24.8481C45.6001 25.4003 46.0478 25.8481 46.6001 25.8481H54.2013C54.7532 25.8481 55.1923 25.398 55.2794 24.8531C55.7462 21.9327 58.2188 19.7044 61.2002 19.7008C61.5395 19.7023 61.8779 19.7343 62.2119 19.7964C62.3198 19.8164 62.4229 19.8519 62.5298 19.8779C62.7529 19.9284 62.9736 19.992 63.1899 20.0685C63.3096 20.1135 63.4297 20.1726 63.5498 20.2256C63.7417 20.3097 63.9297 20.4032 64.1128 20.5063C64.2324 20.5773 64.3525 20.6583 64.4727 20.7384C64.4807 20.7439 64.4887 20.7493 64.4969 20.7547C64.6724 20.8708 64.8824 20.93 65.0929 20.93H66.2002C66.7525 20.93 67.2002 20.4823 67.2002 19.93V17.8564C67.1982 17.083 66.8428 16.3551 66.2402 15.8893L63.4702 13.7607C63.2954 13.6264 63.0812 13.5536 62.8608 13.5536H49.2002C48.5376 13.5536 48 13.0028 48 12.324V3.45879C48 2.9065 47.5523 2.45879 47 2.45879H46.6001C46.0478 2.45879 45.6001 2.9065 45.6001 3.45879V24.8481ZM26.3999 24.8481C26.3999 25.4003 26.8476 25.8481 27.3999 25.8481H42.2002C42.7525 25.8481 43.2002 25.4003 43.2002 24.8481V3.45879C43.2002 2.9065 42.7525 2.45879 42.2002 2.45879H27.3999C26.8476 2.45879 26.3999 2.9065 26.3999 3.45879V24.8481ZM10.9307 26.7685C11.4585 28.6995 13.4141 29.8266 15.2983 29.2859C17.1831 28.7451 18.2832 26.7415 17.7554 24.811C17.2275 22.88 15.272 21.7529 13.3877 22.2937C11.8369 22.7384 10.7739 24.1987 10.7998 25.8481C10.8052 26.1592 10.8496 26.4689 10.9307 26.7685ZM7.10058 23.8755C7.089 23.8961 7.07696 23.9163 7.06441 23.9362C7.03769 23.9785 7.0117 24.0214 6.98625 24.0645C6.94259 24.1384 6.89135 24.2074 6.83342 24.2707C6.83282 24.2714 6.83229 24.2721 6.83185 24.2729V24.2729C6.82849 24.2788 6.83073 24.2863 6.83678 24.2894L8.20208 24.9892C8.31872 25.049 8.47749 24.9774 8.49853 24.848V24.848C8.52685 24.6724 8.56445 24.5028 8.60742 24.3333C8.65918 24.1252 8.72168 23.92 8.79492 23.7184C8.85351 23.5574 8.91455 23.4013 8.98779 23.2462C9.07763 23.0531 9.17773 22.8645 9.28661 22.6819C9.37206 22.5383 9.45703 22.3982 9.55322 22.2617C9.67871 22.0906 9.81298 21.9265 9.95507 21.7699C10.062 21.6469 10.166 21.5238 10.2827 21.4117C10.4404 21.2626 10.606 21.1226 10.7783 20.9915C10.8984 20.8945 11.0186 20.7934 11.1538 20.7064C11.3452 20.5843 11.543 20.4742 11.7466 20.3757C11.8799 20.3081 12.0059 20.2306 12.145 20.1726C12.3804 20.08 12.6206 20.003 12.8652 19.9415C12.9853 19.9084 13.1055 19.8594 13.2251 19.8344C13.6094 19.7544 14 19.7128 14.3916 19.7118C17.373 19.7154 19.8456 21.9437 20.3123 24.8641C20.3994 25.409 20.8386 25.8591 21.3904 25.8591H23C23.5523 25.8591 24 25.4113 24 24.8591V3.45879C24 2.90651 23.5523 2.45879 23 2.45879H12.3324C11.9123 2.45879 11.537 2.72138 11.393 3.11605L8.3247 11.526C8.14892 12.0063 7.70068 12.324 7.20019 12.324H4.60009C4.04781 12.324 3.60009 12.7717 3.60009 13.324V16.2415C3.60009 16.7938 4.04781 17.2415 4.60009 17.2415H6C6.66308 17.2415 7.20019 17.7923 7.20019 18.4712V23.3888C7.20019 23.5564 7.16601 23.7224 7.10058 23.8755ZM2.3999 21.1596C2.3999 21.7119 2.84761 22.1596 3.3999 22.1596H3.7998C4.35208 22.1596 4.7998 21.7119 4.7998 21.1596V20.7008C4.7998 20.1485 4.35208 19.7008 3.7998 19.7008H3.3999C2.84761 19.7008 2.3999 20.1485 2.3999 20.7008V21.1596Z" fill="#FF4C0C"/>
<path d="M0.315281 17.6405C0.683541 17.2289 1.20019 16.7938 1.20019 16.2415V11.0943C1.20019 11.0798 1.20703 11.0648 1.20849 11.0488C1.21045 10.9177 1.23291 10.7882 1.27539 10.6641L4.87549 0.797919C5.05127 0.317667 5.49951 -0.000499769 6 5.89308e-07H53.5669C54.9775 0.00450292 56.3159 0.641837 57.229 1.74341L64.3703 11.3323C64.4252 11.4061 64.4901 11.4719 64.5631 11.528L67.6802 13.9223C68.8857 14.8533 69.5962 16.3096 69.6001 17.8564V19.93C69.6001 20.4823 70.0478 20.93 70.6001 20.93H70.7998C71.4629 20.93 72 21.4803 72 22.1596V27.0772C72 27.7561 71.4629 28.3063 70.7998 28.3063H67.3403C66.9382 28.3063 66.5816 28.5513 66.3869 28.9032C64.9039 31.5833 61.6564 32.743 58.833 31.4925C57.6385 30.9637 56.651 30.0517 56.0133 28.9027C55.8182 28.5511 55.4618 28.3063 55.0597 28.3063H20.5419C20.1391 28.3063 19.7821 28.5522 19.5876 28.9049C18.1117 31.5815 14.8731 32.7442 12.0532 31.5025C10.6875 30.9008 9.59478 29.7998 8.98355 28.4216C8.88197 28.1926 8.71317 27.9973 8.49019 27.8831L2.33138 24.7284C2.19028 24.6561 2.03402 24.6184 1.87548 24.6184H1.20019C0.537105 24.6184 -2.92395e-06 24.0676 -2.92395e-06 23.3888V18.4712C-2.92395e-06 18.151 0.119468 17.8593 0.315281 17.6405ZM7.53117 2.45879C7.11106 2.45879 6.73574 2.72138 6.59174 3.11605L4.61928 8.52243C4.38127 9.17479 4.86429 9.86517 5.55871 9.86517H5.66857C6.08866 9.86517 6.46397 9.60261 6.60798 9.20797L8.5808 3.80159C8.81885 3.14922 8.33583 2.45879 7.64139 2.45879H7.53117ZM55.373 3.29873C54.917 2.76495 54.2588 2.45879 53.5669 2.45879H51.3999C50.8476 2.45879 50.3999 2.9065 50.3999 3.45879V10.0943C50.3999 10.6466 50.8476 11.0943 51.3999 11.0943H59.1848C60.0072 11.0943 60.478 10.1569 59.987 9.49722L55.373 3.29873ZM66.7031 23.4383C66.8567 23.7981 66.9758 24.1724 67.0591 24.556C67.062 24.5696 67.0626 24.5826 67.0643 24.5964V24.5964C67.066 24.611 67.0718 24.6257 67.0748 24.6401C67.0892 24.7113 67.1024 24.7828 67.1143 24.8545C67.2048 25.3984 67.644 25.8476 68.1954 25.8476H68.6001C69.1524 25.8476 69.6001 25.3998 69.6001 24.8476V24.3888C69.6001 23.8365 69.1524 23.3888 68.6001 23.3888H66.7395C66.7152 23.3888 66.6948 23.4155 66.7031 23.4383V23.4383ZM57.731 26.7685C58.2607 28.7321 60.2441 29.8837 62.1602 29.3404C63.6982 28.9047 64.7729 27.4829 64.7998 25.8481C64.7729 23.8225 63.1768 22.1876 61.2002 22.1596C59.2432 22.1276 57.6313 23.7264 57.6001 25.7315C57.5947 26.0817 57.6387 26.4314 57.731 26.7685ZM45.6001 24.8481C45.6001 25.4003 46.0478 25.8481 46.6001 25.8481H54.2013C54.7532 25.8481 55.1923 25.398 55.2794 24.8531C55.7462 21.9327 58.2188 19.7044 61.2002 19.7008C61.5395 19.7023 61.8779 19.7343 62.2119 19.7964C62.3198 19.8164 62.4229 19.8519 62.5298 19.8779C62.7529 19.9284 62.9736 19.992 63.1899 20.0685C63.3096 20.1135 63.4297 20.1726 63.5498 20.2256C63.7417 20.3097 63.9297 20.4032 64.1128 20.5063C64.2324 20.5773 64.3525 20.6583 64.4727 20.7384C64.4807 20.7439 64.4887 20.7493 64.4969 20.7547C64.6724 20.8708 64.8824 20.93 65.0929 20.93H66.2002C66.7525 20.93 67.2002 20.4823 67.2002 19.93V17.8564C67.1982 17.083 66.8428 16.3551 66.2402 15.8893L63.4702 13.7607C63.2954 13.6264 63.0812 13.5536 62.8608 13.5536H49.2002C48.5376 13.5536 48 13.0028 48 12.324V3.45879C48 2.9065 47.5523 2.45879 47 2.45879H46.6001C46.0478 2.45879 45.6001 2.9065 45.6001 3.45879V24.8481ZM26.3999 24.8481C26.3999 25.4003 26.8476 25.8481 27.3999 25.8481H42.2002C42.7525 25.8481 43.2002 25.4003 43.2002 24.8481V3.45879C43.2002 2.9065 42.7525 2.45879 42.2002 2.45879H27.3999C26.8476 2.45879 26.3999 2.9065 26.3999 3.45879V24.8481ZM10.9307 26.7685C11.4585 28.6995 13.4141 29.8266 15.2983 29.2859C17.1831 28.7451 18.2832 26.7415 17.7554 24.811C17.2275 22.88 15.272 21.7529 13.3877 22.2937C11.8369 22.7384 10.7739 24.1987 10.7998 25.8481C10.8052 26.1592 10.8496 26.4689 10.9307 26.7685ZM7.10058 23.8755C7.089 23.8961 7.07696 23.9163 7.06441 23.9362C7.03769 23.9785 7.0117 24.0214 6.98625 24.0645C6.94259 24.1384 6.89135 24.2074 6.83342 24.2707C6.83282 24.2714 6.83229 24.2721 6.83185 24.2729V24.2729C6.82849 24.2788 6.83073 24.2863 6.83678 24.2894L8.20208 24.9892C8.31872 25.049 8.47749 24.9774 8.49853 24.848V24.848C8.52685 24.6724 8.56445 24.5028 8.60742 24.3333C8.65918 24.1252 8.72168 23.92 8.79492 23.7184C8.85351 23.5574 8.91455 23.4013 8.98779 23.2462C9.07763 23.0531 9.17773 22.8645 9.28661 22.6819C9.37206 22.5383 9.45703 22.3982 9.55322 22.2617C9.67871 22.0906 9.81298 21.9265 9.95507 21.7699C10.062 21.6469 10.166 21.5238 10.2827 21.4117C10.4404 21.2626 10.606 21.1226 10.7783 20.9915C10.8984 20.8945 11.0186 20.7934 11.1538 20.7064C11.3452 20.5843 11.543 20.4742 11.7466 20.3757C11.8799 20.3081 12.0059 20.2306 12.145 20.1726C12.3804 20.08 12.6206 20.003 12.8652 19.9415C12.9853 19.9084 13.1055 19.8594 13.2251 19.8344C13.6094 19.7544 14 19.7128 14.3916 19.7118C17.373 19.7154 19.8456 21.9437 20.3123 24.8641C20.3994 25.409 20.8386 25.8591 21.3904 25.8591H23C23.5523 25.8591 24 25.4113 24 24.8591V3.45879C24 2.90651 23.5523 2.45879 23 2.45879H12.3324C11.9123 2.45879 11.537 2.72138 11.393 3.11605L8.3247 11.526C8.14892 12.0063 7.70068 12.324 7.20019 12.324H4.60009C4.04781 12.324 3.60009 12.7717 3.60009 13.324V16.2415C3.60009 16.7938 4.04781 17.2415 4.60009 17.2415H6C6.66308 17.2415 7.20019 17.7923 7.20019 18.4712V23.3888C7.20019 23.5564 7.16601 23.7224 7.10058 23.8755ZM2.3999 21.1596C2.3999 21.7119 2.84761 22.1596 3.3999 22.1596H3.7998C4.35208 22.1596 4.7998 21.7119 4.7998 21.1596V20.7008C4.7998 20.1485 4.35208 19.7008 3.7998 19.7008H3.3999C2.84761 19.7008 2.3999 20.1485 2.3999 20.7008V21.1596Z" fill="url(#paint3_radial_819_1256)" fill-opacity="0.4"/>
<defs>
<radialGradient id="paint0_radial_819_1256" cx="0" cy="0" r="1" gradientUnits="userSpaceOnUse" gradientTransform="translate(34.9463 -1.45455) rotate(90) scale(26.5455 34.1337)">
<stop stop-color="white"/>
<stop offset="0.0001" stop-color="white"/>
<stop offset="1" stop-color="white" stop-opacity="0"/>
</radialGradient>
<radialGradient id="paint1_radial_819_1256" cx="0" cy="0" r="1" gradientUnits="userSpaceOnUse" gradientTransform="translate(34.9463 -1.45455) rotate(90) scale(26.5455 34.1337)">
<stop stop-color="white"/>
<stop offset="0.0001" stop-color="white"/>
<stop offset="1" stop-color="white" stop-opacity="0"/>
</radialGradient>
<radialGradient id="paint2_radial_819_1256" cx="0" cy="0" r="1" gradientUnits="userSpaceOnUse" gradientTransform="translate(34.9463 -1.45455) rotate(90) scale(26.5455 34.1337)">
<stop stop-color="white"/>
<stop offset="0.0001" stop-color="white"/>
<stop offset="1" stop-color="white" stop-opacity="0"/>
</radialGradient>
<radialGradient id="paint3_radial_819_1256" cx="0" cy="0" r="1" gradientUnits="userSpaceOnUse" gradientTransform="translate(34.9463 -1.45455) rotate(90) scale(26.5455 34.1337)">
<stop stop-color="white"/>
<stop offset="0.0001" stop-color="white"/>
<stop offset="1" stop-color="white" stop-opacity="0"/>
</radialGradient>
</defs>
</svg>
