<svg width="72" height="54" viewBox="0 0 72 54" fill="none" xmlns="http://www.w3.org/2000/svg">
<path d="M37.1997 40.5174C37.7519 40.526 38.1996 40.0814 38.1996 39.5291V39.2268C38.1996 38.6958 37.7834 38.2775 37.2542 38.2332C37.1929 38.2281 37.1318 38.2221 37.0708 38.2149C35.1204 37.9858 33.8374 36.4641 34.0133 34.5184C34.2617 31.7701 34.5588 29.0261 34.8326 26.2801C35.0284 24.3159 35.2327 22.3523 35.3981 20.3855C35.4089 20.0987 35.314 19.818 35.1315 19.5966C32.9315 17.1204 30.7099 14.6634 28.4929 12.2023C27.9493 11.5989 27.2875 11.1692 26.4781 11.0757C22.1584 10.5769 17.8365 10.097 13.4353 9.60336C12.8969 9.54298 12.4075 9.92219 12.3305 10.4585C12.2611 10.9426 12.1938 11.4183 12.1344 11.8951C11.5729 16.4017 11.0184 20.9091 10.4709 25.4174C10.4392 25.6818 10.5783 25.9706 10.6553 26.2431C10.8429 26.9073 11.1646 27.5605 11.2083 28.2327C11.2963 29.5862 11.2305 30.9495 11.2372 32.3086C11.2404 32.9569 11.0716 33.4692 10.381 33.7083C10.2511 33.7533 10.1309 34.0298 10.127 34.2022C10.1037 35.2423 10.1249 36.2833 10.1102 37.3238C10.1053 37.6685 10.2445 37.813 10.5756 37.8702C11.223 37.9822 11.8682 38.1123 12.5074 38.2643C13.2024 38.4297 13.5791 38.9519 13.4694 39.5429C13.3466 40.2042 12.7759 40.5633 12.024 40.4322C11.7929 40.3919 11.5625 40.3481 11.3234 40.3009C10.7055 40.1791 10.1226 40.6485 10.127 41.2783C10.1289 41.5478 10.1352 41.8147 10.151 42.0811C10.1572 42.1846 10.418 42.3204 10.5805 42.3587C11.1991 42.5048 11.8272 42.6102 12.449 42.7437C13.1755 42.8997 13.5824 43.4269 13.468 44.043C13.3411 44.727 12.7331 45.0865 11.9674 44.9329C11.7519 44.8897 11.5363 44.8469 11.3146 44.8031C10.6965 44.681 10.1067 45.1546 10.1125 45.7847C10.1146 46.0215 10.1227 46.2523 10.1431 46.482C10.1561 46.6287 10.4272 46.8234 10.6118 46.8708C11.1856 47.018 11.7755 47.1017 12.3579 47.2163C13.1689 47.376 13.6028 47.9143 13.4599 48.5747C13.3135 49.2511 12.7332 49.5809 11.9281 49.4312C11.697 49.3883 11.4664 49.3426 11.2347 49.2956C10.6677 49.1804 10.1812 49.5735 10.0918 50.1452C10.0661 50.3094 10.0259 50.4625 9.95625 50.6007C9.61074 51.2867 9.12917 51.9122 8.65033 52.5202C8.30731 52.9259 7.93084 53.302 7.52487 53.6446C7.04389 54.0791 6.44588 54.1005 5.97703 53.6601C5.32776 53.0502 4.69085 52.4217 4.10304 51.7533C3.44875 51.0093 3.33853 50.0809 3.34885 49.1229C3.36399 47.7177 3.35204 47.7175 1.97768 47.4284C1.62449 47.3542 1.26776 47.2938 0.918518 47.2042C0.302589 47.0462 -0.0885071 46.4813 0.0190938 45.932C0.0798051 45.6369 0.253287 45.3773 0.502596 45.2082C0.751904 45.0392 1.05734 44.9742 1.35388 45.027C1.61784 45.067 1.88058 45.1151 2.15153 45.168C2.76832 45.2884 3.35058 44.8219 3.34565 44.1935C3.34361 43.9337 3.33637 43.6775 3.31797 43.4222C3.30951 43.3048 3.0276 43.1549 2.84959 43.1114C2.25235 42.9655 1.64378 42.8667 1.04187 42.7389C0.363859 42.5949 -0.0620935 42.0745 0.0111209 41.4973C0.0912644 40.8655 0.63217 40.4567 1.3557 40.5445C1.62859 40.5776 1.9001 40.6221 2.17703 40.6722C2.78937 40.7828 3.36163 40.3201 3.35633 39.6979C3.35472 39.5084 3.34993 39.3223 3.33916 39.137C3.33545 39.0731 3.3271 39.0088 3.30058 38.9506C3.27556 38.8957 3.24203 38.8448 3.20106 38.8C3.13838 38.7314 3.06012 38.6789 2.97288 38.6469C2.37862 38.4911 1.76977 38.391 1.16625 38.2707C0.366644 38.1113 -0.103272 37.5644 0.0193272 36.9353C0.15033 36.263 0.712433 35.9377 1.54059 36.0716C1.74998 36.1054 1.95896 36.1417 2.17158 36.18C2.78514 36.2904 3.35246 35.8226 3.35266 35.1992C3.35279 34.8065 3.3491 34.4239 3.33367 34.0418C3.32847 33.913 3.14889 33.7378 3.00942 33.6773C2.77784 33.592 2.57948 33.435 2.44311 33.2293C2.30673 33.0236 2.23944 32.7798 2.25099 32.5333C2.24458 31.0042 2.20709 29.4731 2.27741 27.9471C2.30259 27.4007 2.61216 26.8701 2.77081 26.3262C2.87282 25.9764 3.04244 25.6026 3.00101 25.2615C2.45599 20.7741 1.87671 16.2909 1.31068 11.8061C1.0901 10.0584 0.85823 8.31163 0.67261 6.56009C0.419229 4.16913 1.85038 1.6912 4.05982 0.620641C6.33399 -0.481277 9.07581 -0.0992502 10.8614 1.63413C11.0619 1.84357 11.3051 2.00746 11.5744 2.11471C11.8438 2.22196 12.1331 2.27005 12.4227 2.25574C18.2417 2.23213 24.0611 2.27332 29.8798 2.22579C32.0733 2.20788 33.8088 2.94386 35.2356 4.62995C37.6218 7.44986 40.0968 10.1945 42.5161 12.9868C42.6417 13.1532 42.8061 13.2863 42.995 13.3747C43.1839 13.463 43.3914 13.5038 43.5997 13.4936C45.5957 13.4699 47.5922 13.4787 49.5886 13.4852C51.5839 13.4917 52.8315 14.483 53.2398 16.4304C53.7272 18.7553 54.1842 21.0868 54.6431 23.4176C54.8485 24.461 55.1714 24.7498 56.2242 24.7505C58.9214 24.7524 61.6186 24.748 64.3158 24.7526C66.2166 24.7559 67.481 25.7849 67.8638 27.6527C68.2938 29.7514 68.7192 31.8512 69.1227 33.955C69.5964 36.4248 68.0979 38.2248 65.5789 38.2395C64.878 38.2437 64.1769 38.2521 63.4764 38.2367C63.1258 38.2289 63.0007 38.3589 62.9788 38.7153C62.8686 40.5082 62.8602 40.5412 64.6494 40.5011C67.6775 40.4333 70.0032 41.6182 71.3282 44.3742C73.4085 48.7013 70.4203 53.6618 65.6251 53.954C65.2862 53.9746 64.9463 53.9898 64.6069 53.9898C55.2623 53.9918 45.9178 53.9951 36.5732 54C34.3547 54.0048 32.411 53.4004 30.9427 51.6825C29.1367 49.5696 28.7303 47.1503 29.8133 44.6077C30.8846 42.0927 32.8754 40.7097 35.6336 40.5373C36.1513 40.5049 36.6714 40.5093 37.1997 40.5174ZM51.5846 36.0005C55.4695 36.0005 59.3545 36.0005 63.2395 36.0003C64.0886 36.0002 64.9386 36.0202 65.7867 35.9889C66.659 35.9567 67.1108 35.3902 66.9485 34.5493C66.5429 32.4465 66.1268 30.3457 65.7002 28.2469C65.4875 27.2086 65.1897 26.9842 64.134 26.9831C61.4378 26.9803 58.7417 26.9888 56.0456 26.9793C54.1585 26.9727 52.9056 25.9796 52.5169 24.1358C52.0226 21.7916 51.5689 19.4387 51.1066 17.0878C50.8935 16.0042 50.5802 15.728 49.4796 15.7274C46.1466 15.7255 42.8136 15.7258 39.4806 15.7284C38.4858 15.7296 38.1245 16.0265 38.015 17.0048C37.838 18.5862 37.701 20.1721 37.543 21.7558C37.1278 25.9149 36.7016 30.0729 36.2987 34.2332C36.1586 35.6794 36.481 35.9998 37.9553 36.0001C42.4984 36.0011 47.0415 36.0012 51.5846 36.0005ZM50.6423 42.7419C45.7174 42.7419 40.7923 42.7184 35.8676 42.7545C34.1071 42.7674 32.7806 43.6519 31.9879 45.2135C31.1942 46.7773 31.3093 48.3448 32.3017 49.7982C33.2861 51.2399 34.7237 51.7576 36.4254 51.7556C45.8931 51.7443 55.3609 51.7418 64.8287 51.748C65.1257 51.7464 65.4225 51.73 65.7179 51.6986C66.8592 51.5806 67.912 51.03 68.6599 50.1598C69.4077 49.2897 69.7939 48.1661 69.7391 47.0201C69.6843 45.874 69.1926 44.7924 68.365 43.9977C67.5375 43.2029 66.437 42.7553 65.2896 42.7467C60.4073 42.7254 55.5248 42.7405 50.6423 42.7419ZM39.1943 13.4805C39.4851 13.4562 39.6594 13.1055 39.4672 12.886C37.4252 10.555 35.3693 8.23588 33.3449 5.8896C32.5098 4.92171 31.5097 4.472 30.2244 4.47762C24.5986 4.50223 18.9726 4.4877 13.3468 4.48965C13.0111 4.48976 12.7497 4.78438 12.7497 5.12001V6.57418C12.7497 6.95826 13.0166 7.31854 13.3984 7.36071C17.4471 7.80797 21.492 8.29675 25.5471 8.67674C27.5996 8.86908 29.2789 9.58861 30.6242 11.1983C32.0933 12.9561 33.6753 14.6195 35.2114 16.3209C35.4137 16.545 35.7955 16.4059 35.8784 16.1157C36.3585 14.4343 37.4846 13.6232 39.1943 13.4805ZM7.40108 24.7261C7.8951 24.7261 8.32281 24.3665 8.39151 23.8773C8.39932 23.8217 8.40676 23.7662 8.41376 23.7106C8.65742 21.7749 8.89897 19.839 9.13842 17.9028C9.61071 14.1146 10.1043 10.3289 10.5458 6.53713C10.735 4.91206 10.0886 3.60736 8.67655 2.77728C7.36446 2.00594 5.98443 2.0246 4.69517 2.84371C3.31096 3.72315 2.74125 5.04306 2.94002 6.66326C3.54942 11.6307 4.16869 16.597 4.79782 21.5621C4.8931 22.3234 4.99149 23.0843 5.09073 23.8533C5.15512 24.3523 5.57993 24.7261 6.08304 24.7261H7.40108ZM50.6162 38.2404H41.9568C40.4816 38.2404 40.5151 38.2414 40.4708 39.706C40.4511 40.3553 40.6446 40.5258 41.29 40.5231C47.2538 40.4985 53.2179 40.5086 59.1818 40.5086C60.7649 40.5086 60.7408 40.5083 60.7618 38.9423C60.7694 38.3798 60.5987 38.2235 60.0397 38.2281C56.8987 38.2537 53.7574 38.2404 50.6162 38.2404ZM6.74625 31.4962C7.33996 31.4962 7.93632 31.5271 8.52569 31.4766C8.69353 31.4622 8.97098 31.2159 8.9768 31.0673C9.01499 30.0937 9.02001 29.1165 8.98079 28.1427C8.95097 27.4022 8.53859 27.0175 7.80575 26.9915C7.10691 26.9667 6.40597 26.9676 5.70698 26.9896C4.9264 27.0142 4.49466 27.4479 4.4765 28.2331C4.45542 29.1444 4.49019 30.0571 4.46202 30.9681C4.44842 31.408 4.63835 31.5148 5.0289 31.5016C5.60076 31.4824 6.17374 31.4967 6.74625 31.4962ZM6.67745 37.0845C7.29523 37.2105 7.87377 36.7264 7.87377 36.0959V35.364C7.87377 33.5967 7.87435 33.6059 6.07 33.7195C5.71247 33.742 5.58896 33.8727 5.59575 34.2184C5.61028 34.9578 5.57906 35.6987 5.61603 36.4365C5.62456 36.6067 5.80294 36.8709 5.95333 36.9131C6.18892 36.9793 6.42782 37.0336 6.67745 37.0845ZM6.65385 48.3623C6.12028 48.2624 5.5787 48.6125 5.56742 49.1552C5.55254 49.8707 5.76852 50.3786 6.25793 50.8081C6.54666 51.0615 6.98474 51.0523 7.26178 50.7861C7.7359 50.3307 7.98701 49.7604 7.86045 49.0094C7.8318 48.8394 7.68198 48.5916 7.54252 48.5554C7.24927 48.4792 6.9521 48.4182 6.65385 48.3623ZM6.78789 43.8913C6.17323 43.7747 5.59854 44.2527 5.60126 44.8784C5.60227 45.1107 5.60563 45.3359 5.61388 45.5608C5.6182 45.6786 5.72936 45.8713 5.82399 45.8942C6.10135 45.9613 6.38032 46.0218 6.66731 46.0808C7.28625 46.2081 7.87362 45.73 7.86994 45.0981C7.86872 44.8879 7.86496 44.6826 7.85627 44.4781C7.85385 44.4212 7.84843 44.3637 7.8263 44.3113C7.80724 44.2661 7.78126 44.224 7.74916 44.1865C7.71422 44.1457 7.67277 44.1112 7.62663 44.0844C7.58487 44.0601 7.53778 44.0472 7.49068 44.0364C7.26014 43.9838 7.02762 43.9368 6.78789 43.8913ZM6.79328 39.3984C6.17669 39.277 5.59508 39.7555 5.59876 40.3839C5.6001 40.6121 5.60452 40.8335 5.61528 41.0545C5.62758 41.1309 5.65832 41.2032 5.70485 41.2651C5.73068 41.2994 5.76093 41.33 5.79471 41.356C5.8489 41.3977 5.91583 41.4177 5.98246 41.4331C6.21071 41.4861 6.44089 41.5339 6.67672 41.5801C7.29291 41.7008 7.87348 41.2222 7.8697 40.5943C7.86846 40.3884 7.86482 40.1866 7.85654 39.9854C7.85407 39.9254 7.8483 39.8646 7.82372 39.8097C7.80497 39.7679 7.78012 39.7289 7.74984 39.6941C7.69972 39.6364 7.63625 39.5919 7.56497 39.5643C7.31189 39.5038 7.05713 39.4504 6.79328 39.3984Z" fill="#FF4C0C"/>
<path d="M37.1997 40.5174C37.7519 40.526 38.1996 40.0814 38.1996 39.5291V39.2268C38.1996 38.6958 37.7834 38.2775 37.2542 38.2332C37.1929 38.2281 37.1318 38.2221 37.0708 38.2149C35.1204 37.9858 33.8374 36.4641 34.0133 34.5184C34.2617 31.7701 34.5588 29.0261 34.8326 26.2801C35.0284 24.3159 35.2327 22.3523 35.3981 20.3855C35.4089 20.0987 35.314 19.818 35.1315 19.5966C32.9315 17.1204 30.7099 14.6634 28.4929 12.2023C27.9493 11.5989 27.2875 11.1692 26.4781 11.0757C22.1584 10.5769 17.8365 10.097 13.4353 9.60336C12.8969 9.54298 12.4075 9.92219 12.3305 10.4585C12.2611 10.9426 12.1938 11.4183 12.1344 11.8951C11.5729 16.4017 11.0184 20.9091 10.4709 25.4174C10.4392 25.6818 10.5783 25.9706 10.6553 26.2431C10.8429 26.9073 11.1646 27.5605 11.2083 28.2327C11.2963 29.5862 11.2305 30.9495 11.2372 32.3086C11.2404 32.9569 11.0716 33.4692 10.381 33.7083C10.2511 33.7533 10.1309 34.0298 10.127 34.2022C10.1037 35.2423 10.1249 36.2833 10.1102 37.3238C10.1053 37.6685 10.2445 37.813 10.5756 37.8702C11.223 37.9822 11.8682 38.1123 12.5074 38.2643C13.2024 38.4297 13.5791 38.9519 13.4694 39.5429C13.3466 40.2042 12.7759 40.5633 12.024 40.4322C11.7929 40.3919 11.5625 40.3481 11.3234 40.3009C10.7055 40.1791 10.1226 40.6485 10.127 41.2783C10.1289 41.5478 10.1352 41.8147 10.151 42.0811C10.1572 42.1846 10.418 42.3204 10.5805 42.3587C11.1991 42.5048 11.8272 42.6102 12.449 42.7437C13.1755 42.8997 13.5824 43.4269 13.468 44.043C13.3411 44.727 12.7331 45.0865 11.9674 44.9329C11.7519 44.8897 11.5363 44.8469 11.3146 44.8031C10.6965 44.681 10.1067 45.1546 10.1125 45.7847C10.1146 46.0215 10.1227 46.2523 10.1431 46.482C10.1561 46.6287 10.4272 46.8234 10.6118 46.8708C11.1856 47.018 11.7755 47.1017 12.3579 47.2163C13.1689 47.376 13.6028 47.9143 13.4599 48.5747C13.3135 49.2511 12.7332 49.5809 11.9281 49.4312C11.697 49.3883 11.4664 49.3426 11.2347 49.2956C10.6677 49.1804 10.1812 49.5735 10.0918 50.1452C10.0661 50.3094 10.0259 50.4625 9.95625 50.6007C9.61074 51.2867 9.12917 51.9122 8.65033 52.5202C8.30731 52.9259 7.93084 53.302 7.52487 53.6446C7.04389 54.0791 6.44588 54.1005 5.97703 53.6601C5.32776 53.0502 4.69085 52.4217 4.10304 51.7533C3.44875 51.0093 3.33853 50.0809 3.34885 49.1229C3.36399 47.7177 3.35204 47.7175 1.97768 47.4284C1.62449 47.3542 1.26776 47.2938 0.918518 47.2042C0.302589 47.0462 -0.0885071 46.4813 0.0190938 45.932C0.0798051 45.6369 0.253287 45.3773 0.502596 45.2082C0.751904 45.0392 1.05734 44.9742 1.35388 45.027C1.61784 45.067 1.88058 45.1151 2.15153 45.168C2.76832 45.2884 3.35058 44.8219 3.34565 44.1935C3.34361 43.9337 3.33637 43.6775 3.31797 43.4222C3.30951 43.3048 3.0276 43.1549 2.84959 43.1114C2.25235 42.9655 1.64378 42.8667 1.04187 42.7389C0.363859 42.5949 -0.0620935 42.0745 0.0111209 41.4973C0.0912644 40.8655 0.63217 40.4567 1.3557 40.5445C1.62859 40.5776 1.9001 40.6221 2.17703 40.6722C2.78937 40.7828 3.36163 40.3201 3.35633 39.6979C3.35472 39.5084 3.34993 39.3223 3.33916 39.137C3.33545 39.0731 3.3271 39.0088 3.30058 38.9506C3.27556 38.8957 3.24203 38.8448 3.20106 38.8C3.13838 38.7314 3.06012 38.6789 2.97288 38.6469C2.37862 38.4911 1.76977 38.391 1.16625 38.2707C0.366644 38.1113 -0.103272 37.5644 0.0193272 36.9353C0.15033 36.263 0.712433 35.9377 1.54059 36.0716C1.74998 36.1054 1.95896 36.1417 2.17158 36.18C2.78514 36.2904 3.35246 35.8226 3.35266 35.1992C3.35279 34.8065 3.3491 34.4239 3.33367 34.0418C3.32847 33.913 3.14889 33.7378 3.00942 33.6773C2.77784 33.592 2.57948 33.435 2.44311 33.2293C2.30673 33.0236 2.23944 32.7798 2.25099 32.5333C2.24458 31.0042 2.20709 29.4731 2.27741 27.9471C2.30259 27.4007 2.61216 26.8701 2.77081 26.3262C2.87282 25.9764 3.04244 25.6026 3.00101 25.2615C2.45599 20.7741 1.87671 16.2909 1.31068 11.8061C1.0901 10.0584 0.85823 8.31163 0.67261 6.56009C0.419229 4.16913 1.85038 1.6912 4.05982 0.620641C6.33399 -0.481277 9.07581 -0.0992502 10.8614 1.63413C11.0619 1.84357 11.3051 2.00746 11.5744 2.11471C11.8438 2.22196 12.1331 2.27005 12.4227 2.25574C18.2417 2.23213 24.0611 2.27332 29.8798 2.22579C32.0733 2.20788 33.8088 2.94386 35.2356 4.62995C37.6218 7.44986 40.0968 10.1945 42.5161 12.9868C42.6417 13.1532 42.8061 13.2863 42.995 13.3747C43.1839 13.463 43.3914 13.5038 43.5997 13.4936C45.5957 13.4699 47.5922 13.4787 49.5886 13.4852C51.5839 13.4917 52.8315 14.483 53.2398 16.4304C53.7272 18.7553 54.1842 21.0868 54.6431 23.4176C54.8485 24.461 55.1714 24.7498 56.2242 24.7505C58.9214 24.7524 61.6186 24.748 64.3158 24.7526C66.2166 24.7559 67.481 25.7849 67.8638 27.6527C68.2938 29.7514 68.7192 31.8512 69.1227 33.955C69.5964 36.4248 68.0979 38.2248 65.5789 38.2395C64.878 38.2437 64.1769 38.2521 63.4764 38.2367C63.1258 38.2289 63.0007 38.3589 62.9788 38.7153C62.8686 40.5082 62.8602 40.5412 64.6494 40.5011C67.6775 40.4333 70.0032 41.6182 71.3282 44.3742C73.4085 48.7013 70.4203 53.6618 65.6251 53.954C65.2862 53.9746 64.9463 53.9898 64.6069 53.9898C55.2623 53.9918 45.9178 53.9951 36.5732 54C34.3547 54.0048 32.411 53.4004 30.9427 51.6825C29.1367 49.5696 28.7303 47.1503 29.8133 44.6077C30.8846 42.0927 32.8754 40.7097 35.6336 40.5373C36.1513 40.5049 36.6714 40.5093 37.1997 40.5174ZM51.5846 36.0005C55.4695 36.0005 59.3545 36.0005 63.2395 36.0003C64.0886 36.0002 64.9386 36.0202 65.7867 35.9889C66.659 35.9567 67.1108 35.3902 66.9485 34.5493C66.5429 32.4465 66.1268 30.3457 65.7002 28.2469C65.4875 27.2086 65.1897 26.9842 64.134 26.9831C61.4378 26.9803 58.7417 26.9888 56.0456 26.9793C54.1585 26.9727 52.9056 25.9796 52.5169 24.1358C52.0226 21.7916 51.5689 19.4387 51.1066 17.0878C50.8935 16.0042 50.5802 15.728 49.4796 15.7274C46.1466 15.7255 42.8136 15.7258 39.4806 15.7284C38.4858 15.7296 38.1245 16.0265 38.015 17.0048C37.838 18.5862 37.701 20.1721 37.543 21.7558C37.1278 25.9149 36.7016 30.0729 36.2987 34.2332C36.1586 35.6794 36.481 35.9998 37.9553 36.0001C42.4984 36.0011 47.0415 36.0012 51.5846 36.0005ZM50.6423 42.7419C45.7174 42.7419 40.7923 42.7184 35.8676 42.7545C34.1071 42.7674 32.7806 43.6519 31.9879 45.2135C31.1942 46.7773 31.3093 48.3448 32.3017 49.7982C33.2861 51.2399 34.7237 51.7576 36.4254 51.7556C45.8931 51.7443 55.3609 51.7418 64.8287 51.748C65.1257 51.7464 65.4225 51.73 65.7179 51.6986C66.8592 51.5806 67.912 51.03 68.6599 50.1598C69.4077 49.2897 69.7939 48.1661 69.7391 47.0201C69.6843 45.874 69.1926 44.7924 68.365 43.9977C67.5375 43.2029 66.437 42.7553 65.2896 42.7467C60.4073 42.7254 55.5248 42.7405 50.6423 42.7419ZM39.1943 13.4805C39.4851 13.4562 39.6594 13.1055 39.4672 12.886C37.4252 10.555 35.3693 8.23588 33.3449 5.8896C32.5098 4.92171 31.5097 4.472 30.2244 4.47762C24.5986 4.50223 18.9726 4.4877 13.3468 4.48965C13.0111 4.48976 12.7497 4.78438 12.7497 5.12001V6.57418C12.7497 6.95826 13.0166 7.31854 13.3984 7.36071C17.4471 7.80797 21.492 8.29675 25.5471 8.67674C27.5996 8.86908 29.2789 9.58861 30.6242 11.1983C32.0933 12.9561 33.6753 14.6195 35.2114 16.3209C35.4137 16.545 35.7955 16.4059 35.8784 16.1157C36.3585 14.4343 37.4846 13.6232 39.1943 13.4805ZM7.40108 24.7261C7.8951 24.7261 8.32281 24.3665 8.39151 23.8773C8.39932 23.8217 8.40676 23.7662 8.41376 23.7106C8.65742 21.7749 8.89897 19.839 9.13842 17.9028C9.61071 14.1146 10.1043 10.3289 10.5458 6.53713C10.735 4.91206 10.0886 3.60736 8.67655 2.77728C7.36446 2.00594 5.98443 2.0246 4.69517 2.84371C3.31096 3.72315 2.74125 5.04306 2.94002 6.66326C3.54942 11.6307 4.16869 16.597 4.79782 21.5621C4.8931 22.3234 4.99149 23.0843 5.09073 23.8533C5.15512 24.3523 5.57993 24.7261 6.08304 24.7261H7.40108ZM50.6162 38.2404H41.9568C40.4816 38.2404 40.5151 38.2414 40.4708 39.706C40.4511 40.3553 40.6446 40.5258 41.29 40.5231C47.2538 40.4985 53.2179 40.5086 59.1818 40.5086C60.7649 40.5086 60.7408 40.5083 60.7618 38.9423C60.7694 38.3798 60.5987 38.2235 60.0397 38.2281C56.8987 38.2537 53.7574 38.2404 50.6162 38.2404ZM6.74625 31.4962C7.33996 31.4962 7.93632 31.5271 8.52569 31.4766C8.69353 31.4622 8.97098 31.2159 8.9768 31.0673C9.01499 30.0937 9.02001 29.1165 8.98079 28.1427C8.95097 27.4022 8.53859 27.0175 7.80575 26.9915C7.10691 26.9667 6.40597 26.9676 5.70698 26.9896C4.9264 27.0142 4.49466 27.4479 4.4765 28.2331C4.45542 29.1444 4.49019 30.0571 4.46202 30.9681C4.44842 31.408 4.63835 31.5148 5.0289 31.5016C5.60076 31.4824 6.17374 31.4967 6.74625 31.4962ZM6.67745 37.0845C7.29523 37.2105 7.87377 36.7264 7.87377 36.0959V35.364C7.87377 33.5967 7.87435 33.6059 6.07 33.7195C5.71247 33.742 5.58896 33.8727 5.59575 34.2184C5.61028 34.9578 5.57906 35.6987 5.61603 36.4365C5.62456 36.6067 5.80294 36.8709 5.95333 36.9131C6.18892 36.9793 6.42782 37.0336 6.67745 37.0845ZM6.65385 48.3623C6.12028 48.2624 5.5787 48.6125 5.56742 49.1552C5.55254 49.8707 5.76852 50.3786 6.25793 50.8081C6.54666 51.0615 6.98474 51.0523 7.26178 50.7861C7.7359 50.3307 7.98701 49.7604 7.86045 49.0094C7.8318 48.8394 7.68198 48.5916 7.54252 48.5554C7.24927 48.4792 6.9521 48.4182 6.65385 48.3623ZM6.78789 43.8913C6.17323 43.7747 5.59854 44.2527 5.60126 44.8784C5.60227 45.1107 5.60563 45.3359 5.61388 45.5608C5.6182 45.6786 5.72936 45.8713 5.82399 45.8942C6.10135 45.9613 6.38032 46.0218 6.66731 46.0808C7.28625 46.2081 7.87362 45.73 7.86994 45.0981C7.86872 44.8879 7.86496 44.6826 7.85627 44.4781C7.85385 44.4212 7.84843 44.3637 7.8263 44.3113C7.80724 44.2661 7.78126 44.224 7.74916 44.1865C7.71422 44.1457 7.67277 44.1112 7.62663 44.0844C7.58487 44.0601 7.53778 44.0472 7.49068 44.0364C7.26014 43.9838 7.02762 43.9368 6.78789 43.8913ZM6.79328 39.3984C6.17669 39.277 5.59508 39.7555 5.59876 40.3839C5.6001 40.6121 5.60452 40.8335 5.61528 41.0545C5.62758 41.1309 5.65832 41.2032 5.70485 41.2651C5.73068 41.2994 5.76093 41.33 5.79471 41.356C5.8489 41.3977 5.91583 41.4177 5.98246 41.4331C6.21071 41.4861 6.44089 41.5339 6.67672 41.5801C7.29291 41.7008 7.87348 41.2222 7.8697 40.5943C7.86846 40.3884 7.86482 40.1866 7.85654 39.9854C7.85407 39.9254 7.8483 39.8646 7.82372 39.8097C7.80497 39.7679 7.78012 39.7289 7.74984 39.6941C7.69972 39.6364 7.63625 39.5919 7.56497 39.5643C7.31189 39.5038 7.05713 39.4504 6.79328 39.3984Z" fill="url(#paint0_radial_819_1258)" fill-opacity="0.4"/>
<path d="M40.6344 28.8615C40.6334 29.055 40.801 29.1978 40.9944 29.1978H48.0597C48.6784 29.1978 49.1487 28.6417 49.0459 28.0316C48.9782 27.6299 48.9111 27.2318 48.8437 26.8337C48.7976 26.5618 48.7306 26.2919 48.7056 26.0181C48.6452 25.3587 49.0178 24.8416 49.5948 24.7548C50.2363 24.6581 50.7503 24.9893 50.8996 25.679C51.1102 26.6525 51.2674 27.6377 51.4462 28.6181C51.5336 29.0975 51.6247 29.5764 51.7027 30.0574C51.8335 30.8638 51.385 31.4676 50.5633 31.4718C46.8487 31.4908 43.134 31.4909 39.4193 31.4721C38.603 31.468 38.1738 30.9181 38.2519 30.0628C38.5934 26.3229 38.9292 22.5824 39.2996 18.8453C39.4934 16.8903 39.5485 16.8714 41.5135 16.8714C43.6575 16.8714 45.8014 16.8717 47.9453 16.8722C49.0734 16.8733 49.3685 17.1297 49.5575 18.225C49.7161 19.1443 49.9002 20.0592 50.0524 20.9795C50.1895 21.8079 49.8468 22.3703 49.1697 22.4818C48.525 22.5879 48.0359 22.1967 47.8617 21.3969C47.7309 20.7967 47.6199 20.1909 47.5333 19.5829C47.4797 19.2072 47.2935 19.1009 46.9346 19.104C45.3427 19.1175 43.7502 19.1285 42.1588 19.0982C41.6666 19.0889 41.4841 19.2554 41.445 19.7323C41.2823 21.72 41.0953 23.7058 40.917 25.6923C40.8222 26.7486 40.7259 27.8049 40.6344 28.8615Z" fill="#FF4C0C"/>
<path d="M40.6344 28.8615C40.6334 29.055 40.801 29.1978 40.9944 29.1978H48.0597C48.6784 29.1978 49.1487 28.6417 49.0459 28.0316C48.9782 27.6299 48.9111 27.2318 48.8437 26.8337C48.7976 26.5618 48.7306 26.2919 48.7056 26.0181C48.6452 25.3587 49.0178 24.8416 49.5948 24.7548C50.2363 24.6581 50.7503 24.9893 50.8996 25.679C51.1102 26.6525 51.2674 27.6377 51.4462 28.6181C51.5336 29.0975 51.6247 29.5764 51.7027 30.0574C51.8335 30.8638 51.385 31.4676 50.5633 31.4718C46.8487 31.4908 43.134 31.4909 39.4193 31.4721C38.603 31.468 38.1738 30.9181 38.2519 30.0628C38.5934 26.3229 38.9292 22.5824 39.2996 18.8453C39.4934 16.8903 39.5485 16.8714 41.5135 16.8714C43.6575 16.8714 45.8014 16.8717 47.9453 16.8722C49.0734 16.8733 49.3685 17.1297 49.5575 18.225C49.7161 19.1443 49.9002 20.0592 50.0524 20.9795C50.1895 21.8079 49.8468 22.3703 49.1697 22.4818C48.525 22.5879 48.0359 22.1967 47.8617 21.3969C47.7309 20.7967 47.6199 20.1909 47.5333 19.5829C47.4797 19.2072 47.2935 19.1009 46.9346 19.104C45.3427 19.1175 43.7502 19.1285 42.1588 19.0982C41.6666 19.0889 41.4841 19.2554 41.445 19.7323C41.2823 21.72 41.0953 23.7058 40.917 25.6923C40.8222 26.7486 40.7259 27.8049 40.6344 28.8615Z" fill="url(#paint1_radial_819_1258)" fill-opacity="0.4"/>
<path d="M61.2854 48.3571C61.6431 48.3567 61.9331 48.067 61.9331 47.7092V47.1605C61.9331 46.6082 61.4854 46.1605 60.9331 46.1605H40.2975C39.7452 46.1605 39.2975 46.6082 39.2975 47.1605V47.6405C39.2975 48.0362 39.6183 48.357 40.014 48.357C44.5151 48.357 49.0162 48.3579 53.5173 48.3595C53.7707 48.3459 54.0248 48.3673 54.2724 48.4232C54.8279 48.5838 55.1279 48.9819 55.0894 49.5627C55.051 50.1431 54.7035 50.488 54.1302 50.5866C53.9618 50.6087 53.7918 50.6165 53.6221 50.6101C47.8259 50.611 42.0296 50.6103 36.2334 50.6079C34.4455 50.6056 33.2004 49.6987 32.7424 48.1091C32.1698 46.1215 33.6745 43.9992 35.7419 43.8798C35.869 43.8725 35.9966 43.8733 36.124 43.8733C45.7844 43.8729 55.4448 43.8734 65.1051 43.8746C66.7452 43.8751 68.0306 44.8061 68.4693 46.2824C69.0627 48.2792 67.7222 50.4364 65.6427 50.5501C63.2508 50.6808 60.8468 50.6081 58.4484 50.5887C58.3037 50.5871 58.1608 50.5567 58.028 50.4994C57.8952 50.4421 57.7751 50.3589 57.6746 50.2548C57.5742 50.1506 57.4955 50.0276 57.443 49.8928C57.3905 49.758 57.3654 49.6141 57.369 49.4694C57.3838 48.8707 57.8706 48.3856 58.5467 48.3661C59.4589 48.3399 60.3724 48.3579 61.2854 48.3571ZM65.1893 48.3485C65.3368 48.3563 65.4843 48.3349 65.6234 48.2856C65.7626 48.2363 65.8907 48.1601 66.0004 48.0612C66.1101 47.9624 66.1992 47.8429 66.2626 47.7096C66.326 47.5762 66.3626 47.4317 66.3701 47.2843C66.3776 46.9859 66.2674 46.6966 66.0632 46.4789C65.8591 46.2613 65.5774 46.1327 65.2792 46.1212C64.981 46.1096 64.6902 46.2159 64.4698 46.4172C64.2494 46.6184 64.1171 46.8983 64.1015 47.1963C64.0957 47.3438 64.1194 47.4909 64.1712 47.6291C64.223 47.7673 64.3018 47.8938 64.4031 48.0011C64.5045 48.1085 64.6262 48.1945 64.7612 48.2541C64.8962 48.3138 65.0417 48.3459 65.1893 48.3485ZM37.1006 47.2106C37.0951 46.9177 36.9739 46.6389 36.7635 46.4351C36.553 46.2313 36.2704 46.1191 35.9775 46.123C35.6846 46.127 35.4051 46.2467 35.2002 46.456C34.9952 46.6653 34.8815 46.9473 34.8838 47.2402C34.8839 47.387 34.9132 47.5322 34.9699 47.6676C35.0266 47.8029 35.1096 47.9257 35.2141 48.0287C35.3186 48.1317 35.4425 48.213 35.5787 48.2677C35.7148 48.3225 35.8605 48.3497 36.0072 48.3477C36.1539 48.3457 36.2988 48.3147 36.4334 48.2563C36.5681 48.1979 36.6898 48.1134 36.7915 48.0076C36.8932 47.9019 36.9729 47.7769 37.026 47.6401C37.079 47.5033 37.1044 47.3573 37.1006 47.2106Z" fill="#FF4C0C"/>
<path d="M61.2854 48.3571C61.6431 48.3567 61.9331 48.067 61.9331 47.7092V47.1605C61.9331 46.6082 61.4854 46.1605 60.9331 46.1605H40.2975C39.7452 46.1605 39.2975 46.6082 39.2975 47.1605V47.6405C39.2975 48.0362 39.6183 48.357 40.014 48.357C44.5151 48.357 49.0162 48.3579 53.5173 48.3595C53.7707 48.3459 54.0248 48.3673 54.2724 48.4232C54.8279 48.5838 55.1279 48.9819 55.0894 49.5627C55.051 50.1431 54.7035 50.488 54.1302 50.5866C53.9618 50.6087 53.7918 50.6165 53.6221 50.6101C47.8259 50.611 42.0296 50.6103 36.2334 50.6079C34.4455 50.6056 33.2004 49.6987 32.7424 48.1091C32.1698 46.1215 33.6745 43.9992 35.7419 43.8798C35.869 43.8725 35.9966 43.8733 36.124 43.8733C45.7844 43.8729 55.4448 43.8734 65.1051 43.8746C66.7452 43.8751 68.0306 44.8061 68.4693 46.2824C69.0627 48.2792 67.7222 50.4364 65.6427 50.5501C63.2508 50.6808 60.8468 50.6081 58.4484 50.5887C58.3037 50.5871 58.1608 50.5567 58.028 50.4994C57.8952 50.4421 57.7751 50.3589 57.6746 50.2548C57.5742 50.1506 57.4955 50.0276 57.443 49.8928C57.3905 49.758 57.3654 49.6141 57.369 49.4694C57.3838 48.8707 57.8706 48.3856 58.5467 48.3661C59.4589 48.3399 60.3724 48.3579 61.2854 48.3571ZM65.1893 48.3485C65.3368 48.3563 65.4843 48.3349 65.6234 48.2856C65.7626 48.2363 65.8907 48.1601 66.0004 48.0612C66.1101 47.9624 66.1992 47.8429 66.2626 47.7096C66.326 47.5762 66.3626 47.4317 66.3701 47.2843C66.3776 46.9859 66.2674 46.6966 66.0632 46.4789C65.8591 46.2613 65.5774 46.1327 65.2792 46.1212C64.981 46.1096 64.6902 46.2159 64.4698 46.4172C64.2494 46.6184 64.1171 46.8983 64.1015 47.1963C64.0957 47.3438 64.1194 47.4909 64.1712 47.6291C64.223 47.7673 64.3018 47.8938 64.4031 48.0011C64.5045 48.1085 64.6262 48.1945 64.7612 48.2541C64.8962 48.3138 65.0417 48.3459 65.1893 48.3485ZM37.1006 47.2106C37.0951 46.9177 36.9739 46.6389 36.7635 46.4351C36.553 46.2313 36.2704 46.1191 35.9775 46.123C35.6846 46.127 35.4051 46.2467 35.2002 46.456C34.9952 46.6653 34.8815 46.9473 34.8838 47.2402C34.8839 47.387 34.9132 47.5322 34.9699 47.6676C35.0266 47.8029 35.1096 47.9257 35.2141 48.0287C35.3186 48.1317 35.4425 48.213 35.5787 48.2677C35.7148 48.3225 35.8605 48.3497 36.0072 48.3477C36.1539 48.3457 36.2988 48.3147 36.4334 48.2563C36.5681 48.1979 36.6898 48.1134 36.7915 48.0076C36.8932 47.9019 36.9729 47.7769 37.026 47.6401C37.079 47.5033 37.1044 47.3573 37.1006 47.2106Z" fill="url(#paint2_radial_819_1258)" fill-opacity="0.4"/>
<path d="M6.72537 10.103C5.8336 10.1031 4.97829 9.74906 4.34748 9.11871C3.71667 8.48836 3.36198 7.63332 3.3614 6.74154C3.36081 5.84976 3.71437 4.99425 4.34435 4.36307C4.97434 3.7319 5.82917 3.37672 6.72094 3.37563C7.16395 3.37332 7.60306 3.45854 8.01305 3.62641C8.42303 3.79427 8.79582 4.04148 9.11 4.35382C9.42419 4.66616 9.67357 5.03749 9.84384 5.44649C10.0141 5.85548 10.1019 6.29408 10.1022 6.7371C10.1025 7.18013 10.0153 7.61884 9.84554 8.02806C9.6758 8.43728 9.42691 8.80894 9.11314 9.12169C8.79937 9.43445 8.42691 9.68214 8.01715 9.85055C7.60738 10.019 7.16838 10.1048 6.72537 10.103ZM7.85356 6.75576C7.85823 6.60816 7.8329 6.46115 7.77911 6.32363C7.72531 6.1861 7.64417 6.06093 7.5406 5.95567C7.43702 5.85041 7.31317 5.76727 7.17653 5.71127C7.03989 5.65527 6.8933 5.62757 6.74565 5.62986C6.59825 5.62444 6.45124 5.64839 6.31318 5.7003C6.17512 5.75221 6.04875 5.83106 5.94144 5.93225C5.83412 6.03344 5.748 6.15497 5.68808 6.28975C5.62815 6.42452 5.59562 6.56987 5.59238 6.71734C5.59002 7.01587 5.7059 7.30321 5.9147 7.51659C6.1235 7.72997 6.40825 7.85205 6.70677 7.85617C6.85455 7.86012 7.00166 7.8347 7.13955 7.78137C7.27743 7.72805 7.40336 7.64788 7.51004 7.54552C7.61671 7.44316 7.702 7.32065 7.76097 7.18508C7.81994 7.04951 7.85141 6.90358 7.85356 6.75576Z" fill="#FF4C0C"/>
<path d="M6.72537 10.103C5.8336 10.1031 4.97829 9.74906 4.34748 9.11871C3.71667 8.48836 3.36198 7.63332 3.3614 6.74154C3.36081 5.84976 3.71437 4.99425 4.34435 4.36307C4.97434 3.7319 5.82917 3.37672 6.72094 3.37563C7.16395 3.37332 7.60306 3.45854 8.01305 3.62641C8.42303 3.79427 8.79582 4.04148 9.11 4.35382C9.42419 4.66616 9.67357 5.03749 9.84384 5.44649C10.0141 5.85548 10.1019 6.29408 10.1022 6.7371C10.1025 7.18013 10.0153 7.61884 9.84554 8.02806C9.6758 8.43728 9.42691 8.80894 9.11314 9.12169C8.79937 9.43445 8.42691 9.68214 8.01715 9.85055C7.60738 10.019 7.16838 10.1048 6.72537 10.103ZM7.85356 6.75576C7.85823 6.60816 7.8329 6.46115 7.77911 6.32363C7.72531 6.1861 7.64417 6.06093 7.5406 5.95567C7.43702 5.85041 7.31317 5.76727 7.17653 5.71127C7.03989 5.65527 6.8933 5.62757 6.74565 5.62986C6.59825 5.62444 6.45124 5.64839 6.31318 5.7003C6.17512 5.75221 6.04875 5.83106 5.94144 5.93225C5.83412 6.03344 5.748 6.15497 5.68808 6.28975C5.62815 6.42452 5.59562 6.56987 5.59238 6.71734C5.59002 7.01587 5.7059 7.30321 5.9147 7.51659C6.1235 7.72997 6.40825 7.85205 6.70677 7.85617C6.85455 7.86012 7.00166 7.8347 7.13955 7.78137C7.27743 7.72805 7.40336 7.64788 7.51004 7.54552C7.61671 7.44316 7.702 7.32065 7.76097 7.18508C7.81994 7.04951 7.85141 6.90358 7.85356 6.75576Z" fill="url(#paint3_radial_819_1258)" fill-opacity="0.4"/>
<defs>
<radialGradient id="paint0_radial_819_1258" cx="0" cy="0" r="1" gradientUnits="userSpaceOnUse" gradientTransform="translate(37.0537 -2.45455) rotate(90) scale(44.7955 34.1337)">
<stop stop-color="white"/>
<stop offset="0.0001" stop-color="white"/>
<stop offset="1" stop-color="white" stop-opacity="0"/>
</radialGradient>
<radialGradient id="paint1_radial_819_1258" cx="0" cy="0" r="1" gradientUnits="userSpaceOnUse" gradientTransform="translate(37.0537 -2.45455) rotate(90) scale(44.7955 34.1337)">
<stop stop-color="white"/>
<stop offset="0.0001" stop-color="white"/>
<stop offset="1" stop-color="white" stop-opacity="0"/>
</radialGradient>
<radialGradient id="paint2_radial_819_1258" cx="0" cy="0" r="1" gradientUnits="userSpaceOnUse" gradientTransform="translate(37.0537 -2.45455) rotate(90) scale(44.7955 34.1337)">
<stop stop-color="white"/>
<stop offset="0.0001" stop-color="white"/>
<stop offset="1" stop-color="white" stop-opacity="0"/>
</radialGradient>
<radialGradient id="paint3_radial_819_1258" cx="0" cy="0" r="1" gradientUnits="userSpaceOnUse" gradientTransform="translate(37.0537 -2.45455) rotate(90) scale(44.7955 34.1337)">
<stop stop-color="white"/>
<stop offset="0.0001" stop-color="white"/>
<stop offset="1" stop-color="white" stop-opacity="0"/>
</radialGradient>
</defs>
</svg>
