<svg width="54" height="50" viewBox="0 0 54 50" fill="none" xmlns="http://www.w3.org/2000/svg">
<path d="M21.3831 40.1627C20.918 39.751 20.1891 39.7576 19.72 40.1647C16.5498 42.9157 11.1295 42.8267 8.04034 39.8069C7.76723 39.5399 7.30799 39.5631 7.0556 39.8498V39.8498C5.45381 41.4558 3.475 42.1473 1.22483 42.1485C0.436387 42.149 0.0246743 41.7395 0.00945049 40.9457C-0.00828006 40.0211 0.00437941 39.096 0.00437288 38.1712C0.0042979 28.299 0.00488988 18.4267 0.00614872 8.55446C0.00554356 8.25383 0.0203229 7.95337 0.0504301 7.65421C0.116017 7.01788 0.523933 6.72394 1.1306 6.65098C1.261 6.64132 1.39186 6.63943 1.52249 6.6453C6.88243 6.64511 12.2424 6.64524 17.6023 6.64569C18.7443 6.64594 19.1331 7.02614 19.1337 8.15625C19.1363 13.0601 19.2035 17.9653 19.1074 22.8673C19.0554 25.5227 20.1325 27.601 21.9052 29.4326C22.9659 30.52 24.2534 31.367 25.6784 31.9149C26.5197 32.2458 27.3834 32.3159 28.2192 31.9439C31.0903 30.6658 33.2522 28.6594 34.4426 25.7519C34.7182 25.0307 34.8564 24.2654 34.8503 23.4946C34.8849 18.4189 34.8678 13.3429 34.8686 8.26693C34.8688 6.9846 35.207 6.64547 36.4828 6.64535C41.7991 6.64484 47.1155 6.64491 52.4319 6.64555C53.6156 6.64576 53.9951 7.00301 53.9957 8.18405C54.001 18.9596 54.0014 29.7352 53.9968 40.5108C53.9961 41.8787 53.6672 42.1914 52.2941 42.1345C50.2609 42.0502 48.4793 41.3538 47.0185 39.9255V39.9255C46.6974 39.6116 46.1813 39.6334 45.8563 39.9433C42.822 42.8365 37.3911 42.895 34.2712 40.1831C33.8019 39.7752 33.0719 39.764 32.6048 40.1743C31.0503 41.5396 29.1621 42.1614 26.9875 42.1573C24.8178 42.1531 22.9304 41.5325 21.3831 40.1627ZM2.29749 38.6499C2.29749 39.2696 2.85953 39.7439 3.44317 39.5355C4.65363 39.1033 5.72254 38.3361 6.51514 37.3145C7.2694 36.3724 7.95452 36.3754 8.70581 37.3406C9.34075 38.157 10.1583 38.8175 11.0946 39.2703C12.031 39.7231 13.0607 39.9561 14.1033 39.951C15.146 39.946 16.1733 39.703 17.1051 39.241C18.0368 38.7791 18.8478 38.1108 19.4745 37.2882C20.1576 36.3936 20.8909 36.3887 21.5877 37.2743C24.398 40.8458 29.5853 40.8572 32.3956 37.2981C33.1202 36.3805 33.8412 36.3861 34.5495 37.315C37.2109 40.8052 42.5904 40.8309 45.2784 37.3663C46.0517 36.3695 46.7272 36.3733 47.5128 37.3497C48.3009 38.3533 49.3569 39.1077 50.551 39.5358C51.1347 39.7451 51.6974 39.2707 51.6974 38.6505V9.89814C51.6974 9.34585 51.2497 8.89813 50.6974 8.89813H37.9397C37.4925 8.89813 37.13 9.26061 37.13 9.70775V9.70775C37.13 14.2252 37.1433 18.7426 37.1177 23.2599C37.1131 24.0682 37.0778 24.916 36.8352 25.6767C35.5356 29.7524 32.7081 32.4579 28.7836 34.0913C27.7611 34.5036 26.6236 34.5442 25.5737 34.2058C21.1619 32.8677 16.7033 28.5885 16.8491 23.0886C16.9675 18.6173 16.8731 14.1405 16.8731 9.66612V9.66612C16.8731 9.24176 16.5291 8.89774 16.1047 8.89774H3.29749C2.74521 8.89774 2.29749 9.34545 2.29749 9.89774V38.6499Z" fill="#FF4C0C"/>
<path d="M21.3831 40.1627C20.918 39.751 20.1891 39.7576 19.72 40.1647C16.5498 42.9157 11.1295 42.8267 8.04034 39.8069C7.76723 39.5399 7.30799 39.5631 7.0556 39.8498V39.8498C5.45381 41.4558 3.475 42.1473 1.22483 42.1485C0.436387 42.149 0.0246743 41.7395 0.00945049 40.9457C-0.00828006 40.0211 0.00437941 39.096 0.00437288 38.1712C0.0042979 28.299 0.00488988 18.4267 0.00614872 8.55446C0.00554356 8.25383 0.0203229 7.95337 0.0504301 7.65421C0.116017 7.01788 0.523933 6.72394 1.1306 6.65098C1.261 6.64132 1.39186 6.63943 1.52249 6.6453C6.88243 6.64511 12.2424 6.64524 17.6023 6.64569C18.7443 6.64594 19.1331 7.02614 19.1337 8.15625C19.1363 13.0601 19.2035 17.9653 19.1074 22.8673C19.0554 25.5227 20.1325 27.601 21.9052 29.4326C22.9659 30.52 24.2534 31.367 25.6784 31.9149C26.5197 32.2458 27.3834 32.3159 28.2192 31.9439C31.0903 30.6658 33.2522 28.6594 34.4426 25.7519C34.7182 25.0307 34.8564 24.2654 34.8503 23.4946C34.8849 18.4189 34.8678 13.3429 34.8686 8.26693C34.8688 6.9846 35.207 6.64547 36.4828 6.64535C41.7991 6.64484 47.1155 6.64491 52.4319 6.64555C53.6156 6.64576 53.9951 7.00301 53.9957 8.18405C54.001 18.9596 54.0014 29.7352 53.9968 40.5108C53.9961 41.8787 53.6672 42.1914 52.2941 42.1345C50.2609 42.0502 48.4793 41.3538 47.0185 39.9255V39.9255C46.6974 39.6116 46.1813 39.6334 45.8563 39.9433C42.822 42.8365 37.3911 42.895 34.2712 40.1831C33.8019 39.7752 33.0719 39.764 32.6048 40.1743C31.0503 41.5396 29.1621 42.1614 26.9875 42.1573C24.8178 42.1531 22.9304 41.5325 21.3831 40.1627ZM2.29749 38.6499C2.29749 39.2696 2.85953 39.7439 3.44317 39.5355C4.65363 39.1033 5.72254 38.3361 6.51514 37.3145C7.2694 36.3724 7.95452 36.3754 8.70581 37.3406C9.34075 38.157 10.1583 38.8175 11.0946 39.2703C12.031 39.7231 13.0607 39.9561 14.1033 39.951C15.146 39.946 16.1733 39.703 17.1051 39.241C18.0368 38.7791 18.8478 38.1108 19.4745 37.2882C20.1576 36.3936 20.8909 36.3887 21.5877 37.2743C24.398 40.8458 29.5853 40.8572 32.3956 37.2981C33.1202 36.3805 33.8412 36.3861 34.5495 37.315C37.2109 40.8052 42.5904 40.8309 45.2784 37.3663C46.0517 36.3695 46.7272 36.3733 47.5128 37.3497C48.3009 38.3533 49.3569 39.1077 50.551 39.5358C51.1347 39.7451 51.6974 39.2707 51.6974 38.6505V9.89814C51.6974 9.34585 51.2497 8.89813 50.6974 8.89813H37.9397C37.4925 8.89813 37.13 9.26061 37.13 9.70775V9.70775C37.13 14.2252 37.1433 18.7426 37.1177 23.2599C37.1131 24.0682 37.0778 24.916 36.8352 25.6767C35.5356 29.7524 32.7081 32.4579 28.7836 34.0913C27.7611 34.5036 26.6236 34.5442 25.5737 34.2058C21.1619 32.8677 16.7033 28.5885 16.8491 23.0886C16.9675 18.6173 16.8731 14.1405 16.8731 9.66612V9.66612C16.8731 9.24176 16.5291 8.89774 16.1047 8.89774H3.29749C2.74521 8.89774 2.29749 9.34545 2.29749 9.89774V38.6499Z" fill="url(#paint0_radial_819_1259)" fill-opacity="0.4"/>
<path d="M21.3808 12.649C21.3808 8.92948 21.381 5.20991 21.3812 1.49034C21.3816 0.373656 21.7351 0.00690611 22.8455 0.00452193C25.6116 -0.00142799 28.3778 -0.00150625 31.1439 0.00428705C32.2633 0.00644017 32.6216 0.370056 32.6217 1.47819C32.6226 8.8743 32.6349 16.2705 32.6003 23.6664C32.5959 24.3499 32.4221 25.0218 32.0941 25.6238C31.0703 27.4189 29.6311 28.8468 27.71 29.7097C27.2807 29.888 26.7994 29.9017 26.3604 29.748C23.9659 28.7456 22.2231 27.099 21.4732 24.5708C21.3988 24.2576 21.3689 23.9356 21.3845 23.6142C21.3787 19.9592 21.3775 16.3041 21.3808 12.649ZM30.388 3.24254C30.388 2.69025 29.9402 2.24253 29.388 2.24253H24.644C24.0917 2.24253 23.644 2.69024 23.644 3.24253V12.6592C23.644 12.8172 23.7707 12.9492 23.9271 12.9265V12.9265C25.9049 12.4361 27.8771 11.922 29.8628 11.4649C30.3168 11.3604 30.3973 11.1644 30.3946 10.7661C30.3803 8.66012 30.3879 6.55394 30.388 4.44782C30.388 4.04758 30.388 3.64735 30.388 3.24254ZM24.7448 23.8829C24.1842 24.0214 23.8489 24.6132 24.1413 25.1112C24.6065 25.9035 25.2712 26.5058 26.0256 27.0532C26.6282 27.4903 27.1486 27.5989 27.7352 27.063C28.244 26.5981 28.8446 26.218 29.2944 25.706C29.8633 25.0583 30.3121 24.3488 30.3916 23.5058C30.4437 22.9536 29.8764 22.6154 29.338 22.7484L24.7448 23.8829ZM23.6469 17.2683C23.6828 17.3552 23.7801 17.3946 23.8714 17.3721L29.5777 15.9651C30.0244 15.8549 30.3383 15.4542 30.3383 14.9941V14.8953C30.3383 14.2456 29.7285 13.7683 29.0978 13.924C27.8349 14.2356 26.5965 14.5406 25.3597 14.8515C23.4924 15.3209 23.4831 15.3274 23.6332 17.2088C23.6348 17.229 23.6392 17.2496 23.6469 17.2683V17.2683ZM30.3575 18.3332C30.3575 18.2377 30.2989 18.1041 30.2061 18.1266V18.1266C28.1315 18.6297 26.0566 19.1318 23.9866 19.6531C23.926 19.6683 23.8652 19.6867 23.8148 19.7237C23.7787 19.75 23.7465 19.7815 23.7192 19.8171C23.6729 19.8775 23.6421 19.9481 23.6295 20.0228C23.6206 20.2131 23.6161 20.4035 23.6141 20.5962C23.6075 21.2456 24.2264 21.7228 24.8569 21.567L29.5974 20.3957C30.0438 20.2854 30.3575 19.8848 30.3575 19.4249V18.3332Z" fill="#FF4C0C"/>
<path d="M21.3808 12.649C21.3808 8.92948 21.381 5.20991 21.3812 1.49034C21.3816 0.373656 21.7351 0.00690611 22.8455 0.00452193C25.6116 -0.00142799 28.3778 -0.00150625 31.1439 0.00428705C32.2633 0.00644017 32.6216 0.370056 32.6217 1.47819C32.6226 8.8743 32.6349 16.2705 32.6003 23.6664C32.5959 24.3499 32.4221 25.0218 32.0941 25.6238C31.0703 27.4189 29.6311 28.8468 27.71 29.7097C27.2807 29.888 26.7994 29.9017 26.3604 29.748C23.9659 28.7456 22.2231 27.099 21.4732 24.5708C21.3988 24.2576 21.3689 23.9356 21.3845 23.6142C21.3787 19.9592 21.3775 16.3041 21.3808 12.649ZM30.388 3.24254C30.388 2.69025 29.9402 2.24253 29.388 2.24253H24.644C24.0917 2.24253 23.644 2.69024 23.644 3.24253V12.6592C23.644 12.8172 23.7707 12.9492 23.9271 12.9265V12.9265C25.9049 12.4361 27.8771 11.922 29.8628 11.4649C30.3168 11.3604 30.3973 11.1644 30.3946 10.7661C30.3803 8.66012 30.3879 6.55394 30.388 4.44782C30.388 4.04758 30.388 3.64735 30.388 3.24254ZM24.7448 23.8829C24.1842 24.0214 23.8489 24.6132 24.1413 25.1112C24.6065 25.9035 25.2712 26.5058 26.0256 27.0532C26.6282 27.4903 27.1486 27.5989 27.7352 27.063C28.244 26.5981 28.8446 26.218 29.2944 25.706C29.8633 25.0583 30.3121 24.3488 30.3916 23.5058C30.4437 22.9536 29.8764 22.6154 29.338 22.7484L24.7448 23.8829ZM23.6469 17.2683C23.6828 17.3552 23.7801 17.3946 23.8714 17.3721L29.5777 15.9651C30.0244 15.8549 30.3383 15.4542 30.3383 14.9941V14.8953C30.3383 14.2456 29.7285 13.7683 29.0978 13.924C27.8349 14.2356 26.5965 14.5406 25.3597 14.8515C23.4924 15.3209 23.4831 15.3274 23.6332 17.2088C23.6348 17.229 23.6392 17.2496 23.6469 17.2683V17.2683ZM30.3575 18.3332C30.3575 18.2377 30.2989 18.1041 30.2061 18.1266V18.1266C28.1315 18.6297 26.0566 19.1318 23.9866 19.6531C23.926 19.6683 23.8652 19.6867 23.8148 19.7237C23.7787 19.75 23.7465 19.7815 23.7192 19.8171C23.6729 19.8775 23.6421 19.9481 23.6295 20.0228C23.6206 20.2131 23.6161 20.4035 23.6141 20.5962C23.6075 21.2456 24.2264 21.7228 24.8569 21.567L29.5974 20.3957C30.0438 20.2854 30.3575 19.8848 30.3575 19.4249V18.3332Z" fill="url(#paint1_radial_819_1259)" fill-opacity="0.4"/>
<path d="M34.1851 47.8134C33.7852 47.4437 33.1699 47.3909 32.7352 47.7189C28.7042 50.7603 25.3124 50.7597 21.2708 47.7211C20.8375 47.3953 20.2254 47.4472 19.8261 47.814C18.2472 49.2643 16.3085 49.9332 14.0685 49.9286C11.8834 49.924 9.97428 49.3044 8.40735 47.8944C7.95546 47.4878 7.24894 47.4802 6.79456 47.884C5.60139 48.9445 4.21786 49.6031 2.59805 49.822C2.08083 49.8892 1.55882 49.9134 1.0375 49.8944C0.461793 49.8759 0.116694 49.5365 0.0463213 48.9729C-0.0269402 48.3863 0.220043 47.9449 0.811716 47.8042C1.31443 47.6847 1.84337 47.6775 2.35599 47.5928C4.09406 47.3057 5.455 46.3973 6.53749 45.0584C7.26417 44.1596 7.97395 44.1631 8.69053 45.0959C11.3793 48.5959 16.7821 48.585 19.4638 45.0741C20.1676 44.1526 20.8911 44.154 21.609 45.0782C22.2392 45.8987 23.0531 46.5642 23.9869 47.0229C24.9208 47.4816 25.9494 47.7211 26.9925 47.7225C28.0355 47.724 29.0648 47.4875 30 47.0314C30.9352 46.5753 31.751 45.9121 32.3836 45.0934C33.1231 44.1455 33.818 44.1561 34.5718 45.1267C37.2602 48.5886 42.6283 48.5746 45.3109 45.0988C46.0264 44.1717 46.7395 44.1724 47.4657 45.0673C48.7864 46.695 50.4831 47.6195 52.6216 47.7016C53.4889 47.7348 53.9617 48.1218 53.9838 48.7817C54.0061 49.4478 53.5151 49.9182 52.7735 49.9193C50.3415 49.923 48.268 49.0968 46.6184 47.3043V47.3043C46.5241 47.1738 46.3261 47.1497 46.2173 47.2685C44.5083 49.1346 42.398 49.9282 39.9346 49.9277C37.7124 49.9273 35.7768 49.285 34.1851 47.8134Z" fill="#FF4C0C"/>
<path d="M34.1851 47.8134C33.7852 47.4437 33.1699 47.3909 32.7352 47.7189C28.7042 50.7603 25.3124 50.7597 21.2708 47.7211C20.8375 47.3953 20.2254 47.4472 19.8261 47.814C18.2472 49.2643 16.3085 49.9332 14.0685 49.9286C11.8834 49.924 9.97428 49.3044 8.40735 47.8944C7.95546 47.4878 7.24894 47.4802 6.79456 47.884C5.60139 48.9445 4.21786 49.6031 2.59805 49.822C2.08083 49.8892 1.55882 49.9134 1.0375 49.8944C0.461793 49.8759 0.116694 49.5365 0.0463213 48.9729C-0.0269402 48.3863 0.220043 47.9449 0.811716 47.8042C1.31443 47.6847 1.84337 47.6775 2.35599 47.5928C4.09406 47.3057 5.455 46.3973 6.53749 45.0584C7.26417 44.1596 7.97395 44.1631 8.69053 45.0959C11.3793 48.5959 16.7821 48.585 19.4638 45.0741C20.1676 44.1526 20.8911 44.154 21.609 45.0782C22.2392 45.8987 23.0531 46.5642 23.9869 47.0229C24.9208 47.4816 25.9494 47.7211 26.9925 47.7225C28.0355 47.724 29.0648 47.4875 30 47.0314C30.9352 46.5753 31.751 45.9121 32.3836 45.0934C33.1231 44.1455 33.818 44.1561 34.5718 45.1267C37.2602 48.5886 42.6283 48.5746 45.3109 45.0988C46.0264 44.1717 46.7395 44.1724 47.4657 45.0673C48.7864 46.695 50.4831 47.6195 52.6216 47.7016C53.4889 47.7348 53.9617 48.1218 53.9838 48.7817C54.0061 49.4478 53.5151 49.9182 52.7735 49.9193C50.3415 49.923 48.268 49.0968 46.6184 47.3043V47.3043C46.5241 47.1738 46.3261 47.1497 46.2173 47.2685C44.5083 49.1346 42.398 49.9282 39.9346 49.9277C37.7124 49.9273 35.7768 49.285 34.1851 47.8134Z" fill="url(#paint2_radial_819_1259)" fill-opacity="0.4"/>
<defs>
<radialGradient id="paint0_radial_819_1259" cx="0" cy="0" r="1" gradientUnits="userSpaceOnUse" gradientTransform="translate(27.7902 -2.27273) rotate(90) scale(41.4773 25.6003)">
<stop stop-color="white"/>
<stop offset="0.0001" stop-color="white"/>
<stop offset="1" stop-color="white" stop-opacity="0"/>
</radialGradient>
<radialGradient id="paint1_radial_819_1259" cx="0" cy="0" r="1" gradientUnits="userSpaceOnUse" gradientTransform="translate(27.7902 -2.27273) rotate(90) scale(41.4773 25.6003)">
<stop stop-color="white"/>
<stop offset="0.0001" stop-color="white"/>
<stop offset="1" stop-color="white" stop-opacity="0"/>
</radialGradient>
<radialGradient id="paint2_radial_819_1259" cx="0" cy="0" r="1" gradientUnits="userSpaceOnUse" gradientTransform="translate(27.7902 -2.27273) rotate(90) scale(41.4773 25.6003)">
<stop stop-color="white"/>
<stop offset="0.0001" stop-color="white"/>
<stop offset="1" stop-color="white" stop-opacity="0"/>
</radialGradient>
</defs>
</svg>
