<svg width="52" height="52" viewBox="0 0 52 52" fill="none" xmlns="http://www.w3.org/2000/svg">
<path d="M46.1352 32.4375C45.7918 32.2521 45.5625 31.9014 45.5625 31.5111V8.4375C45.5625 6.11142 43.6698 4.21875 41.3438 4.21875H40.6563C40.104 4.21875 39.6562 3.77103 39.6562 3.21875V2.53125C39.6562 1.13543 38.5208 0 37.125 0C35.7292 0 34.5938 1.13543 34.5938 2.53125V3.21875C34.5938 3.77103 34.146 4.21875 33.5938 4.21875H31.375C30.8227 4.21875 30.375 3.77103 30.375 3.21875V2.53125C30.375 1.13543 29.2396 0 27.8438 0C26.4479 0 25.3125 1.13543 25.3125 2.53125V3.21875C25.3125 3.77103 24.8648 4.21875 24.3125 4.21875H21.25C20.6977 4.21875 20.25 3.77103 20.25 3.21875V2.53125C20.25 1.13543 19.1146 0 17.7188 0C16.3229 0 15.1875 1.13543 15.1875 2.53125V3.21875C15.1875 3.77103 14.7398 4.21875 14.1875 4.21875H11.9688C11.4165 4.21875 10.9688 3.77103 10.9688 3.21875V2.53125C10.9688 1.13543 9.83332 0 8.4375 0C7.04168 0 5.90625 1.13543 5.90625 2.53125V3.21875C5.90625 3.77103 5.45853 4.21875 4.90625 4.21875H4.21875C1.89267 4.21875 0 6.11142 0 8.4375V42.1875C0 44.5136 1.89267 46.4062 4.21875 46.4062H32.0128C32.3692 46.4062 32.6955 46.5982 32.8916 46.8958C34.7029 49.646 37.8113 51.4688 41.3438 51.4688C46.927 51.4688 51.4688 46.927 51.4688 41.3438C51.4688 37.4948 49.3058 34.1489 46.1352 32.4375ZM36.2812 2.53125C36.2812 2.0657 36.6595 1.6875 37.125 1.6875C37.5905 1.6875 37.9688 2.0657 37.9688 2.53125V7.59375C37.9688 8.0593 37.5905 8.4375 37.125 8.4375C36.6595 8.4375 36.2812 8.0593 36.2812 7.59375V2.53125ZM27 2.53125C27 2.0657 27.3782 1.6875 27.8438 1.6875C28.3093 1.6875 28.6875 2.0657 28.6875 2.53125V7.59375C28.6875 8.0593 28.3093 8.4375 27.8438 8.4375C27.3782 8.4375 27 8.0593 27 7.59375V2.53125ZM16.875 2.53125C16.875 2.0657 17.2532 1.6875 17.7188 1.6875C18.1843 1.6875 18.5625 2.0657 18.5625 2.53125V7.59375C18.5625 8.0593 18.1843 8.4375 17.7188 8.4375C17.2532 8.4375 16.875 8.0593 16.875 7.59375V2.53125ZM7.59375 2.53125C7.59375 2.0657 7.97195 1.6875 8.4375 1.6875C8.90305 1.6875 9.28125 2.0657 9.28125 2.53125V7.59375C9.28125 8.0593 8.90305 8.4375 8.4375 8.4375C7.97195 8.4375 7.59375 8.0593 7.59375 7.59375V2.53125ZM4.21875 5.90625H4.90625C5.45853 5.90625 5.90625 6.35397 5.90625 6.90625V7.59375C5.90625 8.98957 7.04168 10.125 8.4375 10.125C9.83332 10.125 10.9688 8.98957 10.9688 7.59375V6.90625C10.9688 6.35397 11.4165 5.90625 11.9687 5.90625H14.1875C14.7398 5.90625 15.1875 6.35397 15.1875 6.90625V7.59375C15.1875 8.98957 16.3229 10.125 17.7188 10.125C19.1146 10.125 20.25 8.98957 20.25 7.59375V6.90625C20.25 6.35397 20.6977 5.90625 21.25 5.90625H24.3125C24.8648 5.90625 25.3125 6.35397 25.3125 6.90625V7.59375C25.3125 8.98957 26.4479 10.125 27.8438 10.125C29.2396 10.125 30.375 8.98957 30.375 7.59375V6.90625C30.375 6.35397 30.8227 5.90625 31.375 5.90625H33.5937C34.146 5.90625 34.5938 6.35397 34.5938 6.90625V7.59375C34.5938 8.98957 35.7292 10.125 37.125 10.125C38.5208 10.125 39.6562 8.98957 39.6562 7.59375V6.90625C39.6562 6.35397 40.104 5.90625 40.6563 5.90625H41.3438C42.7396 5.90625 43.875 7.04168 43.875 8.4375V11.6562C43.875 12.2085 43.4273 12.6562 42.875 12.6562H2.6875C2.13521 12.6562 1.6875 12.2085 1.6875 11.6563V8.4375C1.6875 7.04168 2.82293 5.90625 4.21875 5.90625ZM4.21875 44.7188C2.82293 44.7188 1.6875 43.5833 1.6875 42.1875V15.3438C1.6875 14.7915 2.13522 14.3438 2.6875 14.3438H42.875C43.4273 14.3438 43.875 14.7915 43.875 15.3438V30.2601C43.875 30.9141 43.2565 31.3892 42.6082 31.3032C42.1943 31.2484 41.7727 31.2188 41.3438 31.2188C41.1714 31.2188 41.0004 31.2241 40.8306 31.234C40.2129 31.2702 39.6562 30.807 39.6562 30.1882V27C39.6562 26.5336 39.2789 26.1562 38.8125 26.1562H33.75C33.2836 26.1562 32.9062 26.5336 32.9062 27V32.0625C32.9062 32.5289 33.2836 32.9062 33.75 32.9062V32.9062C34.3504 32.9062 34.6307 33.7511 34.2051 34.1746C32.362 36.0084 31.2188 38.5442 31.2188 41.3438C31.2188 42.0337 31.2917 42.7061 31.4268 43.3563C31.5674 44.0326 31.0839 44.7188 30.3931 44.7188H4.21875ZM37.9688 30.2187C37.9688 30.771 37.521 31.2188 36.9687 31.2188H35.5938C35.0415 31.2188 34.5938 30.771 34.5938 30.2187V28.8438C34.5938 28.2915 35.0415 27.8438 35.5938 27.8438H36.9687C37.521 27.8438 37.9688 28.2915 37.9688 28.8438V30.2187ZM41.3438 49.7812C36.6916 49.7812 32.9062 45.9959 32.9062 41.3438C32.9062 36.6916 36.6916 32.9062 41.3438 32.9062C45.9959 32.9062 49.7812 36.6916 49.7812 41.3438C49.7812 45.9959 45.9959 49.7812 41.3438 49.7812Z" fill="#FF4C0C"/>
<path d="M46.1352 32.4375C45.7918 32.2521 45.5625 31.9014 45.5625 31.5111V8.4375C45.5625 6.11142 43.6698 4.21875 41.3438 4.21875H40.6563C40.104 4.21875 39.6562 3.77103 39.6562 3.21875V2.53125C39.6562 1.13543 38.5208 0 37.125 0C35.7292 0 34.5938 1.13543 34.5938 2.53125V3.21875C34.5938 3.77103 34.146 4.21875 33.5938 4.21875H31.375C30.8227 4.21875 30.375 3.77103 30.375 3.21875V2.53125C30.375 1.13543 29.2396 0 27.8438 0C26.4479 0 25.3125 1.13543 25.3125 2.53125V3.21875C25.3125 3.77103 24.8648 4.21875 24.3125 4.21875H21.25C20.6977 4.21875 20.25 3.77103 20.25 3.21875V2.53125C20.25 1.13543 19.1146 0 17.7188 0C16.3229 0 15.1875 1.13543 15.1875 2.53125V3.21875C15.1875 3.77103 14.7398 4.21875 14.1875 4.21875H11.9688C11.4165 4.21875 10.9688 3.77103 10.9688 3.21875V2.53125C10.9688 1.13543 9.83332 0 8.4375 0C7.04168 0 5.90625 1.13543 5.90625 2.53125V3.21875C5.90625 3.77103 5.45853 4.21875 4.90625 4.21875H4.21875C1.89267 4.21875 0 6.11142 0 8.4375V42.1875C0 44.5136 1.89267 46.4062 4.21875 46.4062H32.0128C32.3692 46.4062 32.6955 46.5982 32.8916 46.8958C34.7029 49.646 37.8113 51.4688 41.3438 51.4688C46.927 51.4688 51.4688 46.927 51.4688 41.3438C51.4688 37.4948 49.3058 34.1489 46.1352 32.4375ZM36.2812 2.53125C36.2812 2.0657 36.6595 1.6875 37.125 1.6875C37.5905 1.6875 37.9688 2.0657 37.9688 2.53125V7.59375C37.9688 8.0593 37.5905 8.4375 37.125 8.4375C36.6595 8.4375 36.2812 8.0593 36.2812 7.59375V2.53125ZM27 2.53125C27 2.0657 27.3782 1.6875 27.8438 1.6875C28.3093 1.6875 28.6875 2.0657 28.6875 2.53125V7.59375C28.6875 8.0593 28.3093 8.4375 27.8438 8.4375C27.3782 8.4375 27 8.0593 27 7.59375V2.53125ZM16.875 2.53125C16.875 2.0657 17.2532 1.6875 17.7188 1.6875C18.1843 1.6875 18.5625 2.0657 18.5625 2.53125V7.59375C18.5625 8.0593 18.1843 8.4375 17.7188 8.4375C17.2532 8.4375 16.875 8.0593 16.875 7.59375V2.53125ZM7.59375 2.53125C7.59375 2.0657 7.97195 1.6875 8.4375 1.6875C8.90305 1.6875 9.28125 2.0657 9.28125 2.53125V7.59375C9.28125 8.0593 8.90305 8.4375 8.4375 8.4375C7.97195 8.4375 7.59375 8.0593 7.59375 7.59375V2.53125ZM4.21875 5.90625H4.90625C5.45853 5.90625 5.90625 6.35397 5.90625 6.90625V7.59375C5.90625 8.98957 7.04168 10.125 8.4375 10.125C9.83332 10.125 10.9688 8.98957 10.9688 7.59375V6.90625C10.9688 6.35397 11.4165 5.90625 11.9687 5.90625H14.1875C14.7398 5.90625 15.1875 6.35397 15.1875 6.90625V7.59375C15.1875 8.98957 16.3229 10.125 17.7188 10.125C19.1146 10.125 20.25 8.98957 20.25 7.59375V6.90625C20.25 6.35397 20.6977 5.90625 21.25 5.90625H24.3125C24.8648 5.90625 25.3125 6.35397 25.3125 6.90625V7.59375C25.3125 8.98957 26.4479 10.125 27.8438 10.125C29.2396 10.125 30.375 8.98957 30.375 7.59375V6.90625C30.375 6.35397 30.8227 5.90625 31.375 5.90625H33.5937C34.146 5.90625 34.5938 6.35397 34.5938 6.90625V7.59375C34.5938 8.98957 35.7292 10.125 37.125 10.125C38.5208 10.125 39.6562 8.98957 39.6562 7.59375V6.90625C39.6562 6.35397 40.104 5.90625 40.6563 5.90625H41.3438C42.7396 5.90625 43.875 7.04168 43.875 8.4375V11.6562C43.875 12.2085 43.4273 12.6562 42.875 12.6562H2.6875C2.13521 12.6562 1.6875 12.2085 1.6875 11.6563V8.4375C1.6875 7.04168 2.82293 5.90625 4.21875 5.90625ZM4.21875 44.7188C2.82293 44.7188 1.6875 43.5833 1.6875 42.1875V15.3438C1.6875 14.7915 2.13522 14.3438 2.6875 14.3438H42.875C43.4273 14.3438 43.875 14.7915 43.875 15.3438V30.2601C43.875 30.9141 43.2565 31.3892 42.6082 31.3032C42.1943 31.2484 41.7727 31.2188 41.3438 31.2188C41.1714 31.2188 41.0004 31.2241 40.8306 31.234C40.2129 31.2702 39.6562 30.807 39.6562 30.1882V27C39.6562 26.5336 39.2789 26.1562 38.8125 26.1562H33.75C33.2836 26.1562 32.9062 26.5336 32.9062 27V32.0625C32.9062 32.5289 33.2836 32.9062 33.75 32.9062V32.9062C34.3504 32.9062 34.6307 33.7511 34.2051 34.1746C32.362 36.0084 31.2188 38.5442 31.2188 41.3438C31.2188 42.0337 31.2917 42.7061 31.4268 43.3563C31.5674 44.0326 31.0839 44.7188 30.3931 44.7188H4.21875ZM37.9688 30.2187C37.9688 30.771 37.521 31.2188 36.9687 31.2188H35.5938C35.0415 31.2188 34.5938 30.771 34.5938 30.2187V28.8438C34.5938 28.2915 35.0415 27.8438 35.5938 27.8438H36.9687C37.521 27.8438 37.9688 28.2915 37.9688 28.8438V30.2187ZM41.3438 49.7812C36.6916 49.7812 32.9062 45.9959 32.9062 41.3438C32.9062 36.6916 36.6916 32.9062 41.3438 32.9062C45.9959 32.9062 49.7812 36.6916 49.7812 41.3438C49.7812 45.9959 45.9959 49.7812 41.3438 49.7812Z" fill="url(#paint0_radial_819_1255)" fill-opacity="0.4"/>
<path d="M42.6276 40.2563C42.3956 39.9862 42.1875 39.6713 42.1875 39.3153V35.4375C42.1875 34.9715 41.8097 34.5938 41.3438 34.5938V34.5938C40.8778 34.5938 40.5 34.9715 40.5 35.4375V39.3153C40.5 39.6713 40.2919 39.9862 40.0599 40.2563C39.8088 40.5488 39.6562 40.9273 39.6562 41.3438V41.3438C39.6562 41.499 39.6068 41.6528 39.4855 41.7498L37.2569 43.5323C36.8928 43.8235 36.8338 44.3547 37.125 44.7188V44.7188C37.4163 45.0828 37.9475 45.1418 38.3115 44.8506L40.2831 43.2733C40.5618 43.0503 40.9384 43.0195 41.2951 43.0305C41.3112 43.031 41.3275 43.0312 41.3438 43.0312C42.2757 43.0312 43.0312 42.2757 43.0312 41.3438C43.0312 40.9273 42.8787 40.5488 42.6276 40.2563Z" fill="#FF4C0C"/>
<path d="M42.6276 40.2563C42.3956 39.9862 42.1875 39.6713 42.1875 39.3153V35.4375C42.1875 34.9715 41.8097 34.5938 41.3438 34.5938V34.5938C40.8778 34.5938 40.5 34.9715 40.5 35.4375V39.3153C40.5 39.6713 40.2919 39.9862 40.0599 40.2563C39.8088 40.5488 39.6562 40.9273 39.6562 41.3438V41.3438C39.6562 41.499 39.6068 41.6528 39.4855 41.7498L37.2569 43.5323C36.8928 43.8235 36.8338 44.3547 37.125 44.7188V44.7188C37.4163 45.0828 37.9475 45.1418 38.3115 44.8506L40.2831 43.2733C40.5618 43.0503 40.9384 43.0195 41.2951 43.0305C41.3112 43.031 41.3275 43.0312 41.3438 43.0312C42.2757 43.0312 43.0312 42.2757 43.0312 41.3438C43.0312 40.9273 42.8787 40.5488 42.6276 40.2563Z" fill="url(#paint1_radial_819_1255)" fill-opacity="0.4"/>
<path d="M10.9688 16.875H5.90625C5.43988 16.875 5.0625 17.2524 5.0625 17.7188V22.7812C5.0625 23.2476 5.43988 23.625 5.90625 23.625H10.9688C11.4351 23.625 11.8125 23.2476 11.8125 22.7812V17.7188C11.8125 17.2524 11.4351 16.875 10.9688 16.875ZM10.125 20.9375C10.125 21.4898 9.67728 21.9375 9.125 21.9375H7.75C7.19772 21.9375 6.75 21.4898 6.75 20.9375V19.5625C6.75 19.0102 7.19772 18.5625 7.75 18.5625H9.125C9.67728 18.5625 10.125 19.0102 10.125 19.5625V20.9375Z" fill="#FF4C0C"/>
<path d="M10.9688 16.875H5.90625C5.43988 16.875 5.0625 17.2524 5.0625 17.7188V22.7812C5.0625 23.2476 5.43988 23.625 5.90625 23.625H10.9688C11.4351 23.625 11.8125 23.2476 11.8125 22.7812V17.7188C11.8125 17.2524 11.4351 16.875 10.9688 16.875ZM10.125 20.9375C10.125 21.4898 9.67728 21.9375 9.125 21.9375H7.75C7.19772 21.9375 6.75 21.4898 6.75 20.9375V19.5625C6.75 19.0102 7.19772 18.5625 7.75 18.5625H9.125C9.67728 18.5625 10.125 19.0102 10.125 19.5625V20.9375Z" fill="url(#paint2_radial_819_1255)" fill-opacity="0.4"/>
<path d="M20.25 16.875H15.1875C14.7211 16.875 14.3438 17.2524 14.3438 17.7188V22.7812C14.3438 23.2476 14.7211 23.625 15.1875 23.625H20.25C20.7164 23.625 21.0938 23.2476 21.0938 22.7812V17.7188C21.0938 17.2524 20.7164 16.875 20.25 16.875ZM19.4062 20.9375C19.4062 21.4898 18.9585 21.9375 18.4062 21.9375H17.0313C16.479 21.9375 16.0312 21.4898 16.0312 20.9375V19.5625C16.0312 19.0102 16.479 18.5625 17.0313 18.5625H18.4062C18.9585 18.5625 19.4062 19.0102 19.4062 19.5625V20.9375Z" fill="#FF4C0C"/>
<path d="M20.25 16.875H15.1875C14.7211 16.875 14.3438 17.2524 14.3438 17.7188V22.7812C14.3438 23.2476 14.7211 23.625 15.1875 23.625H20.25C20.7164 23.625 21.0938 23.2476 21.0938 22.7812V17.7188C21.0938 17.2524 20.7164 16.875 20.25 16.875ZM19.4062 20.9375C19.4062 21.4898 18.9585 21.9375 18.4062 21.9375H17.0313C16.479 21.9375 16.0312 21.4898 16.0312 20.9375V19.5625C16.0312 19.0102 16.479 18.5625 17.0313 18.5625H18.4062C18.9585 18.5625 19.4062 19.0102 19.4062 19.5625V20.9375Z" fill="url(#paint3_radial_819_1255)" fill-opacity="0.4"/>
<path d="M29.5312 16.875H24.4688C24.0024 16.875 23.625 17.2524 23.625 17.7188V22.7812C23.625 23.2476 24.0024 23.625 24.4688 23.625H29.5312C29.9976 23.625 30.375 23.2476 30.375 22.7812V17.7188C30.375 17.2524 29.9976 16.875 29.5312 16.875ZM28.6875 20.9375C28.6875 21.4898 28.2398 21.9375 27.6875 21.9375H26.3125C25.7602 21.9375 25.3125 21.4898 25.3125 20.9375V19.5625C25.3125 19.0102 25.7602 18.5625 26.3125 18.5625H27.6875C28.2398 18.5625 28.6875 19.0102 28.6875 19.5625V20.9375Z" fill="#FF4C0C"/>
<path d="M29.5312 16.875H24.4688C24.0024 16.875 23.625 17.2524 23.625 17.7188V22.7812C23.625 23.2476 24.0024 23.625 24.4688 23.625H29.5312C29.9976 23.625 30.375 23.2476 30.375 22.7812V17.7188C30.375 17.2524 29.9976 16.875 29.5312 16.875ZM28.6875 20.9375C28.6875 21.4898 28.2398 21.9375 27.6875 21.9375H26.3125C25.7602 21.9375 25.3125 21.4898 25.3125 20.9375V19.5625C25.3125 19.0102 25.7602 18.5625 26.3125 18.5625H27.6875C28.2398 18.5625 28.6875 19.0102 28.6875 19.5625V20.9375Z" fill="url(#paint4_radial_819_1255)" fill-opacity="0.4"/>
<path d="M33.75 23.625H38.8125C39.2789 23.625 39.6562 23.2476 39.6562 22.7812V17.7188C39.6562 17.2524 39.2789 16.875 38.8125 16.875H33.75C33.2836 16.875 32.9062 17.2524 32.9062 17.7188V22.7812C32.9062 23.2476 33.2836 23.625 33.75 23.625ZM34.5938 19.5625C34.5938 19.0102 35.0415 18.5625 35.5938 18.5625H36.9687C37.521 18.5625 37.9688 19.0102 37.9688 19.5625V20.9375C37.9688 21.4898 37.521 21.9375 36.9687 21.9375H35.5938C35.0415 21.9375 34.5938 21.4898 34.5938 20.9375V19.5625Z" fill="#FF4C0C"/>
<path d="M33.75 23.625H38.8125C39.2789 23.625 39.6562 23.2476 39.6562 22.7812V17.7188C39.6562 17.2524 39.2789 16.875 38.8125 16.875H33.75C33.2836 16.875 32.9062 17.2524 32.9062 17.7188V22.7812C32.9062 23.2476 33.2836 23.625 33.75 23.625ZM34.5938 19.5625C34.5938 19.0102 35.0415 18.5625 35.5938 18.5625H36.9687C37.521 18.5625 37.9688 19.0102 37.9688 19.5625V20.9375C37.9688 21.4898 37.521 21.9375 36.9687 21.9375H35.5938C35.0415 21.9375 34.5938 21.4898 34.5938 20.9375V19.5625Z" fill="url(#paint5_radial_819_1255)" fill-opacity="0.4"/>
<path d="M10.9688 26.1562H5.90625C5.43988 26.1562 5.0625 26.5336 5.0625 27V32.0625C5.0625 32.5289 5.43988 32.9062 5.90625 32.9062H10.9688C11.4351 32.9062 11.8125 32.5289 11.8125 32.0625V27C11.8125 26.5336 11.4351 26.1562 10.9688 26.1562ZM10.125 30.2187C10.125 30.771 9.67728 31.2188 9.125 31.2188H7.75C7.19772 31.2188 6.75 30.771 6.75 30.2187V28.8438C6.75 28.2915 7.19772 27.8438 7.75 27.8438H9.125C9.67728 27.8438 10.125 28.2915 10.125 28.8438V30.2187Z" fill="#FF4C0C"/>
<path d="M10.9688 26.1562H5.90625C5.43988 26.1562 5.0625 26.5336 5.0625 27V32.0625C5.0625 32.5289 5.43988 32.9062 5.90625 32.9062H10.9688C11.4351 32.9062 11.8125 32.5289 11.8125 32.0625V27C11.8125 26.5336 11.4351 26.1562 10.9688 26.1562ZM10.125 30.2187C10.125 30.771 9.67728 31.2188 9.125 31.2188H7.75C7.19772 31.2188 6.75 30.771 6.75 30.2187V28.8438C6.75 28.2915 7.19772 27.8438 7.75 27.8438H9.125C9.67728 27.8438 10.125 28.2915 10.125 28.8438V30.2187Z" fill="url(#paint6_radial_819_1255)" fill-opacity="0.4"/>
<path d="M20.25 26.1562H15.1875C14.7211 26.1562 14.3438 26.5336 14.3438 27V32.0625C14.3438 32.5289 14.7211 32.9062 15.1875 32.9062H20.25C20.7164 32.9062 21.0938 32.5289 21.0938 32.0625V27C21.0938 26.5336 20.7164 26.1562 20.25 26.1562ZM19.4062 30.2187C19.4062 30.771 18.9585 31.2188 18.4062 31.2188H17.0313C16.479 31.2188 16.0312 30.771 16.0312 30.2187V28.8438C16.0312 28.2915 16.479 27.8438 17.0313 27.8438H18.4062C18.9585 27.8438 19.4062 28.2915 19.4062 28.8438V30.2187Z" fill="#FF4C0C"/>
<path d="M20.25 26.1562H15.1875C14.7211 26.1562 14.3438 26.5336 14.3438 27V32.0625C14.3438 32.5289 14.7211 32.9062 15.1875 32.9062H20.25C20.7164 32.9062 21.0938 32.5289 21.0938 32.0625V27C21.0938 26.5336 20.7164 26.1562 20.25 26.1562ZM19.4062 30.2187C19.4062 30.771 18.9585 31.2188 18.4062 31.2188H17.0313C16.479 31.2188 16.0312 30.771 16.0312 30.2187V28.8438C16.0312 28.2915 16.479 27.8438 17.0313 27.8438H18.4062C18.9585 27.8438 19.4062 28.2915 19.4062 28.8438V30.2187Z" fill="url(#paint7_radial_819_1255)" fill-opacity="0.4"/>
<path d="M29.5312 26.1562H24.4688C24.0024 26.1562 23.625 26.5336 23.625 27V32.0625C23.625 32.5289 24.0024 32.9062 24.4688 32.9062H29.5312C29.9976 32.9062 30.375 32.5289 30.375 32.0625V27C30.375 26.5336 29.9976 26.1562 29.5312 26.1562ZM28.6875 30.2187C28.6875 30.771 28.2398 31.2188 27.6875 31.2188H26.3125C25.7602 31.2188 25.3125 30.771 25.3125 30.2187V28.8438C25.3125 28.2915 25.7602 27.8438 26.3125 27.8438H27.6875C28.2398 27.8438 28.6875 28.2915 28.6875 28.8438V30.2187Z" fill="#FF4C0C"/>
<path d="M29.5312 26.1562H24.4688C24.0024 26.1562 23.625 26.5336 23.625 27V32.0625C23.625 32.5289 24.0024 32.9062 24.4688 32.9062H29.5312C29.9976 32.9062 30.375 32.5289 30.375 32.0625V27C30.375 26.5336 29.9976 26.1562 29.5312 26.1562ZM28.6875 30.2187C28.6875 30.771 28.2398 31.2188 27.6875 31.2188H26.3125C25.7602 31.2188 25.3125 30.771 25.3125 30.2187V28.8438C25.3125 28.2915 25.7602 27.8438 26.3125 27.8438H27.6875C28.2398 27.8438 28.6875 28.2915 28.6875 28.8438V30.2187Z" fill="url(#paint8_radial_819_1255)" fill-opacity="0.4"/>
<path d="M10.9688 35.4375H5.90625C5.43988 35.4375 5.0625 35.8149 5.0625 36.2812V41.3438C5.0625 41.8101 5.43988 42.1875 5.90625 42.1875H10.9688C11.4351 42.1875 11.8125 41.8101 11.8125 41.3438V36.2812C11.8125 35.8149 11.4351 35.4375 10.9688 35.4375ZM10.125 39.5C10.125 40.0523 9.67728 40.5 9.125 40.5H7.75C7.19772 40.5 6.75 40.0523 6.75 39.5V38.125C6.75 37.5727 7.19772 37.125 7.75 37.125H9.125C9.67728 37.125 10.125 37.5727 10.125 38.125V39.5Z" fill="#FF4C0C"/>
<path d="M10.9688 35.4375H5.90625C5.43988 35.4375 5.0625 35.8149 5.0625 36.2812V41.3438C5.0625 41.8101 5.43988 42.1875 5.90625 42.1875H10.9688C11.4351 42.1875 11.8125 41.8101 11.8125 41.3438V36.2812C11.8125 35.8149 11.4351 35.4375 10.9688 35.4375ZM10.125 39.5C10.125 40.0523 9.67728 40.5 9.125 40.5H7.75C7.19772 40.5 6.75 40.0523 6.75 39.5V38.125C6.75 37.5727 7.19772 37.125 7.75 37.125H9.125C9.67728 37.125 10.125 37.5727 10.125 38.125V39.5Z" fill="url(#paint9_radial_819_1255)" fill-opacity="0.4"/>
<path d="M20.25 35.4375H15.1875C14.7211 35.4375 14.3438 35.8149 14.3438 36.2812V41.3438C14.3438 41.8101 14.7211 42.1875 15.1875 42.1875H20.25C20.7164 42.1875 21.0938 41.8101 21.0938 41.3438V36.2812C21.0938 35.8149 20.7164 35.4375 20.25 35.4375ZM19.4062 39.5C19.4062 40.0523 18.9585 40.5 18.4062 40.5H17.0313C16.479 40.5 16.0312 40.0523 16.0312 39.5V38.125C16.0312 37.5727 16.479 37.125 17.0313 37.125H18.4062C18.9585 37.125 19.4062 37.5727 19.4062 38.125V39.5Z" fill="#FF4C0C"/>
<path d="M20.25 35.4375H15.1875C14.7211 35.4375 14.3438 35.8149 14.3438 36.2812V41.3438C14.3438 41.8101 14.7211 42.1875 15.1875 42.1875H20.25C20.7164 42.1875 21.0938 41.8101 21.0938 41.3438V36.2812C21.0938 35.8149 20.7164 35.4375 20.25 35.4375ZM19.4062 39.5C19.4062 40.0523 18.9585 40.5 18.4062 40.5H17.0313C16.479 40.5 16.0312 40.0523 16.0312 39.5V38.125C16.0312 37.5727 16.479 37.125 17.0313 37.125H18.4062C18.9585 37.125 19.4062 37.5727 19.4062 38.125V39.5Z" fill="url(#paint10_radial_819_1255)" fill-opacity="0.4"/>
<path d="M29.5312 35.4375H24.4688C24.0024 35.4375 23.625 35.8149 23.625 36.2812V41.3438C23.625 41.8101 24.0024 42.1875 24.4688 42.1875H29.5312C29.9976 42.1875 30.375 41.8101 30.375 41.3438V36.2812C30.375 35.8149 29.9976 35.4375 29.5312 35.4375ZM28.6875 39.5C28.6875 40.0523 28.2398 40.5 27.6875 40.5H26.3125C25.7602 40.5 25.3125 40.0523 25.3125 39.5V38.125C25.3125 37.5727 25.7602 37.125 26.3125 37.125H27.6875C28.2398 37.125 28.6875 37.5727 28.6875 38.125V39.5Z" fill="#FF4C0C"/>
<path d="M29.5312 35.4375H24.4688C24.0024 35.4375 23.625 35.8149 23.625 36.2812V41.3438C23.625 41.8101 24.0024 42.1875 24.4688 42.1875H29.5312C29.9976 42.1875 30.375 41.8101 30.375 41.3438V36.2812C30.375 35.8149 29.9976 35.4375 29.5312 35.4375ZM28.6875 39.5C28.6875 40.0523 28.2398 40.5 27.6875 40.5H26.3125C25.7602 40.5 25.3125 40.0523 25.3125 39.5V38.125C25.3125 37.5727 25.7602 37.125 26.3125 37.125H27.6875C28.2398 37.125 28.6875 37.5727 28.6875 38.125V39.5Z" fill="url(#paint11_radial_819_1255)" fill-opacity="0.4"/>
<defs>
<radialGradient id="paint0_radial_819_1255" cx="0" cy="0" r="1" gradientUnits="userSpaceOnUse" gradientTransform="translate(26.4876 -2.33949) rotate(90) scale(42.6957 24.4003)">
<stop stop-color="white"/>
<stop offset="0.0001" stop-color="white"/>
<stop offset="1" stop-color="white" stop-opacity="0"/>
</radialGradient>
<radialGradient id="paint1_radial_819_1255" cx="0" cy="0" r="1" gradientUnits="userSpaceOnUse" gradientTransform="translate(26.4876 -2.33949) rotate(90) scale(42.6957 24.4003)">
<stop stop-color="white"/>
<stop offset="0.0001" stop-color="white"/>
<stop offset="1" stop-color="white" stop-opacity="0"/>
</radialGradient>
<radialGradient id="paint2_radial_819_1255" cx="0" cy="0" r="1" gradientUnits="userSpaceOnUse" gradientTransform="translate(26.4876 -2.33949) rotate(90) scale(42.6957 24.4003)">
<stop stop-color="white"/>
<stop offset="0.0001" stop-color="white"/>
<stop offset="1" stop-color="white" stop-opacity="0"/>
</radialGradient>
<radialGradient id="paint3_radial_819_1255" cx="0" cy="0" r="1" gradientUnits="userSpaceOnUse" gradientTransform="translate(26.4876 -2.33949) rotate(90) scale(42.6957 24.4003)">
<stop stop-color="white"/>
<stop offset="0.0001" stop-color="white"/>
<stop offset="1" stop-color="white" stop-opacity="0"/>
</radialGradient>
<radialGradient id="paint4_radial_819_1255" cx="0" cy="0" r="1" gradientUnits="userSpaceOnUse" gradientTransform="translate(26.4876 -2.33949) rotate(90) scale(42.6957 24.4003)">
<stop stop-color="white"/>
<stop offset="0.0001" stop-color="white"/>
<stop offset="1" stop-color="white" stop-opacity="0"/>
</radialGradient>
<radialGradient id="paint5_radial_819_1255" cx="0" cy="0" r="1" gradientUnits="userSpaceOnUse" gradientTransform="translate(26.4876 -2.33949) rotate(90) scale(42.6957 24.4003)">
<stop stop-color="white"/>
<stop offset="0.0001" stop-color="white"/>
<stop offset="1" stop-color="white" stop-opacity="0"/>
</radialGradient>
<radialGradient id="paint6_radial_819_1255" cx="0" cy="0" r="1" gradientUnits="userSpaceOnUse" gradientTransform="translate(26.4876 -2.33949) rotate(90) scale(42.6957 24.4003)">
<stop stop-color="white"/>
<stop offset="0.0001" stop-color="white"/>
<stop offset="1" stop-color="white" stop-opacity="0"/>
</radialGradient>
<radialGradient id="paint7_radial_819_1255" cx="0" cy="0" r="1" gradientUnits="userSpaceOnUse" gradientTransform="translate(26.4876 -2.33949) rotate(90) scale(42.6957 24.4003)">
<stop stop-color="white"/>
<stop offset="0.0001" stop-color="white"/>
<stop offset="1" stop-color="white" stop-opacity="0"/>
</radialGradient>
<radialGradient id="paint8_radial_819_1255" cx="0" cy="0" r="1" gradientUnits="userSpaceOnUse" gradientTransform="translate(26.4876 -2.33949) rotate(90) scale(42.6957 24.4003)">
<stop stop-color="white"/>
<stop offset="0.0001" stop-color="white"/>
<stop offset="1" stop-color="white" stop-opacity="0"/>
</radialGradient>
<radialGradient id="paint9_radial_819_1255" cx="0" cy="0" r="1" gradientUnits="userSpaceOnUse" gradientTransform="translate(26.4876 -2.33949) rotate(90) scale(42.6957 24.4003)">
<stop stop-color="white"/>
<stop offset="0.0001" stop-color="white"/>
<stop offset="1" stop-color="white" stop-opacity="0"/>
</radialGradient>
<radialGradient id="paint10_radial_819_1255" cx="0" cy="0" r="1" gradientUnits="userSpaceOnUse" gradientTransform="translate(26.4876 -2.33949) rotate(90) scale(42.6957 24.4003)">
<stop stop-color="white"/>
<stop offset="0.0001" stop-color="white"/>
<stop offset="1" stop-color="white" stop-opacity="0"/>
</radialGradient>
<radialGradient id="paint11_radial_819_1255" cx="0" cy="0" r="1" gradientUnits="userSpaceOnUse" gradientTransform="translate(26.4876 -2.33949) rotate(90) scale(42.6957 24.4003)">
<stop stop-color="white"/>
<stop offset="0.0001" stop-color="white"/>
<stop offset="1" stop-color="white" stop-opacity="0"/>
</radialGradient>
</defs>
</svg>
