<svg width="169" height="37" viewBox="0 0 169 37" fill="none" xmlns="http://www.w3.org/2000/svg">
<path d="M13.1978 0C9.29993 6.23797 0 15.7603 0 23.0134C0 30.2664 6.01515 36.1486 13.4324 36.1486C20.8497 36.1486 26.8647 30.2664 26.8647 23.0134C26.8647 15.7603 17.9856 7.10805 13.1978 0Z" fill="white"/>
<path d="M13.1978 0C9.29993 6.23797 0 15.7603 0 23.0134C0 30.2664 6.01515 36.1486 13.4324 36.1486C20.8497 36.1486 26.8647 30.2664 26.8647 23.0134C26.8647 15.7603 17.9856 7.10805 13.1978 0ZM5.7831 12.3585H21.0815V13.8472L5.7831 18.303V12.3585ZM5.7831 19.1629L21.0815 14.7071V17.2489L5.7831 21.7047V19.1629ZM5.7831 22.5654L21.0815 18.1095V20.6514L5.7831 25.1072V22.5654ZM5.7831 25.9683L21.0815 21.5125V24.0544L5.7831 28.5102V25.9683ZM21.0816 31.2572L13.4321 33.62L5.7831 31.2572V29.3713L21.0815 24.9155V27.4573L13.6053 29.6348H21.0816V31.2572Z" fill="#315283"/>
<path d="M24.7027 32.3612H168.824C168.846 32.3611 168.869 32.3565 168.889 32.3477C168.91 32.3388 168.929 32.326 168.945 32.3098C168.961 32.2936 168.973 32.2744 168.982 32.2534C168.99 32.2323 168.995 32.2098 168.995 32.1871V30.1028C168.995 30.08 168.99 30.0575 168.982 30.0364C168.973 30.0154 168.961 29.9962 168.945 29.9801C168.929 29.9639 168.91 29.951 168.889 29.9422C168.869 29.9334 168.846 29.9288 168.824 29.9286H26.6544C26.1015 30.8143 25.4464 31.6309 24.7027 32.3612Z" fill="#315283"/>
<path d="M168.824 34.298C168.869 34.2977 168.913 34.2792 168.945 34.2466C168.977 34.2139 168.995 34.1698 168.995 34.1239V33.4479C168.995 33.4252 168.99 33.4027 168.982 33.3816C168.973 33.3606 168.961 33.3414 168.945 33.3252C168.929 33.3091 168.91 33.2962 168.889 33.2874C168.869 33.2786 168.846 33.274 168.824 33.2738H23.6714C23.2018 33.6484 22.7076 33.9905 22.1921 34.298H168.824Z" fill="white"/>
<path d="M38.8829 14.1112H34.2526C32.4407 14.1112 31.6355 14.9222 31.6355 16.7468V26.0723C31.6355 27.8969 32.4407 28.7078 34.2526 28.7078H38.8829C40.6948 28.7078 41.5 27.8969 41.5 26.0723V24.045C41.5117 23.9624 41.5042 23.8782 41.478 23.799C41.4518 23.7199 41.4076 23.6479 41.349 23.5889C41.2905 23.5299 41.219 23.4854 41.1404 23.459C41.0618 23.4326 40.9781 23.425 40.8961 23.4368H38.2789C38.1969 23.425 38.1133 23.4326 38.0346 23.459C37.956 23.4854 37.8846 23.5299 37.826 23.5889C37.7674 23.6479 37.7232 23.7199 37.697 23.799C37.6708 23.8782 37.6633 23.9624 37.675 24.045V24.6532C37.6867 24.7358 37.6792 24.8201 37.653 24.8992C37.6268 24.9784 37.5826 25.0503 37.524 25.1094C37.4654 25.1684 37.394 25.2128 37.3154 25.2392C37.2367 25.2656 37.1531 25.2732 37.071 25.2614H36.0645C35.9824 25.2732 35.8988 25.2656 35.8202 25.2392C35.7415 25.2128 35.6701 25.1684 35.6115 25.1094C35.5529 25.0503 35.5087 24.9784 35.4825 24.8992C35.4563 24.8201 35.4488 24.7358 35.4605 24.6532V18.1658C35.4488 18.0832 35.4563 17.999 35.4825 17.9198C35.5087 17.8407 35.5529 17.7687 35.6115 17.7097C35.6701 17.6507 35.7415 17.6062 35.8202 17.5798C35.8988 17.5535 35.9824 17.5459 36.0645 17.5577H37.071C37.1531 17.5459 37.2367 17.5535 37.3153 17.5798C37.394 17.6062 37.4654 17.6507 37.524 17.7097C37.5826 17.7687 37.6268 17.8407 37.653 17.9198C37.6792 17.999 37.6867 18.0832 37.675 18.1658V18.774C37.6633 18.8567 37.6708 18.9409 37.697 19.0201C37.7232 19.0992 37.7674 19.1712 37.826 19.2302C37.8846 19.2892 37.956 19.3336 38.0346 19.36C38.1133 19.3864 38.1969 19.394 38.2789 19.3822H40.8961C40.9781 19.394 41.0618 19.3864 41.1404 19.36C41.219 19.3336 41.2904 19.2892 41.349 19.2302C41.4076 19.1712 41.4518 19.0992 41.478 19.0201C41.5042 18.9409 41.5117 18.8567 41.5 18.774V16.7468C41.5 14.9222 40.6948 14.1112 38.8829 14.1112Z" fill="white"/>
<path d="M52.7739 14.3138H43.9159C43.8339 14.302 43.7502 14.3096 43.6716 14.336C43.593 14.3624 43.5215 14.4068 43.4629 14.4659C43.4043 14.5249 43.3602 14.5968 43.334 14.676C43.3078 14.7552 43.3002 14.8394 43.3119 14.922V27.8967C43.3002 27.9793 43.3078 28.0636 43.334 28.1427C43.3602 28.2219 43.4043 28.2939 43.4629 28.3529C43.5215 28.4119 43.593 28.4563 43.6716 28.4827C43.7502 28.5091 43.8339 28.5167 43.9159 28.5049H46.533C46.6151 28.5167 46.6987 28.5091 46.7773 28.4827C46.856 28.4563 46.9274 28.4119 46.986 28.3529C47.0446 28.2939 47.0887 28.2219 47.115 28.1427C47.1412 28.0636 47.1487 27.9793 47.137 27.8967V17.7603H49.5528V27.8967C49.5411 27.9793 49.5486 28.0636 49.5748 28.1427C49.601 28.2219 49.6452 28.2938 49.7038 28.3529C49.7624 28.4119 49.8338 28.4563 49.9124 28.4827C49.9911 28.5091 50.0747 28.5167 50.1568 28.5049H52.7739C52.8559 28.5167 52.9396 28.5091 53.0182 28.4827C53.0968 28.4563 53.1683 28.4119 53.2269 28.3529C53.2855 28.2938 53.3296 28.2219 53.3558 28.1427C53.382 28.0636 53.3896 27.9793 53.3779 27.8967V14.922C53.3896 14.8394 53.382 14.7551 53.3558 14.676C53.3296 14.5968 53.2855 14.5249 53.2269 14.4659C53.1683 14.4068 53.0968 14.3624 53.0182 14.336C52.9396 14.3096 52.8559 14.302 52.7739 14.3138Z" fill="white"/>
<path d="M64.0477 25.0585H59.6187V23.0312H62.8398C62.9219 23.043 63.0055 23.0354 63.0841 23.009C63.1627 22.9826 63.2342 22.9382 63.2928 22.8791C63.3514 22.8201 63.3955 22.7482 63.4217 22.669C63.4479 22.5899 63.4555 22.5056 63.4437 22.423V20.193C63.4555 20.1103 63.4479 20.0261 63.4217 19.947C63.3955 19.8678 63.3514 19.7958 63.2928 19.7368C63.2342 19.6778 63.1627 19.6334 63.0841 19.607C63.0055 19.5806 62.9219 19.573 62.8398 19.5848H59.6187V17.7603H63.947C64.0291 17.7721 64.1127 17.7645 64.1913 17.7381C64.27 17.7117 64.3414 17.6672 64.4 17.6082C64.4586 17.5492 64.5028 17.4773 64.529 17.3981C64.5552 17.3189 64.5627 17.2347 64.551 17.1521V14.922C64.5627 14.8394 64.5552 14.7552 64.529 14.676C64.5028 14.5968 64.4586 14.5249 64.4 14.4659C64.3414 14.4068 64.27 14.3624 64.1913 14.336C64.1127 14.3096 64.0291 14.302 63.947 14.3138H56.3977C56.3156 14.302 56.232 14.3096 56.1533 14.336C56.0747 14.3624 56.0033 14.4068 55.9447 14.4659C55.8861 14.5249 55.8419 14.5968 55.8157 14.676C55.7895 14.7552 55.782 14.8394 55.7937 14.922V27.8967C55.782 27.9793 55.7895 28.0636 55.8157 28.1427C55.8419 28.2219 55.8861 28.2939 55.9447 28.3529C56.0033 28.4119 56.0747 28.4563 56.1533 28.4827C56.232 28.5091 56.3156 28.5167 56.3977 28.5049H64.0477C64.1297 28.5167 64.2134 28.5091 64.292 28.4827C64.3706 28.4563 64.4421 28.4119 64.5007 28.3529C64.5593 28.2939 64.6034 28.2219 64.6296 28.1427C64.6558 28.0636 64.6634 27.9793 64.6517 27.8967V25.6667C64.6634 25.5841 64.6558 25.4999 64.6296 25.4207C64.6034 25.3415 64.5593 25.2696 64.5007 25.2106C64.4421 25.1515 64.3706 25.1071 64.292 25.0807C64.2134 25.0543 64.1297 25.0467 64.0477 25.0585Z" fill="white"/>
<path d="M75.8248 26.2749V14.922C75.8366 14.8394 75.829 14.7552 75.8028 14.676C75.7766 14.5968 75.7325 14.5249 75.6739 14.4659C75.6153 14.4069 75.5438 14.3624 75.4652 14.336C75.3866 14.3096 75.303 14.302 75.2209 14.3138H72.6038C72.5217 14.302 72.4381 14.3096 72.3594 14.336C72.2808 14.3624 72.2094 14.4069 72.1508 14.4659C72.0922 14.5249 72.048 14.5968 72.0218 14.676C71.9956 14.7552 71.9881 14.8394 71.9998 14.922V25.0585H70.188V14.922C70.1997 14.8394 70.1921 14.7552 70.1659 14.676C70.1397 14.5968 70.0956 14.5249 70.037 14.4659C69.9784 14.4069 69.9069 14.3624 69.8283 14.336C69.7497 14.3096 69.666 14.302 69.584 14.3138H66.9669C66.8848 14.302 66.8012 14.3096 66.7226 14.336C66.6439 14.3624 66.5725 14.4069 66.5139 14.4659C66.4553 14.5249 66.4111 14.5968 66.3849 14.676C66.3587 14.7552 66.3512 14.8394 66.3629 14.922V27.8967C66.3514 27.9767 66.3581 28.0583 66.3825 28.1353C66.407 28.2122 66.4485 28.2826 66.5039 28.341C66.5594 28.3994 66.6273 28.4444 66.7026 28.4724C66.7778 28.5005 66.8584 28.511 66.9383 28.503H77.4791C77.4898 28.4134 77.4825 28.3225 77.4577 28.2358C77.4329 28.1491 77.3911 28.0682 77.3347 27.9981L75.8248 26.2749Z" fill="white"/>
<path d="M85.9511 21.0039V20.8012C85.9511 20.8012 87.461 20.5984 87.461 19.1794V16.9493C87.461 15.1247 86.6557 14.3138 84.8438 14.3138H78.9049C78.8229 14.302 78.7393 14.3096 78.6606 14.336C78.582 14.3624 78.5106 14.4069 78.452 14.4659C78.3934 14.5249 78.3492 14.5968 78.323 14.676C78.2968 14.7552 78.2893 14.8394 78.301 14.922V27.8967C78.2893 27.9793 78.2968 28.0636 78.323 28.1427C78.3492 28.2219 78.3934 28.2939 78.452 28.3529C78.5106 28.4119 78.582 28.4564 78.6606 28.4827C78.7393 28.5091 78.8229 28.5167 78.9049 28.5049H85.4478C87.2597 28.5049 88.0649 27.694 88.0649 25.8694V23.234C88.0649 21.2066 85.9511 21.0039 85.9511 21.0039ZM82.126 17.5575H83.0319C83.114 17.5457 83.1976 17.5533 83.2762 17.5797C83.3549 17.6061 83.4263 17.6505 83.4849 17.7096C83.5435 17.7686 83.5876 17.8405 83.6139 17.9197C83.6401 17.9988 83.6476 18.0831 83.6359 18.1657V18.9766C83.6476 19.0592 83.6401 19.1435 83.6139 19.2226C83.5876 19.3018 83.5435 19.3738 83.4849 19.4328C83.4263 19.4918 83.3549 19.5362 83.2762 19.5626C83.1976 19.589 83.114 19.5966 83.0319 19.5848H82.126V17.5575ZM84.2399 24.653C84.2516 24.7356 84.244 24.8199 84.2178 24.899C84.1916 24.9782 84.1475 25.0502 84.0889 25.1092C84.0303 25.1682 83.9588 25.2126 83.8802 25.239C83.8016 25.2654 83.7179 25.273 83.6359 25.2612H82.126V22.8285H83.6359C83.7179 22.8167 83.8016 22.8243 83.8802 22.8507C83.9588 22.8771 84.0303 22.9215 84.0889 22.9805C84.1475 23.0396 84.1916 23.1115 84.2178 23.1907C84.244 23.2698 84.2516 23.3541 84.2399 23.4367V24.653Z" fill="white"/>
<path d="M97.1242 14.1112H92.2926C90.4808 14.1112 89.6755 14.9222 89.6755 16.7468V26.0723C89.6755 27.8969 90.4808 28.7078 92.2926 28.7078H97.1242C98.9361 28.7078 99.7414 27.8969 99.7414 26.0723V16.7468C99.7414 14.9222 98.9361 14.1112 97.1242 14.1112ZM95.9163 24.6532C95.9281 24.7358 95.9205 24.82 95.8943 24.8992C95.8681 24.9784 95.824 25.0503 95.7654 25.1093C95.7068 25.1684 95.6353 25.2128 95.5567 25.2392C95.4781 25.2656 95.3945 25.2732 95.3124 25.2614H94.1046C94.0225 25.2732 93.9389 25.2656 93.8602 25.2392C93.7816 25.2128 93.7102 25.1684 93.6516 25.1093C93.593 25.0503 93.5488 24.9784 93.5226 24.8992C93.4964 24.82 93.4889 24.7358 93.5006 24.6532V18.1658C93.4889 18.0832 93.4964 17.999 93.5226 17.9198C93.5488 17.8407 93.593 17.7687 93.6516 17.7097C93.7102 17.6507 93.7816 17.6062 93.8603 17.5798C93.9389 17.5535 94.0225 17.5459 94.1046 17.5577H95.3124C95.3944 17.5459 95.4781 17.5535 95.5567 17.5798C95.6353 17.6062 95.7068 17.6507 95.7654 17.7097C95.824 17.7687 95.8681 17.8407 95.8943 17.9198C95.9205 17.999 95.9281 18.0832 95.9163 18.1658V24.6532Z" fill="white"/>
<path d="M111.619 25.0585H111.015V14.922C111.027 14.8393 111.019 14.7551 110.993 14.6759C110.967 14.5968 110.923 14.5248 110.864 14.4658C110.806 14.4068 110.734 14.3623 110.656 14.336C110.577 14.3096 110.493 14.302 110.411 14.3138H103.768C103.264 14.3138 103.023 14.5165 102.963 14.922L101.654 25.0585H101.151C101.069 25.0467 100.985 25.0543 100.906 25.0807C100.828 25.107 100.756 25.1515 100.698 25.2105C100.639 25.2695 100.595 25.3415 100.569 25.4206C100.543 25.4998 100.535 25.5841 100.547 25.6667V28.5051H112.223V25.6667C112.235 25.5841 112.227 25.4998 112.201 25.4207C112.175 25.3415 112.131 25.2695 112.072 25.2105C112.014 25.1515 111.942 25.107 111.863 25.0807C111.785 25.0543 111.701 25.0467 111.619 25.0585ZM107.19 25.0585H105.479L106.184 17.7602H107.19V25.0585Z" fill="white"/>
<path d="M120.678 14.1112H116.048C114.236 14.1112 113.431 14.9222 113.431 16.7468V26.0723C113.431 27.8969 114.236 28.7078 116.048 28.7078H120.678C122.49 28.7078 123.296 27.8969 123.296 26.0723V24.045C123.307 23.9624 123.3 23.8782 123.273 23.799C123.247 23.7198 123.203 23.6479 123.145 23.5889C123.086 23.5299 123.014 23.4854 122.936 23.459C122.857 23.4326 122.774 23.425 122.692 23.4368H120.074C119.992 23.425 119.909 23.4326 119.83 23.459C119.752 23.4854 119.68 23.5299 119.621 23.5889C119.563 23.6479 119.519 23.7199 119.493 23.799C119.466 23.8782 119.459 23.9624 119.47 24.045V24.6532C119.482 24.7358 119.475 24.8201 119.448 24.8992C119.422 24.9784 119.378 25.0503 119.319 25.1094C119.261 25.1684 119.189 25.2128 119.111 25.2392C119.032 25.2656 118.949 25.2732 118.867 25.2614H117.86C117.778 25.2732 117.694 25.2656 117.616 25.2392C117.537 25.2128 117.466 25.1684 117.407 25.1094C117.348 25.0503 117.304 24.9784 117.278 24.8992C117.252 24.8201 117.244 24.7358 117.256 24.6532V18.1658C117.244 18.0832 117.252 17.999 117.278 17.9198C117.304 17.8407 117.348 17.7687 117.407 17.7097C117.466 17.6507 117.537 17.6062 117.616 17.5798C117.694 17.5535 117.778 17.5459 117.86 17.5577H118.867C118.949 17.5459 119.032 17.5535 119.111 17.5798C119.189 17.6062 119.261 17.6507 119.319 17.7097C119.378 17.7687 119.422 17.8407 119.448 17.9198C119.475 17.999 119.482 18.0832 119.47 18.1658V18.774C119.459 18.8567 119.466 18.9409 119.493 19.0201C119.519 19.0992 119.563 19.1712 119.621 19.2302C119.68 19.2892 119.752 19.3337 119.83 19.36C119.909 19.3864 119.992 19.394 120.074 19.3822H122.692C122.774 19.394 122.857 19.3864 122.936 19.3601C123.014 19.3337 123.086 19.2892 123.145 19.2302C123.203 19.1712 123.247 19.0992 123.273 19.0201C123.3 18.9409 123.307 18.8567 123.296 18.774V16.7468C123.296 14.9222 122.49 14.1112 120.678 14.1112Z" fill="white"/>
<path d="M132.959 14.3138H124.705C124.623 14.302 124.539 14.3096 124.46 14.336C124.382 14.3624 124.31 14.4068 124.252 14.4659C124.193 14.5249 124.149 14.5968 124.123 14.676C124.097 14.7552 124.089 14.8394 124.101 14.922V17.1521C124.089 17.2347 124.097 17.3189 124.123 17.3981C124.149 17.4773 124.193 17.5492 124.252 17.6082C124.31 17.6672 124.382 17.7117 124.46 17.7381C124.539 17.7645 124.623 17.7721 124.705 17.7603H126.919V27.8967C126.908 27.9793 126.915 28.0636 126.941 28.1427C126.967 28.2219 127.012 28.2938 127.07 28.3529C127.129 28.4119 127.2 28.4563 127.279 28.4827C127.358 28.5091 127.441 28.5167 127.523 28.5049H130.14C130.222 28.5167 130.306 28.5091 130.385 28.4827C130.463 28.4563 130.535 28.4119 130.593 28.3529C130.652 28.2938 130.696 28.2219 130.722 28.1427C130.748 28.0636 130.756 27.9793 130.744 27.8967V17.7603H132.959C133.041 17.7721 133.124 17.7645 133.203 17.7381C133.282 17.7117 133.353 17.6672 133.412 17.6082C133.47 17.5492 133.514 17.4773 133.541 17.3981C133.567 17.3189 133.574 17.2347 133.563 17.1521V14.922C133.574 14.8394 133.567 14.7552 133.541 14.676C133.514 14.5968 133.47 14.5249 133.412 14.4659C133.353 14.4068 133.282 14.3624 133.203 14.336C133.124 14.3096 133.041 14.302 132.959 14.3138Z" fill="white"/>
<path d="M142.018 14.3138H135.576C135.494 14.302 135.41 14.3096 135.332 14.336C135.253 14.3624 135.181 14.4068 135.123 14.4659C135.064 14.5249 135.02 14.5968 134.994 14.676C134.968 14.7552 134.96 14.8394 134.972 14.922V27.8967C134.96 27.9793 134.968 28.0636 134.994 28.1427C135.02 28.2219 135.064 28.2939 135.123 28.3529C135.181 28.4119 135.253 28.4563 135.332 28.4827C135.41 28.5091 135.494 28.5167 135.576 28.5049H138.193C138.275 28.5167 138.359 28.5091 138.437 28.4827C138.516 28.4563 138.587 28.4118 138.646 28.3528C138.705 28.2938 138.749 28.2219 138.775 28.1427C138.801 28.0635 138.809 27.9793 138.797 27.8967V24.653H142.018C143.83 24.653 144.635 23.8422 144.635 22.0176V16.9493C144.635 15.1247 143.83 14.3138 142.018 14.3138ZM140.81 20.5984C140.822 20.681 140.814 20.7653 140.788 20.8444C140.762 20.9236 140.718 20.9956 140.659 21.0546C140.6 21.1136 140.529 21.158 140.45 21.1844C140.372 21.2108 140.288 21.2184 140.206 21.2066H138.797V17.7602H140.206C140.288 17.7484 140.372 17.756 140.45 17.7824C140.529 17.8088 140.6 17.8533 140.659 17.9123C140.718 17.9713 140.762 18.0432 140.788 18.1224C140.814 18.2016 140.822 18.2858 140.81 18.3684V20.5984Z" fill="white"/>
<path d="M153.896 14.1112H149.064C147.252 14.1112 146.447 14.9222 146.447 16.7468V26.0723C146.447 27.8969 147.252 28.7078 149.064 28.7078H153.896C155.708 28.7078 156.513 27.8969 156.513 26.0723V16.7468C156.513 14.9222 155.708 14.1112 153.896 14.1112ZM152.688 24.6532C152.699 24.7358 152.692 24.82 152.666 24.8992C152.639 24.9784 152.595 25.0503 152.537 25.1093C152.478 25.1684 152.407 25.2128 152.328 25.2392C152.249 25.2656 152.166 25.2732 152.084 25.2614H150.876C150.794 25.2732 150.71 25.2656 150.632 25.2392C150.553 25.2128 150.481 25.1684 150.423 25.1093C150.364 25.0503 150.32 24.9784 150.294 24.8992C150.268 24.82 150.26 24.7358 150.272 24.6532V18.1658C150.26 18.0832 150.268 17.999 150.294 17.9198C150.32 17.8407 150.364 17.7687 150.423 17.7097C150.481 17.6507 150.553 17.6062 150.632 17.5798C150.71 17.5535 150.794 17.5459 150.876 17.5577H152.084C152.166 17.5459 152.249 17.5535 152.328 17.5798C152.407 17.6062 152.478 17.6507 152.537 17.7097C152.595 17.7687 152.639 17.8407 152.666 17.9198C152.692 17.999 152.699 18.0832 152.688 18.1658V24.6532Z" fill="white"/>
<path d="M168.391 14.3138H164.968C164.566 14.3138 164.384 14.5165 164.264 14.922L162.754 20.193H162.552V14.922C162.564 14.8394 162.556 14.7552 162.53 14.676C162.504 14.5968 162.46 14.5249 162.401 14.4659C162.343 14.4068 162.271 14.3624 162.193 14.336C162.114 14.3096 162.03 14.302 161.948 14.3138H159.331C159.249 14.302 159.165 14.3096 159.087 14.336C159.008 14.3624 158.937 14.4069 158.878 14.4659C158.82 14.5249 158.776 14.5968 158.749 14.676C158.723 14.7552 158.716 14.8394 158.727 14.922V27.8967C158.716 27.9793 158.723 28.0635 158.749 28.1427C158.776 28.2219 158.82 28.2938 158.878 28.3528C158.937 28.4118 159.008 28.4563 159.087 28.4827C159.165 28.5091 159.249 28.5167 159.331 28.5049H162.754C163.156 28.5049 163.337 28.3022 163.458 27.8967L164.968 22.6258H165.169V27.8967C165.158 27.9793 165.165 28.0635 165.192 28.1427C165.218 28.2219 165.262 28.2938 165.32 28.3528C165.379 28.4118 165.45 28.4563 165.529 28.4827C165.608 28.5091 165.691 28.5167 165.773 28.5049H168.391C168.473 28.5167 168.556 28.5091 168.635 28.4827C168.713 28.4563 168.785 28.4119 168.844 28.3529C168.902 28.2938 168.946 28.2219 168.972 28.1427C168.999 28.0636 169.006 27.9793 168.995 27.8967V14.922C169.006 14.8394 168.999 14.7551 168.972 14.676C168.946 14.5968 168.902 14.5249 168.844 14.4659C168.785 14.4068 168.713 14.3624 168.635 14.336C168.556 14.3096 168.473 14.302 168.391 14.3138Z" fill="white"/>
<path d="M163.727 13.2857C164.196 13.2895 164.656 13.1467 165.041 12.8771C165.427 12.6074 165.72 12.2241 165.88 11.7798H161.573C161.734 12.2241 162.027 12.6074 162.413 12.8771C162.798 13.1467 163.257 13.2895 163.727 13.2857Z" fill="white"/>
</svg>
