<svg width="30" height="34" viewBox="0 0 30 34" fill="none" xmlns="http://www.w3.org/2000/svg">
<path d="M23.9054 22.3336C24.9508 22.5212 26.1476 21.4658 26.6407 19.8635C26.8815 19.0807 26.9038 18.314 26.7576 17.6798C25.9453 18.0957 24.9938 18.5261 23.9247 18.9321C23.4931 19.096 23.0431 19.253 22.5739 19.404C20.3032 20.1324 17.6117 20.68 14.5987 20.68C11.6542 20.68 9.02119 20.0971 6.79122 19.3083C6.29048 19.1313 5.81428 18.9444 5.35666 18.7506C4.35976 18.3286 3.45746 17.8805 2.68057 17.4416C2.46523 18.1156 2.4621 18.9796 2.73439 19.8635C3.21518 21.4274 4.3674 22.4691 5.3943 22.3443C5.44586 24.2515 5.56122 25.9832 5.80197 26.4963C6.41123 27.7969 11.6349 33.3177 12.4041 33.7006C13.1733 34.0835 17.0194 34.1157 17.6924 33.7006C18.3654 33.2855 23.1407 27.8766 23.6053 26.4963C23.7877 25.9533 23.8708 24.2277 23.9054 22.3336Z" fill="#FF4C0C"/>
<path d="M23.9054 22.3336C24.9508 22.5212 26.1476 21.4658 26.6407 19.8635C26.8815 19.0807 26.9038 18.314 26.7576 17.6798C25.9453 18.0957 24.9938 18.5261 23.9247 18.9321C23.4931 19.096 23.0431 19.253 22.5739 19.404C20.3032 20.1324 17.6117 20.68 14.5987 20.68C11.6542 20.68 9.02119 20.0971 6.79122 19.3083C6.29048 19.1313 5.81428 18.9444 5.35666 18.7506C4.35976 18.3286 3.45746 17.8805 2.68057 17.4416C2.46523 18.1156 2.4621 18.9796 2.73439 19.8635C3.21518 21.4274 4.3674 22.4691 5.3943 22.3443C5.44586 24.2515 5.56122 25.9832 5.80197 26.4963C6.41123 27.7969 11.6349 33.3177 12.4041 33.7006C13.1733 34.0835 17.0194 34.1157 17.6924 33.7006C18.3654 33.2855 23.1407 27.8766 23.6053 26.4963C23.7877 25.9533 23.8708 24.2277 23.9054 22.3336Z" fill="url(#paint0_radial_801_1262)" fill-opacity="0.4"/>
<path d="M28.5215 11.4889C28.0469 12.2547 26.9138 13.3815 24.3932 14.4354C24.3447 14.4553 23.8031 14.6904 23.6355 14.2599C23.4509 13.7874 23.7409 13.4818 23.937 13.4006C26.4092 12.3674 26.6501 11.3219 27.013 10.8325C26.6077 9.27075 25.5562 4.43245 19.2302 2.46328V11.4889C19.2302 12.7557 18.1948 13.7867 16.9225 13.7867H13.0765C11.8043 13.7867 10.7688 12.7558 10.7688 11.4889V2.42948C5.39126 3.96213 3.49521 8.81884 2.95907 10.922C2.97983 10.945 3.00291 10.9665 3.01755 10.9947C3.01988 10.9994 3.04675 11.0461 3.10065 11.1211C3.37294 11.5026 4.40217 12.7081 7.2113 13.883C7.40741 13.9642 7.64978 14.305 7.41586 14.7929C7.15121 15.3436 6.74282 15.182 6.69439 15.1621C4.15288 14.0998 2.96599 12.8627 2.45528 12.2562H0V13.8837C0 13.8837 1.35228 15.0426 3.65375 16.2727C4.1783 16.553 4.7483 16.8349 5.36834 17.1098C5.57756 17.2024 5.79217 17.2944 6.01218 17.3848C8.37358 18.3529 11.3074 19.148 14.615 19.148C17.928 19.148 22.0009 18.009 24.364 17.1459C24.597 17.0608 24.8262 16.9743 25.0478 16.887C25.8101 16.5852 26.3231 16.2728 26.9385 15.9687C28.9953 14.9516 30 14.0417 30 14.0417V11.4889H28.5215Z" fill="#FF4C0C"/>
<path d="M28.5215 11.4889C28.0469 12.2547 26.9138 13.3815 24.3932 14.4354C24.3447 14.4553 23.8031 14.6904 23.6355 14.2599C23.4509 13.7874 23.7409 13.4818 23.937 13.4006C26.4092 12.3674 26.6501 11.3219 27.013 10.8325C26.6077 9.27075 25.5562 4.43245 19.2302 2.46328V11.4889C19.2302 12.7557 18.1948 13.7867 16.9225 13.7867H13.0765C11.8043 13.7867 10.7688 12.7558 10.7688 11.4889V2.42948C5.39126 3.96213 3.49521 8.81884 2.95907 10.922C2.97983 10.945 3.00291 10.9665 3.01755 10.9947C3.01988 10.9994 3.04675 11.0461 3.10065 11.1211C3.37294 11.5026 4.40217 12.7081 7.2113 13.883C7.40741 13.9642 7.64978 14.305 7.41586 14.7929C7.15121 15.3436 6.74282 15.182 6.69439 15.1621C4.15288 14.0998 2.96599 12.8627 2.45528 12.2562H0V13.8837C0 13.8837 1.35228 15.0426 3.65375 16.2727C4.1783 16.553 4.7483 16.8349 5.36834 17.1098C5.57756 17.2024 5.79217 17.2944 6.01218 17.3848C8.37358 18.3529 11.3074 19.148 14.615 19.148C17.928 19.148 22.0009 18.009 24.364 17.1459C24.597 17.0608 24.8262 16.9743 25.0478 16.887C25.8101 16.5852 26.3231 16.2728 26.9385 15.9687C28.9953 14.9516 30 14.0417 30 14.0417V11.4889H28.5215Z" fill="url(#paint1_radial_801_1262)" fill-opacity="0.4"/>
<path d="M13.0765 12.2547H16.9225C17.3471 12.2547 17.6917 11.9116 17.6917 11.4889V0.765881C17.6917 0.343133 17.3471 0 16.9225 0H13.0765C12.6519 0 12.3073 0.343133 12.3073 0.765881V11.4888C12.3073 11.9116 12.6519 12.2547 13.0765 12.2547Z" fill="#FF4C0C"/>
<path d="M13.0765 12.2547H16.9225C17.3471 12.2547 17.6917 11.9116 17.6917 11.4889V0.765881C17.6917 0.343133 17.3471 0 16.9225 0H13.0765C12.6519 0 12.3073 0.343133 12.3073 0.765881V11.4888C12.3073 11.9116 12.6519 12.2547 13.0765 12.2547Z" fill="url(#paint2_radial_801_1262)" fill-opacity="0.4"/>
<defs>
<radialGradient id="paint0_radial_801_1262" cx="0" cy="0" r="1" gradientUnits="userSpaceOnUse" gradientTransform="translate(15.439 -1.54546) rotate(90) scale(28.2045 14.2224)">
<stop stop-color="white"/>
<stop offset="0.0001" stop-color="white"/>
<stop offset="1" stop-color="white" stop-opacity="0"/>
</radialGradient>
<radialGradient id="paint1_radial_801_1262" cx="0" cy="0" r="1" gradientUnits="userSpaceOnUse" gradientTransform="translate(15.439 -1.54546) rotate(90) scale(28.2045 14.2224)">
<stop stop-color="white"/>
<stop offset="0.0001" stop-color="white"/>
<stop offset="1" stop-color="white" stop-opacity="0"/>
</radialGradient>
<radialGradient id="paint2_radial_801_1262" cx="0" cy="0" r="1" gradientUnits="userSpaceOnUse" gradientTransform="translate(15.439 -1.54546) rotate(90) scale(28.2045 14.2224)">
<stop stop-color="white"/>
<stop offset="0.0001" stop-color="white"/>
<stop offset="1" stop-color="white" stop-opacity="0"/>
</radialGradient>
</defs>
</svg>
